STARTFONT 2.1
COMMENT $Xorg: $
COMMENT ISO10646-1 extension by Markus Kuhn <mkuhn@acm.org>, 2001-03-20
COMMENT  (c) Copyright Bigelow & Holmes 1986, 1985. Lucida is a registered
COMMENT  trademark of Bigelow & Holmes. See LEGAL NOTICE file for terms 
COMMENT  of the license. 
FONT -B&H-Lucida-Bold-I-Normal-Sans-19-190-75-75-P-122-ISO10646-1
SIZE 19 72 72
FONTBOUNDINGBOX 39 26 -13 -8
STARTPROPERTIES 22
COMMENT Begin LogicalFontDescription
FONTNAME_REGISTRY ""
FOUNDRY "B&H"
FAMILY_NAME "Lucida"
WEIGHT_NAME "Bold"
SLANT "I"
SETWIDTH_NAME "Normal"
ADD_STYLE_NAME "Sans"
PIXEL_SIZE 19
POINT_SIZE 190
RESOLUTION_X 75
RESOLUTION_Y 75
SPACING "P"
AVERAGE_WIDTH 122
CHARSET_REGISTRY "ISO10646"
CHARSET_ENCODING "1"
COMMENT END LogicalFontDescription
COPYRIGHT "Copyright Bigelow & Holmes 1986, 1985."
FONT_ASCENT 17
FONT_DESCENT 4
DEFAULT_CHAR 0
FACE_NAME "Lucida Sans Bold Italic"
X_HEIGHT 10
CAP_HEIGHT 14
ENDPROPERTIES
CHARS 723
STARTCHAR char0
ENCODING 0
SWIDTH 813 0
DWIDTH 15 0
BBX 15 13 2 0
BITMAP
AAAA
0000
8002
0000
8002
0000
8002
0000
8002
0000
8002
0000
AAAA
ENDCHAR
STARTCHAR space
ENCODING 32
SWIDTH 343 0
DWIDTH 6 0
BBX 1 1 0 0
BITMAP
00
ENDCHAR
STARTCHAR exclam
ENCODING 33
SWIDTH 343 0
DWIDTH 7 0
BBX 6 14 2 0
BITMAP
3C
3C
3C
38
38
38
30
30
70
70
00
00
00
F0
ENDCHAR
STARTCHAR quotedbl
ENCODING 34
SWIDTH 530 0
DWIDTH 10 0
BBX 9 5 3 9
BITMAP
E380
C180
C180
4100
4100
ENDCHAR
STARTCHAR numbersign
ENCODING 35
SWIDTH 687 0
DWIDTH 13 0
BBX 12 14 2 0
BITMAP
0130
0220
0260
0440
7FF0
0880
0880
1100
1100
FFE0
2200
6400
4400
C800
ENDCHAR
STARTCHAR dollar
ENCODING 36
SWIDTH 687 0
DWIDTH 13 0
BBX 11 20 2 -3
BITMAP
0180
0100
0700
0FE0
1FE0
3960
3300
3E00
1E00
0F00
0780
07C0
0DC0
08C0
C980
FF80
FF00
1C00
1800
1800
ENDCHAR
STARTCHAR percent
ENCODING 37
SWIDTH 908 0
DWIDTH 17 0
BBX 16 14 2 0
BITMAP
3802
6C04
C408
C410
CC20
CC40
CC80
7100
021E
0433
0833
1023
2026
401C
ENDCHAR
STARTCHAR ampersand
ENCODING 38
SWIDTH 816 0
DWIDTH 15 0
BBX 14 14 2 0
BITMAP
03C0
0E20
0C30
0C30
0CE0
0FC0
1F8C
7F0C
F318
E398
C1B0
E0E0
71E0
3FF8
ENDCHAR
STARTCHAR quotesingle
ENCODING 39
SWIDTH 265 0
DWIDTH 5 0
BBX 4 6 3 8
BITMAP
F0
E0
E0
60
40
40
ENDCHAR
STARTCHAR parenleft
ENCODING 40
SWIDTH 386 0
DWIDTH 7 0
BBX 7 18 2 -4
BITMAP
06
0C
1C
18
30
70
60
60
E0
E0
C0
C0
C0
E0
60
60
20
20
ENDCHAR
STARTCHAR parenright
ENCODING 41
SWIDTH 386 0
DWIDTH 7 0
BBX 7 18 1 -4
BITMAP
10
18
1C
0C
0C
0C
0C
0E
0C
0C
1C
1C
18
38
30
60
C0
80
ENDCHAR
STARTCHAR asterisk
ENCODING 42
SWIDTH 464 0
DWIDTH 9 0
BBX 7 6 3 8
BITMAP
1C
5A
EE
38
EC
48
ENDCHAR
STARTCHAR plus
ENCODING 43
SWIDTH 687 0
DWIDTH 13 0
BBX 11 12 2 0
BITMAP
0300
0200
0200
0200
0200
FFE0
0800
0800
0800
0800
0800
1800
ENDCHAR
STARTCHAR comma
ENCODING 44
SWIDTH 343 0
DWIDTH 7 0
BBX 5 7 1 -3
BITMAP
78
78
78
70
30
70
E0
ENDCHAR
STARTCHAR hyphen
ENCODING 45
SWIDTH 289 0
DWIDTH 5 0
BBX 5 1 1 6
BITMAP
F8
ENDCHAR
STARTCHAR period
ENCODING 46
SWIDTH 343 0
DWIDTH 7 0
BBX 4 3 2 0
BITMAP
70
F0
E0
ENDCHAR
STARTCHAR slash
ENCODING 47
SWIDTH 596 0
DWIDTH 11 0
BBX 12 17 -1 -3
BITMAP
0010
0020
0060
0040
0080
0180
0100
0200
0600
0400
0800
1800
1000
2000
6000
4000
8000
ENDCHAR
STARTCHAR zero
ENCODING 48
SWIDTH 687 0
DWIDTH 13 0
BBX 10 14 3 0
BITMAP
0F00
1980
31C0
71C0
71C0
61C0
E1C0
E1C0
E1C0
E180
E380
E300
6600
3C00
ENDCHAR
STARTCHAR one
ENCODING 49
SWIDTH 687 0
DWIDTH 13 0
BBX 6 14 5 0
BITMAP
FC
3C
3C
38
38
78
78
78
70
70
70
F0
F0
E0
ENDCHAR
STARTCHAR two
ENCODING 50
SWIDTH 687 0
DWIDTH 13 0
BBX 12 14 2 0
BITMAP
1FC0
3060
0070
0070
0070
0060
00C0
0300
0600
0C00
1800
7800
F000
FFC0
ENDCHAR
STARTCHAR three
ENCODING 51
SWIDTH 687 0
DWIDTH 13 0
BBX 11 14 3 0
BITMAP
1F80
20E0
00E0
00E0
00C0
0380
3F00
0380
01C0
01C0
01C0
01C0
C380
FE00
ENDCHAR
STARTCHAR four
ENCODING 52
SWIDTH 687 0
DWIDTH 13 0
BBX 12 14 1 0
BITMAP
0070
00F0
01E0
02E0
04E0
0CE0
19E0
31E0
61C0
FFF0
03C0
0380
0380
0380
ENDCHAR
STARTCHAR five
ENCODING 53
SWIDTH 687 0
DWIDTH 13 0
BBX 12 14 2 0
BITMAP
1FF0
1000
3000
3000
3E00
0780
01C0
01C0
00C0
00E0
01C0
01C0
C380
FE00
ENDCHAR
STARTCHAR six
ENCODING 54
SWIDTH 687 0
DWIDTH 13 0
BBX 12 14 2 0
BITMAP
07F0
1C30
3C00
3800
7800
7F80
F1C0
E0E0
E060
E060
E0E0
60C0
7180
1F00
ENDCHAR
STARTCHAR seven
ENCODING 55
SWIDTH 687 0
DWIDTH 13 0
BBX 11 14 4 0
BITMAP
FFE0
00C0
0180
0180
0300
0600
0C00
0C00
1800
3000
3000
6000
E000
E000
ENDCHAR
STARTCHAR eight
ENCODING 56
SWIDTH 687 0
DWIDTH 13 0
BBX 12 14 2 0
BITMAP
07C0
1870
1030
3830
3CF0
1FE0
0F80
3FE0
73E0
E0E0
C060
C060
60C0
3F00
ENDCHAR
STARTCHAR nine
ENCODING 57
SWIDTH 687 0
DWIDTH 13 0
BBX 12 14 2 0
BITMAP
0F80
18E0
3060
7070
6070
6070
7070
38F0
1FE0
01E0
01C0
03C0
C380
FE00
ENDCHAR
STARTCHAR colon
ENCODING 58
SWIDTH 343 0
DWIDTH 7 0
BBX 6 10 1 0
BITMAP
3C
3C
78
00
00
00
00
78
F0
F0
ENDCHAR
STARTCHAR semicolon
ENCODING 59
SWIDTH 343 0
DWIDTH 7 0
BBX 6 13 1 -3
BITMAP
3C
3C
38
00
00
00
78
78
70
70
30
70
E0
ENDCHAR
STARTCHAR less
ENCODING 60
SWIDTH 687 0
DWIDTH 13 0
BBX 11 10 1 1
BITMAP
0060
01C0
0700
1C00
F000
6000
1000
0C00
0300
0180
ENDCHAR
STARTCHAR equal
ENCODING 61
SWIDTH 687 0
DWIDTH 13 0
BBX 12 7 2 2
BITMAP
7FF0
0000
0000
0000
0000
0000
FFE0
ENDCHAR
STARTCHAR greater
ENCODING 62
SWIDTH 687 0
DWIDTH 13 0
BBX 11 10 1 1
BITMAP
3000
1800
0600
0300
00C0
01E0
0700
1C00
7000
C000
ENDCHAR
STARTCHAR question
ENCODING 63
SWIDTH 539 0
DWIDTH 10 0
BBX 9 14 3 0
BITMAP
FE00
8380
0380
0380
0700
0E00
1C00
3800
7800
7000
0000
0000
0000
F000
ENDCHAR
STARTCHAR at
ENCODING 64
SWIDTH 833 0
DWIDTH 16 0
BBX 13 14 3 0
BITMAP
07C0
1820
2010
2008
47C8
49C8
91C8
A388
A398
A3A0
9FE0
8000
6100
1F80
ENDCHAR
STARTCHAR A
ENCODING 65
SWIDTH 771 0
DWIDTH 15 0
BBX 13 14 -1 0
BITMAP
01C0
01E0
03E0
07E0
05E0
0CE0
08F0
18F0
10F0
30F0
3FF0
6078
4078
8078
ENDCHAR
STARTCHAR B
ENCODING 66
SWIDTH 660 0
DWIDTH 13 0
BBX 12 14 1 0
BITMAP
1FE0
3C70
3C70
3C70
3860
3840
7880
78C0
7FE0
78E0
7060
F060
F0C0
FF80
ENDCHAR
STARTCHAR C
ENCODING 67
SWIDTH 737 0
DWIDTH 14 0
BBX 14 14 2 0
BITMAP
03FC
0E0C
1800
3800
7000
6000
E000
E000
E000
E000
E000
7000
7830
1FF0
ENDCHAR
STARTCHAR D
ENCODING 68
SWIDTH 822 0
DWIDTH 16 0
BBX 15 14 2 0
BITMAP
1FF8
3E1C
3E0E
3C0E
3C0E
3C0E
7C0E
780E
781C
781C
7838
F030
F0E0
FF80
ENDCHAR
STARTCHAR E
ENCODING 69
SWIDTH 642 0
DWIDTH 12 0
BBX 12 14 2 0
BITMAP
1FF0
3C00
3C00
3C00
3800
3800
7FC0
7800
7800
7800
7000
F000
F000
FFC0
ENDCHAR
STARTCHAR F
ENCODING 70
SWIDTH 614 0
DWIDTH 12 0
BBX 12 14 2 0
BITMAP
1FF0
3C00
3C00
3C00
3800
3800
7FC0
7800
7800
7000
7000
F000
F000
F000
ENDCHAR
STARTCHAR G
ENCODING 71
SWIDTH 755 0
DWIDTH 14 0
BBX 14 14 2 0
BITMAP
03FC
0E0C
1800
3800
7000
6000
E000
E000
E000
E078
E0F0
70F0
79F0
1FE0
ENDCHAR
STARTCHAR H
ENCODING 72
SWIDTH 813 0
DWIDTH 15 0
BBX 15 14 2 0
BITMAP
1C1E
3C1E
3C1E
3C1C
3C1C
383C
7FFC
783C
7838
7078
7078
F078
F078
F070
ENDCHAR
STARTCHAR I
ENCODING 73
SWIDTH 361 0
DWIDTH 7 0
BBX 6 14 2 0
BITMAP
3C
3C
3C
38
38
38
78
78
70
70
70
F0
F0
F0
ENDCHAR
STARTCHAR J
ENCODING 74
SWIDTH 502 0
DWIDTH 10 0
BBX 11 17 0 -3
BITMAP
01E0
01E0
01E0
01C0
03C0
03C0
03C0
03C0
0380
0380
0780
0780
0780
0700
0700
8E00
FC00
ENDCHAR
STARTCHAR K
ENCODING 75
SWIDTH 753 0
DWIDTH 14 0
BBX 12 14 2 0
BITMAP
1C30
3C20
3C40
3CC0
3D80
3900
7B00
7F00
7B80
79C0
71C0
F0E0
F0E0
F070
ENDCHAR
STARTCHAR L
ENCODING 76
SWIDTH 623 0
DWIDTH 12 0
BBX 10 14 2 0
BITMAP
1C00
3C00
3C00
3C00
3800
3800
7800
7800
7800
7800
7000
F000
F000
FFC0
ENDCHAR
STARTCHAR M
ENCODING 77
SWIDTH 940 0
DWIDTH 18 0
BBX 17 14 2 0
BITMAP
1E0780
3E0780
3F0F80
3F0F00
3F1700
371700
772700
776F00
774E00
77CE00
678E00
E70E00
E31E00
E01C00
ENDCHAR
STARTCHAR N
ENCODING 78
SWIDTH 789 0
DWIDTH 15 0
BBX 14 14 2 0
BITMAP
181C
3C1C
3C1C
3E18
3E38
3738
7738
73B8
73B0
71F0
61F0
E0F0
E0F0
E060
ENDCHAR
STARTCHAR O
ENCODING 79
SWIDTH 855 0
DWIDTH 16 0
BBX 13 14 3 0
BITMAP
07C0
0C70
1838
3038
7038
6038
E038
E038
E038
E070
E060
60E0
71C0
1F00
ENDCHAR
STARTCHAR P
ENCODING 80
SWIDTH 645 0
DWIDTH 12 0
BBX 12 14 2 0
BITMAP
1FE0
3C70
3870
3870
3870
3860
79C0
7F00
7000
7000
7000
F000
F000
E000
ENDCHAR
STARTCHAR Q
ENCODING 81
SWIDTH 855 0
DWIDTH 16 0
BBX 14 18 3 -4
BITMAP
07C0
0C70
1838
3038
7038
6038
E038
E038
E038
E070
E070
60E0
71C0
1F80
01E0
00F0
0078
003C
ENDCHAR
STARTCHAR R
ENCODING 82
SWIDTH 708 0
DWIDTH 13 0
BBX 12 14 2 0
BITMAP
1FE0
3870
3870
3870
3870
38E0
7FC0
7F80
7300
7380
7180
F1C0
F1C0
E0E0
ENDCHAR
STARTCHAR S
ENCODING 83
SWIDTH 639 0
DWIDTH 12 0
BBX 11 14 2 0
BITMAP
07E0
1860
3000
3800
3C00
3F00
3F80
1FC0
0FC0
03C0
01C0
0180
C100
FE00
ENDCHAR
STARTCHAR T
ENCODING 84
SWIDTH 747 0
DWIDTH 14 0
BBX 14 14 3 0
BITMAP
FFFC
0700
0700
0700
0F00
0F00
0F00
0E00
0E00
1E00
1E00
1E00
1E00
1C00
ENDCHAR
STARTCHAR U
ENCODING 85
SWIDTH 759 0
DWIDTH 14 0
BBX 13 14 3 0
BITMAP
3838
7838
7878
7070
7070
7070
F070
E070
E0E0
E0E0
E0E0
E0C0
7180
3F00
ENDCHAR
STARTCHAR V
ENCODING 86
SWIDTH 765 0
DWIDTH 15 0
BBX 12 14 3 0
BITMAP
F010
F030
F020
7060
7040
7080
7880
7900
7900
3A00
3A00
3C00
3C00
3800
ENDCHAR
STARTCHAR W
ENCODING 87
SWIDTH 991 0
DWIDTH 19 0
BBX 16 14 4 0
BITMAP
C181
C382
C382
C384
C584
E588
ED98
E990
E9B0
F9A0
F1E0
71E0
61C0
61C0
ENDCHAR
STARTCHAR X
ENCODING 88
SWIDTH 696 0
DWIDTH 13 0
BBX 13 14 -1 0
BITMAP
1C18
1C10
0C20
0E40
0E80
0780
0700
0700
0F80
1B80
1180
21C0
61C0
C0E0
ENDCHAR
STARTCHAR Y
ENCODING 89
SWIDTH 681 0
DWIDTH 13 0
BBX 10 14 2 0
BITMAP
C040
E080
E100
6300
7200
7400
3C00
3800
3800
7800
7800
7800
7000
F000
ENDCHAR
STARTCHAR Z
ENCODING 90
SWIDTH 687 0
DWIDTH 13 0
BBX 13 14 1 0
BITMAP
1FF8
0070
00F0
00E0
01C0
0380
0700
0700
0E00
1C00
3800
3800
7000
FFE0
ENDCHAR
STARTCHAR bracketleft
ENCODING 91
SWIDTH 386 0
DWIDTH 7 0
BBX 8 17 1 -3
BITMAP
1F
1C
1C
18
38
38
38
38
38
70
70
70
70
70
E0
F8
F8
ENDCHAR
STARTCHAR backslash
ENCODING 92
SWIDTH 566 0
DWIDTH 11 0
BBX 5 17 2 -3
BITMAP
80
80
80
40
40
40
40
20
20
20
30
10
10
10
08
08
08
ENDCHAR
STARTCHAR bracketright
ENCODING 93
SWIDTH 386 0
DWIDTH 7 0
BBX 8 17 1 -3
BITMAP
1F
1F
07
0E
0E
0E
0E
0E
1C
1C
1C
1C
1C
18
38
38
F8
ENDCHAR
STARTCHAR asciicircum
ENCODING 94
SWIDTH 687 0
DWIDTH 13 0
BBX 9 11 1 2
BITMAP
0200
0200
0600
0E00
0900
1100
3100
2100
4080
4080
8080
ENDCHAR
STARTCHAR underscore
ENCODING 95
SWIDTH 500 0
DWIDTH 10 0
BBX 8 1 1 -3
BITMAP
FF
ENDCHAR
STARTCHAR grave
ENCODING 96
SWIDTH 663 0
DWIDTH 13 0
BBX 4 1 7 13
BITMAP
F0
ENDCHAR
STARTCHAR a
ENCODING 97
SWIDTH 681 0
DWIDTH 13 0
BBX 12 10 2 0
BITMAP
07F0
18F0
30E0
71E0
61E0
E3E0
EDE0
FDC0
F9C0
73C0
ENDCHAR
STARTCHAR b
ENCODING 98
SWIDTH 681 0
DWIDTH 13 0
BBX 12 14 1 0
BITMAP
1F00
1E00
3E00
3E00
3E60
3CF0
3DF0
7F70
7E70
7C60
7C60
78C0
F180
FE00
ENDCHAR
STARTCHAR c
ENCODING 99
SWIDTH 548 0
DWIDTH 10 0
BBX 9 10 2 0
BITMAP
0F80
1880
3000
6000
E000
E000
E100
E100
E300
3C00
ENDCHAR
STARTCHAR d
ENCODING 100
SWIDTH 681 0
DWIDTH 13 0
BBX 13 14 1 0
BITMAP
0078
0078
0070
0070
07F0
18F0
30F0
71E0
61E0
E3E0
EDE0
FDE0
F9C0
73C0
ENDCHAR
STARTCHAR e
ENCODING 101
SWIDTH 612 0
DWIDTH 12 0
BBX 10 10 2 0
BITMAP
0780
1DC0
38C0
71C0
F180
F300
FE00
F040
70C0
3F00
ENDCHAR
STARTCHAR f
ENCODING 102
SWIDTH 464 0
DWIDTH 9 0
BBX 11 18 1 -4
BITMAP
03E0
0E20
1E00
1C00
7F80
3C00
3C00
3800
3800
3800
7800
7800
7800
7000
7000
F000
F000
F000
ENDCHAR
STARTCHAR g
ENCODING 103
SWIDTH 674 0
DWIDTH 13 0
BBX 12 14 1 -4
BITMAP
07F0
08E0
18E0
30E0
71E0
63E0
64C0
7CC0
78C0
71C0
01C0
0180
C300
FE00
ENDCHAR
STARTCHAR h
ENCODING 104
SWIDTH 675 0
DWIDTH 13 0
BBX 12 14 1 0
BITMAP
1E00
1C00
3C00
3C00
3CE0
3DF0
3BF0
7AE0
7CE0
78E0
78E0
70C0
F1C0
F1C0
ENDCHAR
STARTCHAR i
ENCODING 105
SWIDTH 343 0
DWIDTH 7 0
BBX 7 14 1 0
BITMAP
3E
00
00
00
3C
3C
3C
78
78
78
78
70
F0
F0
ENDCHAR
STARTCHAR j
ENCODING 106
SWIDTH 407 0
DWIDTH 8 0
BBX 11 18 -1 -4
BITMAP
01E0
0000
0000
0000
01C0
0180
0380
0380
0380
0380
0300
0300
0700
0700
0600
0600
8C00
F800
ENDCHAR
STARTCHAR k
ENCODING 107
SWIDTH 666 0
DWIDTH 13 0
BBX 11 14 2 0
BITMAP
1C00
1C00
3C00
3C00
3C60
3840
3880
7900
7B00
7F00
7380
7380
F1C0
F1C0
ENDCHAR
STARTCHAR l
ENCODING 108
SWIDTH 343 0
DWIDTH 7 0
BBX 7 14 1 0
BITMAP
1E
1E
1C
3C
3C
3C
3C
78
78
78
78
70
F0
F0
ENDCHAR
STARTCHAR m
ENCODING 109
SWIDTH 991 0
DWIDTH 19 0
BBX 18 10 1 0
BITMAP
3CE380
39E7C0
3BEF80
7EEB80
7CF180
79E380
71E380
71C300
F1C300
F3C700
ENDCHAR
STARTCHAR n
ENCODING 110
SWIDTH 675 0
DWIDTH 13 0
BBX 12 10 1 0
BITMAP
3CE0
39F0
3BE0
7EE0
7CE0
78E0
78E0
70C0
F1C0
F1C0
ENDCHAR
STARTCHAR o
ENCODING 111
SWIDTH 663 0
DWIDTH 13 0
BBX 10 10 2 0
BITMAP
0F00
3380
71C0
61C0
E1C0
E180
E380
E300
E600
3C00
ENDCHAR
STARTCHAR p
ENCODING 112
SWIDTH 681 0
DWIDTH 13 0
BBX 13 14 1 -4
BITMAP
1E70
1CF8
3DF8
3D38
3A38
3C30
3870
7860
78C0
7F00
7000
7000
F000
F000
ENDCHAR
STARTCHAR q
ENCODING 113
SWIDTH 681 0
DWIDTH 13 0
BBX 12 14 2 -4
BITMAP
07F0
18F0
30F0
61E0
61E0
E3E0
EDE0
FDE0
F9C0
73C0
03C0
03C0
03C0
0380
ENDCHAR
STARTCHAR r
ENCODING 114
SWIDTH 542 0
DWIDTH 10 0
BBX 10 10 2 0
BITMAP
38C0
3980
7A80
7C00
7800
7000
7000
F000
F000
F000
ENDCHAR
STARTCHAR s
ENCODING 115
SWIDTH 527 0
DWIDTH 10 0
BBX 10 10 1 0
BITMAP
0FC0
1C40
3C00
3E00
3F00
1F80
0F80
0780
C700
FE00
ENDCHAR
STARTCHAR t
ENCODING 116
SWIDTH 437 0
DWIDTH 8 0
BBX 7 13 2 0
BITMAP
1C
38
38
FE
78
70
70
70
E0
E0
E0
FC
78
ENDCHAR
STARTCHAR u
ENCODING 117
SWIDTH 675 0
DWIDTH 13 0
BBX 12 10 2 0
BITMAP
38F0
38F0
30E0
71E0
71E0
73E0
75E0
7DC0
F9C0
73C0
ENDCHAR
STARTCHAR v
ENCODING 118
SWIDTH 630 0
DWIDTH 12 0
BBX 11 10 2 0
BITMAP
F020
F040
F040
7880
7900
7900
7A00
7E00
3C00
3800
ENDCHAR
STARTCHAR w
ENCODING 119
SWIDTH 878 0
DWIDTH 17 0
BBX 15 10 3 0
BITMAP
C1C2
C1C4
C2C4
C2CC
C4C8
C4D8
E8D0
F0F0
F0E0
E0E0
ENDCHAR
STARTCHAR x
ENCODING 120
SWIDTH 563 0
DWIDTH 11 0
BBX 10 10 -1 0
BITMAP
78C0
3C80
3D00
1E00
1E00
1E00
1F00
2F00
4700
C780
ENDCHAR
STARTCHAR y
ENCODING 121
SWIDTH 633 0
DWIDTH 12 0
BBX 11 14 0 -4
BITMAP
7020
7040
78C0
7880
7900
3B00
3A00
3C00
3C00
3800
3000
3000
6000
C000
ENDCHAR
STARTCHAR z
ENCODING 122
SWIDTH 630 0
DWIDTH 12 0
BBX 12 10 1 0
BITMAP
3FF0
00E0
01C0
0380
0700
0E00
1C00
3800
7000
FFE0
ENDCHAR
STARTCHAR braceleft
ENCODING 123
SWIDTH 386 0
DWIDTH 7 0
BBX 7 17 2 -3
BITMAP
0E
1E
3C
3C
1C
1C
18
78
E0
F0
70
70
70
F0
F0
F0
70
ENDCHAR
STARTCHAR bar
ENCODING 124
SWIDTH 259 0
DWIDTH 5 0
BBX 6 17 1 -3
BITMAP
04
04
08
08
08
10
10
10
30
20
20
20
40
40
40
80
80
ENDCHAR
STARTCHAR braceright
ENCODING 125
SWIDTH 386 0
DWIDTH 7 0
BBX 7 17 1 -3
BITMAP
1C
1E
1E
1E
1C
3C
1C
1E
0E
3C
30
70
70
78
78
F0
E0
ENDCHAR
STARTCHAR asciitilde
ENCODING 126
SWIDTH 687 0
DWIDTH 13 0
BBX 12 5 2 3
BITMAP
3830
4C30
4620
8360
81C0
ENDCHAR
STARTCHAR space
ENCODING 160
SWIDTH 343 0
DWIDTH 6 0
BBX 1 1 0 0
BITMAP
00
ENDCHAR
STARTCHAR exclamdown
ENCODING 161
SWIDTH 343 0
DWIDTH 7 0
BBX 6 14 1 -4
BITMAP
3C
00
00
00
38
30
30
30
70
70
70
F0
F0
E0
ENDCHAR
STARTCHAR cent
ENCODING 162
SWIDTH 687 0
DWIDTH 13 0
BBX 10 14 3 0
BITMAP
0300
0300
0FC0
3F80
3080
7000
E000
E000
E000
E080
E300
7F00
1800
1000
ENDCHAR
STARTCHAR sterling
ENCODING 163
SWIDTH 687 0
DWIDTH 13 0
BBX 12 14 2 0
BITMAP
03F0
0710
0700
0F00
0E00
0E00
1E00
3F80
1E00
1C00
1C00
3800
3000
FFC0
ENDCHAR
STARTCHAR currency
ENCODING 164
SWIDTH 687 0
DWIDTH 13 0
BBX 15 14 0 0
BITMAP
0002
3006
1008
09D0
0E60
0C20
1830
1830
0820
0860
1CE0
27B0
C018
8000
ENDCHAR
STARTCHAR yen
ENCODING 165
SWIDTH 687 0
DWIDTH 13 0
BBX 11 14 3 0
BITMAP
6020
7040
3080
3980
3B00
1A00
1C00
7F80
3C00
FF00
3C00
3800
3800
3800
ENDCHAR
STARTCHAR brokenbar
ENCODING 166
SWIDTH 259 0
DWIDTH 5 0
BBX 6 17 1 -3
BITMAP
04
04
08
08
08
08
18
00
00
00
60
40
40
40
40
80
80
ENDCHAR
STARTCHAR section
ENCODING 167
SWIDTH 687 0
DWIDTH 13 0
BBX 12 18 2 -4
BITMAP
07F0
1C30
1C00
3F00
3F80
1FC0
1FE0
13E0
2060
3060
7E40
3F80
3FC0
0FC0
07C0
03C0
C380
FE00
ENDCHAR
STARTCHAR dieresis
ENCODING 168
SWIDTH 663 0
DWIDTH 13 0
BBX 7 1 6 13
BITMAP
EE
ENDCHAR
STARTCHAR copyright
ENCODING 169
SWIDTH 834 0
DWIDTH 16 0
BBX 12 14 3 0
BITMAP
0F00
3080
4040
47E0
8850
9010
9010
A010
B010
9010
4FA0
4040
3080
0F00
ENDCHAR
STARTCHAR ordfeminine
ENCODING 170
SWIDTH 539 0
DWIDTH 10 0
BBX 9 8 3 6
BITMAP
1F80
2780
6780
CF00
DF00
FF00
F700
6F00
ENDCHAR
STARTCHAR guillemotleft
ENCODING 171
SWIDTH 633 0
DWIDTH 12 0
BBX 11 8 2 1
BITMAP
0420
0C60
1080
2300
F700
7380
3980
11C0
ENDCHAR
STARTCHAR logicalnot
ENCODING 172
SWIDTH 687 0
DWIDTH 13 0
BBX 11 7 3 2
BITMAP
FFE0
0060
0060
0040
0040
0040
0040
ENDCHAR
STARTCHAR hyphen
ENCODING 173
SWIDTH 289 0
DWIDTH 5 0
BBX 5 1 1 6
BITMAP
F8
ENDCHAR
STARTCHAR registered
ENCODING 174
SWIDTH 691 0
DWIDTH 13 0
BBX 8 10 4 4
BITMAP
3C
42
BF
BB
B3
BD
A5
A5
42
3C
ENDCHAR
STARTCHAR macron
ENCODING 175
SWIDTH 663 0
DWIDTH 13 0
BBX 7 1 6 13
BITMAP
FE
ENDCHAR
STARTCHAR degree
ENCODING 176
SWIDTH 241 0
DWIDTH 5 0
BBX 1 3 4 11
BITMAP
80
80
80
ENDCHAR
STARTCHAR plusminus
ENCODING 177
SWIDTH 687 0
DWIDTH 13 0
BBX 13 12 1 0
BITMAP
0080
0080
0080
0100
7FF8
0100
0200
0200
0200
0400
0000
FFF0
ENDCHAR
STARTCHAR twosuperior
ENCODING 178
SWIDTH 539 0
DWIDTH 8 0
BBX 7 8 -12 6
BITMAP
7C
06
06
0C
18
20
60
FC
ENDCHAR
STARTCHAR threesuperior
ENCODING 179
SWIDTH 539 0
DWIDTH 8 0
BBX 7 8 -12 6
BITMAP
7C
06
0E
78
0C
0C
0C
F8
ENDCHAR
STARTCHAR acute
ENCODING 180
SWIDTH 663 0
DWIDTH 13 0
BBX 6 1 7 13
BITMAP
FC
ENDCHAR
STARTCHAR mu
ENCODING 181
SWIDTH 681 0
DWIDTH 13 0
BBX 13 13 1 -3
BITMAP
1C78
3C78
3C70
3CF0
38F0
39F0
7AF0
7EE0
7CE0
79E0
7000
F000
F000
ENDCHAR
STARTCHAR paragraph
ENCODING 182
SWIDTH 687 0
DWIDTH 13 0
BBX 9 17 3 -3
BITMAP
7F80
FD80
F900
FB00
FB00
FB00
7300
1200
1200
3200
2200
2600
2400
2400
4400
4400
4400
ENDCHAR
STARTCHAR periodcentered
ENCODING 183
SWIDTH 343 0
DWIDTH 13 0
BBX 3 1 6 6
BITMAP
E0
ENDCHAR
STARTCHAR cedilla
ENCODING 184
SWIDTH 663 0
DWIDTH 13 0
BBX 4 4 4 -4
BITMAP
30
60
10
E0
ENDCHAR
STARTCHAR onesuperior
ENCODING 185
SWIDTH 539 0
DWIDTH 8 0
BBX 4 8 -13 6
BITMAP
F0
70
60
60
60
60
E0
C0
ENDCHAR
STARTCHAR ordmasculine
ENCODING 186
SWIDTH 539 0
DWIDTH 10 0
BBX 10 8 2 6
BITMAP
0F80
31C0
60C0
60C0
C180
C180
E300
7C00
ENDCHAR
STARTCHAR guillemotright
ENCODING 187
SWIDTH 633 0
DWIDTH 12 0
BBX 11 8 1 1
BITMAP
7100
3380
39C0
1DE0
1880
2100
C600
8400
ENDCHAR
STARTCHAR onequarter
ENCODING 188
SWIDTH 1089 0
DWIDTH 18 0
BBX 15 14 7 0
BITMAP
F00C
7018
6030
6020
6040
6080
E106
C20E
0414
082C
106C
30FE
600C
C018
ENDCHAR
STARTCHAR onehalf
ENCODING 189
SWIDTH 1089 0
DWIDTH 18 0
BBX 15 14 7 0
BITMAP
F00C
7018
6030
6020
6040
6080
E17C
C206
0406
080C
1018
3020
6060
C0FC
ENDCHAR
STARTCHAR threequarters
ENCODING 190
SWIDTH 1149 0
DWIDTH 18 0
BBX 17 14 9 0
BITMAP
7C0300
060600
0E0C00
780800
0C1000
0C2000
0C4180
F88380
010500
020B00
041B00
0C3F80
180300
300600
ENDCHAR
STARTCHAR questiondown
ENCODING 191
SWIDTH 539 0
DWIDTH 10 0
BBX 9 14 0 -4
BITMAP
0780
0000
0000
0000
0000
0F00
0E00
1C00
3800
7000
E000
E000
E080
3F80
ENDCHAR
STARTCHAR Agrave
ENCODING 192
SWIDTH 771 0
DWIDTH 15 0
BBX 13 16 -1 0
BITMAP
01E0
0000
01C0
01E0
03E0
07E0
05E0
0CE0
08F0
18F0
10F0
30F0
3FF0
6078
4078
8078
ENDCHAR
STARTCHAR Aacute
ENCODING 193
SWIDTH 771 0
DWIDTH 15 0
BBX 13 16 -1 0
BITMAP
01F8
0000
01C0
01E0
03E0
07E0
05E0
0CE0
08F0
18F0
10F0
30F0
3FF0
6078
4078
8078
ENDCHAR
STARTCHAR Acircumflex
ENCODING 194
SWIDTH 771 0
DWIDTH 15 0
BBX 13 16 -1 0
BITMAP
07F0
0000
01C0
01E0
03E0
07E0
05E0
0CE0
08F0
18F0
10F0
30F0
3FF0
6078
4078
8078
ENDCHAR
STARTCHAR Atilde
ENCODING 195
SWIDTH 771 0
DWIDTH 15 0
BBX 13 16 -1 0
BITMAP
03F8
0000
01C0
01E0
03E0
07E0
05E0
0CE0
08F0
18F0
10F0
30F0
3FF0
6078
4078
8078
ENDCHAR
STARTCHAR Adieresis
ENCODING 196
SWIDTH 771 0
DWIDTH 15 0
BBX 13 16 -1 0
BITMAP
03B8
0000
01C0
01E0
03E0
07E0
05E0
0CE0
08F0
18F0
10F0
30F0
3FF0
6078
4078
8078
ENDCHAR
STARTCHAR Aring
ENCODING 197
SWIDTH 771 0
DWIDTH 15 0
BBX 13 16 -1 0
BITMAP
00E0
0000
01C0
01E0
03E0
07E0
05E0
0CE0
08F0
18F0
10F0
30F0
3FF0
6078
4078
8078
ENDCHAR
STARTCHAR AE
ENCODING 198
SWIDTH 1004 0
DWIDTH 19 0
BBX 19 14 -1 0
BITMAP
003FE0
007800
00F800
01F800
017800
027000
04FF80
0CF000
0FF000
10F000
30F000
61E000
61E000
C1FF80
ENDCHAR
STARTCHAR Ccedilla
ENCODING 199
SWIDTH 737 0
DWIDTH 14 0
BBX 14 18 2 -4
BITMAP
03FC
0E0C
1800
3800
7000
6000
E000
E000
E000
E000
E000
7000
7830
1FF0
0400
0C00
0200
1C00
ENDCHAR
STARTCHAR Egrave
ENCODING 200
SWIDTH 642 0
DWIDTH 12 0
BBX 12 16 2 0
BITMAP
0780
0000
1FF0
3C00
3C00
3C00
3800
3800
7FC0
7800
7800
7800
7000
F000
F000
FFC0
ENDCHAR
STARTCHAR Eacute
ENCODING 201
SWIDTH 642 0
DWIDTH 12 0
BBX 12 16 2 0
BITMAP
07E0
0000
1FF0
3C00
3C00
3C00
3800
3800
7FC0
7800
7800
7800
7000
F000
F000
FFC0
ENDCHAR
STARTCHAR Ecircumflex
ENCODING 202
SWIDTH 642 0
DWIDTH 12 0
BBX 12 16 2 0
BITMAP
0FE0
0000
1FF0
3C00
3C00
3C00
3800
3800
7FC0
7800
7800
7800
7000
F000
F000
FFC0
ENDCHAR
STARTCHAR Edieresis
ENCODING 203
SWIDTH 642 0
DWIDTH 12 0
BBX 12 16 2 0
BITMAP
0EE0
0000
1FF0
3C00
3C00
3C00
3800
3800
7FC0
7800
7800
7800
7000
F000
F000
FFC0
ENDCHAR
STARTCHAR Igrave
ENCODING 204
SWIDTH 361 0
DWIDTH 7 0
BBX 7 16 2 0
BITMAP
1E
00
3C
3C
3C
38
38
38
78
78
70
70
70
F0
F0
F0
ENDCHAR
STARTCHAR Iacute
ENCODING 205
SWIDTH 361 0
DWIDTH 7 0
BBX 8 16 2 0
BITMAP
3F
00
3C
3C
3C
38
38
38
78
78
70
70
70
F0
F0
F0
ENDCHAR
STARTCHAR Icircumflex
ENCODING 206
SWIDTH 361 0
DWIDTH 7 0
BBX 8 16 2 0
BITMAP
7F
00
3C
3C
3C
38
38
38
78
78
70
70
70
F0
F0
F0
ENDCHAR
STARTCHAR Idieresis
ENCODING 207
SWIDTH 361 0
DWIDTH 7 0
BBX 8 16 2 0
BITMAP
77
00
3C
3C
3C
38
38
38
78
78
70
70
70
F0
F0
F0
ENDCHAR
STARTCHAR Eth
ENCODING 208
SWIDTH 822 0
DWIDTH 16 0
BBX 16 14 1 0
BITMAP
1FFC
1F0E
1F07
1F07
1E07
3E07
FFC7
3C07
3C0E
780E
781C
7838
7870
7FC0
ENDCHAR
STARTCHAR Ntilde
ENCODING 209
SWIDTH 789 0
DWIDTH 15 0
BBX 14 16 2 0
BITMAP
07F0
0000
181C
3C1C
3C1C
3E18
3E38
3738
7738
73B8
73B0
71F0
61F0
E0F0
E0F0
E060
ENDCHAR
STARTCHAR Ograve
ENCODING 210
SWIDTH 855 0
DWIDTH 16 0
BBX 13 16 3 0
BITMAP
03C0
0000
07C0
0C70
1838
3038
7038
6038
E038
E038
E038
E070
E060
60E0
71C0
1F00
ENDCHAR
STARTCHAR Oacute
ENCODING 211
SWIDTH 855 0
DWIDTH 16 0
BBX 13 16 3 0
BITMAP
03F0
0000
07C0
0C70
1838
3038
7038
6038
E038
E038
E038
E070
E060
60E0
71C0
1F00
ENDCHAR
STARTCHAR Ocircumflex
ENCODING 212
SWIDTH 855 0
DWIDTH 16 0
BBX 13 16 3 0
BITMAP
07F0
0000
07C0
0C70
1838
3038
7038
6038
E038
E038
E038
E070
E060
60E0
71C0
1F00
ENDCHAR
STARTCHAR Otilde
ENCODING 213
SWIDTH 855 0
DWIDTH 16 0
BBX 13 16 3 0
BITMAP
07F0
0000
07C0
0C70
1838
3038
7038
6038
E038
E038
E038
E070
E060
60E0
71C0
1F00
ENDCHAR
STARTCHAR Odieresis
ENCODING 214
SWIDTH 855 0
DWIDTH 16 0
BBX 13 16 3 0
BITMAP
0770
0000
07C0
0C70
1838
3038
7038
6038
E038
E038
E038
E070
E060
60E0
71C0
1F00
ENDCHAR
STARTCHAR multiply
ENCODING 215
SWIDTH 687 0
DWIDTH 13 0
BBX 13 12 1 0
BITMAP
1008
3018
1020
0840
0580
0700
0700
0D00
1080
2040
C060
8040
ENDCHAR
STARTCHAR Oslash
ENCODING 216
SWIDTH 855 0
DWIDTH 16 0
BBX 16 14 4 0
BITMAP
03E3
063E
0C1C
181C
383C
307C
709C
711C
761C
7C38
7830
3070
78E0
CF80
ENDCHAR
STARTCHAR Ugrave
ENCODING 217
SWIDTH 759 0
DWIDTH 14 0
BBX 13 16 3 0
BITMAP
03C0
0000
3838
7838
7878
7070
7070
7070
F070
E070
E0E0
E0E0
E0E0
E0C0
7180
3F00
ENDCHAR
STARTCHAR Uacute
ENCODING 218
SWIDTH 759 0
DWIDTH 14 0
BBX 13 16 3 0
BITMAP
07E0
0000
3838
7838
7878
7070
7070
7070
F070
E070
E0E0
E0E0
E0E0
E0C0
7180
3F00
ENDCHAR
STARTCHAR Ucircumflex
ENCODING 219
SWIDTH 759 0
DWIDTH 14 0
BBX 13 16 3 0
BITMAP
0FE0
0000
3838
7838
7878
7070
7070
7070
F070
E070
E0E0
E0E0
E0E0
E0C0
7180
3F00
ENDCHAR
STARTCHAR Udieresis
ENCODING 220
SWIDTH 759 0
DWIDTH 14 0
BBX 13 16 3 0
BITMAP
0EE0
0000
3838
7838
7878
7070
7070
7070
F070
E070
E0E0
E0E0
E0E0
E0C0
7180
3F00
ENDCHAR
STARTCHAR Yacute
ENCODING 221
SWIDTH 681 0
DWIDTH 13 0
BBX 10 16 2 0
BITMAP
1F80
0000
C040
E080
E100
6300
7200
7400
3C00
3800
3800
7800
7800
7800
7000
F000
ENDCHAR
STARTCHAR Thorn
ENCODING 222
SWIDTH 645 0
DWIDTH 12 0
BBX 12 14 1 0
BITMAP
1C00
1C00
3C00
3FE0
3870
3870
3870
7870
78E0
79C0
7F00
7000
F000
F000
ENDCHAR
STARTCHAR germandbls
ENCODING 223
SWIDTH 708 0
DWIDTH 13 0
BBX 13 18 1 -4
BITMAP
03E0
0E70
0E70
1E70
1CE0
1DC0
1DC0
3DE0
3DF0
38F8
3878
7A38
7A30
7BE0
7000
7000
F000
F000
ENDCHAR
STARTCHAR agrave
ENCODING 224
SWIDTH 681 0
DWIDTH 13 0
BBX 12 12 2 0
BITMAP
03C0
0000
07F0
18F0
30E0
71E0
61E0
E3E0
EDE0
FDC0
F9C0
73C0
ENDCHAR
STARTCHAR aacute
ENCODING 225
SWIDTH 681 0
DWIDTH 13 0
BBX 12 12 2 0
BITMAP
07E0
0000
07F0
18F0
30E0
71E0
61E0
E3E0
EDE0
FDC0
F9C0
73C0
ENDCHAR
STARTCHAR acircumflex
ENCODING 226
SWIDTH 681 0
DWIDTH 13 0
BBX 12 12 2 0
BITMAP
0FE0
0000
07F0
18F0
30E0
71E0
61E0
E3E0
EDE0
FDC0
F9C0
73C0
ENDCHAR
STARTCHAR atilde
ENCODING 227
SWIDTH 681 0
DWIDTH 13 0
BBX 12 12 2 0
BITMAP
07F0
0000
07F0
18F0
30E0
71E0
61E0
E3E0
EDE0
FDC0
F9C0
73C0
ENDCHAR
STARTCHAR adieresis
ENCODING 228
SWIDTH 681 0
DWIDTH 13 0
BBX 12 12 2 0
BITMAP
0EE0
0000
07F0
18F0
30E0
71E0
61E0
E3E0
EDE0
FDC0
F9C0
73C0
ENDCHAR
STARTCHAR aring
ENCODING 229
SWIDTH 681 0
DWIDTH 13 0
BBX 12 12 2 0
BITMAP
01C0
0000
07F0
18F0
30E0
71E0
61E0
E3E0
EDE0
FDC0
F9C0
73C0
ENDCHAR
STARTCHAR ae
ENCODING 230
SWIDTH 987 0
DWIDTH 19 0
BBX 17 10 2 0
BITMAP
07FF00
18FB80
30F180
71E300
61E700
E3FC00
E5E080
FDE080
F8E380
70FE00
ENDCHAR
STARTCHAR ccedilla
ENCODING 231
SWIDTH 548 0
DWIDTH 10 0
BBX 9 14 2 -4
BITMAP
0F80
1880
3000
6000
E000
E000
E100
E100
E300
3C00
1000
3000
0800
7000
ENDCHAR
STARTCHAR egrave
ENCODING 232
SWIDTH 612 0
DWIDTH 12 0
BBX 10 12 2 0
BITMAP
0780
0000
0780
1DC0
38C0
71C0
F180
F300
FE00
F040
70C0
3F00
ENDCHAR
STARTCHAR eacute
ENCODING 233
SWIDTH 612 0
DWIDTH 12 0
BBX 11 12 2 0
BITMAP
07E0
0000
0780
1DC0
38C0
71C0
F180
F300
FE00
F040
70C0
3F00
ENDCHAR
STARTCHAR ecircumflex
ENCODING 234
SWIDTH 612 0
DWIDTH 12 0
BBX 11 12 2 0
BITMAP
0FE0
0000
0780
1DC0
38C0
71C0
F180
F300
FE00
F040
70C0
3F00
ENDCHAR
STARTCHAR edieresis
ENCODING 235
SWIDTH 612 0
DWIDTH 12 0
BBX 11 12 2 0
BITMAP
0EE0
0000
0780
1DC0
38C0
71C0
F180
F300
FE00
F040
70C0
3F00
ENDCHAR
STARTCHAR igrave
ENCODING 236
SWIDTH 343 0
DWIDTH 7 0
BBX 7 12 1 0
BITMAP
1E
00
3C
3C
38
78
78
78
78
70
F0
F0
ENDCHAR
STARTCHAR iacute
ENCODING 237
SWIDTH 343 0
DWIDTH 7 0
BBX 9 12 1 0
BITMAP
1F80
0000
3C00
3C00
3800
7800
7800
7800
7800
7000
F000
F000
ENDCHAR
STARTCHAR icircumflex
ENCODING 238
SWIDTH 343 0
DWIDTH 7 0
BBX 8 12 1 0
BITMAP
7F
00
3C
3C
38
78
78
78
78
70
F0
F0
ENDCHAR
STARTCHAR idieresis
ENCODING 239
SWIDTH 343 0
DWIDTH 7 0
BBX 9 12 1 0
BITMAP
3B80
0000
3C00
3C00
3800
7800
7800
7800
7800
7000
F000
F000
ENDCHAR
STARTCHAR eth
ENCODING 240
SWIDTH 663 0
DWIDTH 13 0
BBX 9 17 2 0
BITMAP
0100
0300
0200
3E00
1F00
0F00
1380
2380
2F80
3380
7180
6180
E180
E380
E300
E600
3C00
ENDCHAR
STARTCHAR ntilde
ENCODING 241
SWIDTH 675 0
DWIDTH 13 0
BBX 12 12 1 0
BITMAP
07F0
0000
3CE0
39F0
3BE0
7EE0
7CE0
78E0
78E0
70C0
F1C0
F1C0
ENDCHAR
STARTCHAR ograve
ENCODING 242
SWIDTH 663 0
DWIDTH 13 0
BBX 10 12 2 0
BITMAP
0780
0000
0F00
3380
71C0
61C0
E1C0
E180
E380
E300
E600
3C00
ENDCHAR
STARTCHAR oacute
ENCODING 243
SWIDTH 663 0
DWIDTH 13 0
BBX 10 12 2 0
BITMAP
0FC0
0000
0F00
3380
71C0
61C0
E1C0
E180
E380
E300
E600
3C00
ENDCHAR
STARTCHAR ocircumflex
ENCODING 244
SWIDTH 663 0
DWIDTH 13 0
BBX 10 12 2 0
BITMAP
1FC0
0000
0F00
3380
71C0
61C0
E1C0
E180
E380
E300
E600
3C00
ENDCHAR
STARTCHAR otilde
ENCODING 245
SWIDTH 663 0
DWIDTH 13 0
BBX 10 12 2 0
BITMAP
1FC0
0000
0F00
3380
71C0
61C0
E1C0
E180
E380
E300
E600
3C00
ENDCHAR
STARTCHAR odieresis
ENCODING 246
SWIDTH 663 0
DWIDTH 13 0
BBX 10 12 2 0
BITMAP
1DC0
0000
0F00
3380
71C0
61C0
E1C0
E180
E380
E300
E600
3C00
ENDCHAR
STARTCHAR divide
ENCODING 247
SWIDTH 687 0
DWIDTH 13 0
BBX 11 12 2 0
BITMAP
0700
0000
0000
0000
0000
FFE0
0000
0000
0000
0000
0000
1C00
ENDCHAR
STARTCHAR oslash
ENCODING 248
SWIDTH 663 0
DWIDTH 13 0
BBX 11 10 2 0
BITMAP
0F60
33C0
71C0
63C0
E7C0
ED80
FB80
F300
E600
FC00
ENDCHAR
STARTCHAR ugrave
ENCODING 249
SWIDTH 675 0
DWIDTH 13 0
BBX 12 12 2 0
BITMAP
03C0
0000
38F0
38F0
30E0
71E0
71E0
73E0
75E0
7DC0
F9C0
73C0
ENDCHAR
STARTCHAR uacute
ENCODING 250
SWIDTH 675 0
DWIDTH 13 0
BBX 12 12 2 0
BITMAP
07E0
0000
38F0
38F0
30E0
71E0
71E0
73E0
75E0
7DC0
F9C0
73C0
ENDCHAR
STARTCHAR ucircumflex
ENCODING 251
SWIDTH 675 0
DWIDTH 13 0
BBX 12 12 2 0
BITMAP
0FE0
0000
38F0
38F0
30E0
71E0
71E0
73E0
75E0
7DC0
F9C0
73C0
ENDCHAR
STARTCHAR udieresis
ENCODING 252
SWIDTH 675 0
DWIDTH 13 0
BBX 12 12 2 0
BITMAP
0EE0
0000
38F0
38F0
30E0
71E0
71E0
73E0
75E0
7DC0
F9C0
73C0
ENDCHAR
STARTCHAR yacute
ENCODING 253
SWIDTH 633 0
DWIDTH 12 0
BBX 11 16 0 -4
BITMAP
07E0
0000
7020
7040
78C0
7880
7900
3B00
3A00
3C00
3C00
3800
3000
3000
6000
C000
ENDCHAR
STARTCHAR thorn
ENCODING 254
SWIDTH 681 0
DWIDTH 13 0
BBX 13 18 1 -4
BITMAP
1F00
1F00
1F00
1F00
1E30
3E78
3EF8
3EB8
3F38
3E30
7E30
7C60
7CC0
7F00
7000
F000
F000
F000
ENDCHAR
STARTCHAR ydieresis
ENCODING 255
SWIDTH 633 0
DWIDTH 12 0
BBX 11 16 0 -4
BITMAP
0EE0
0000
7020
7040
78C0
7880
7900
3B00
3A00
3C00
3C00
3800
3000
3000
6000
C000
ENDCHAR
STARTCHAR Amacron
ENCODING 256
SWIDTH 771 0
DWIDTH 15 0
BBX 13 16 -1 0
BITMAP
0FE0
0000
01C0
01E0
03E0
07E0
05E0
0CE0
08F0
18F0
10F0
30F0
3FF0
6078
4078
8078
ENDCHAR
STARTCHAR amacron
ENCODING 257
SWIDTH 681 0
DWIDTH 13 0
BBX 12 12 2 0
BITMAP
0FE0
0000
07F0
18F0
30E0
71E0
61E0
E3E0
EDE0
FDC0
F9C0
73C0
ENDCHAR
STARTCHAR Abreve
ENCODING 258
SWIDTH 771 0
DWIDTH 15 0
BBX 13 16 -1 0
BITMAP
0FE0
0000
01C0
01E0
03E0
07E0
05E0
0CE0
08F0
18F0
10F0
30F0
3FF0
6078
4078
8078
ENDCHAR
STARTCHAR abreve
ENCODING 259
SWIDTH 681 0
DWIDTH 13 0
BBX 12 12 2 0
BITMAP
0FE0
0000
07F0
18F0
30E0
71E0
61E0
E3E0
EDE0
FDC0
F9C0
73C0
ENDCHAR
STARTCHAR Aogonek
ENCODING 260
SWIDTH 771 0
DWIDTH 15 0
BBX 13 17 -1 -3
BITMAP
01C0
01E0
03E0
07E0
05E0
0CE0
08F0
18F0
10F0
30F0
3FF0
6078
4078
8078
0000
0000
03C0
ENDCHAR
STARTCHAR aogonek
ENCODING 261
SWIDTH 681 0
DWIDTH 13 0
BBX 12 13 2 -3
BITMAP
07F0
18F0
30E0
71E0
61E0
E3E0
EDE0
FDC0
F9C0
73C0
0000
0000
1E00
ENDCHAR
STARTCHAR Cacute
ENCODING 262
SWIDTH 737 0
DWIDTH 14 0
BBX 14 16 2 0
BITMAP
07E0
0000
03FC
0E0C
1800
3800
7000
6000
E000
E000
E000
E000
E000
7000
7830
1FF0
ENDCHAR
STARTCHAR cacute
ENCODING 263
SWIDTH 548 0
DWIDTH 10 0
BBX 9 12 2 0
BITMAP
3F00
0000
0F80
1880
3000
6000
E000
E000
E100
E100
E300
3C00
ENDCHAR
STARTCHAR Ccircumflex
ENCODING 264
SWIDTH 737 0
DWIDTH 14 0
BBX 14 16 2 0
BITMAP
0FE0
0000
03FC
0E0C
1800
3800
7000
6000
E000
E000
E000
E000
E000
7000
7830
1FF0
ENDCHAR
STARTCHAR ccircumflex
ENCODING 265
SWIDTH 548 0
DWIDTH 10 0
BBX 9 12 2 0
BITMAP
3F80
0000
0F80
1880
3000
6000
E000
E000
E100
E100
E300
3C00
ENDCHAR
STARTCHAR Cdotaccent
ENCODING 266
SWIDTH 737 0
DWIDTH 14 0
BBX 14 16 2 0
BITMAP
0380
0000
03FC
0E0C
1800
3800
7000
6000
E000
E000
E000
E000
E000
7000
7830
1FF0
ENDCHAR
STARTCHAR cdotaccent
ENCODING 267
SWIDTH 548 0
DWIDTH 10 0
BBX 9 12 2 0
BITMAP
0E00
0000
0F80
1880
3000
6000
E000
E000
E100
E100
E300
3C00
ENDCHAR
STARTCHAR Ccaron
ENCODING 268
SWIDTH 737 0
DWIDTH 14 0
BBX 14 16 2 0
BITMAP
0FE0
0000
03FC
0E0C
1800
3800
7000
6000
E000
E000
E000
E000
E000
7000
7830
1FF0
ENDCHAR
STARTCHAR ccaron
ENCODING 269
SWIDTH 548 0
DWIDTH 10 0
BBX 9 12 2 0
BITMAP
3F80
0000
0F80
1880
3000
6000
E000
E000
E100
E100
E300
3C00
ENDCHAR
STARTCHAR Dcaron
ENCODING 270
SWIDTH 822 0
DWIDTH 16 0
BBX 15 16 2 0
BITMAP
0FE0
0000
1FF8
3E1C
3E0E
3C0E
3C0E
3C0E
7C0E
780E
781C
781C
7838
F030
F0E0
FF80
ENDCHAR
STARTCHAR dcaron
ENCODING 271
SWIDTH 912 0
DWIDTH 17 0
BBX 18 14 1 0
BITMAP
007BC0
007BC0
0073C0
007180
07F180
18F700
30F000
71E000
61E000
E3E000
EDE000
FDE000
F9C000
73C000
ENDCHAR
STARTCHAR Dcroat
ENCODING 272
SWIDTH 822 0
DWIDTH 16 0
BBX 16 14 1 0
BITMAP
1FFC
1F0E
1F07
1F07
1E07
3E07
FFC7
3C07
3C0E
780E
781C
7838
7870
7FC0
ENDCHAR
STARTCHAR dcroat
ENCODING 273
SWIDTH 681 0
DWIDTH 13 0
BBX 13 14 1 0
BITMAP
0078
0078
03F0
0070
07F0
18F0
30F0
71E0
61E0
E3E0
EDE0
FDE0
F9C0
73C0
ENDCHAR
STARTCHAR Emacron
ENCODING 274
SWIDTH 642 0
DWIDTH 12 0
BBX 12 16 2 0
BITMAP
3F80
0000
1FF0
3C00
3C00
3C00
3800
3800
7FC0
7800
7800
7800
7000
F000
F000
FFC0
ENDCHAR
STARTCHAR emacron
ENCODING 275
SWIDTH 612 0
DWIDTH 12 0
BBX 10 12 2 0
BITMAP
3F80
0000
0780
1DC0
38C0
71C0
F180
F300
FE00
F040
70C0
3F00
ENDCHAR
STARTCHAR Ebreve
ENCODING 276
SWIDTH 642 0
DWIDTH 12 0
BBX 12 16 2 0
BITMAP
3F80
0000
1FF0
3C00
3C00
3C00
3800
3800
7FC0
7800
7800
7800
7000
F000
F000
FFC0
ENDCHAR
STARTCHAR ebreve
ENCODING 277
SWIDTH 612 0
DWIDTH 12 0
BBX 10 12 2 0
BITMAP
3F80
0000
0780
1DC0
38C0
71C0
F180
F300
FE00
F040
70C0
3F00
ENDCHAR
STARTCHAR Edotaccent
ENCODING 278
SWIDTH 642 0
DWIDTH 12 0
BBX 12 16 2 0
BITMAP
0E00
0000
1FF0
3C00
3C00
3C00
3800
3800
7FC0
7800
7800
7800
7000
F000
F000
FFC0
ENDCHAR
STARTCHAR edotaccent
ENCODING 279
SWIDTH 612 0
DWIDTH 12 0
BBX 10 12 2 0
BITMAP
0E00
0000
0780
1DC0
38C0
71C0
F180
F300
FE00
F040
70C0
3F00
ENDCHAR
STARTCHAR Eogonek
ENCODING 280
SWIDTH 642 0
DWIDTH 12 0
BBX 12 17 2 -3
BITMAP
1FF0
3C00
3C00
3C00
3800
3800
7FC0
7800
7800
7800
7000
F000
F000
FFC0
0000
0000
3C00
ENDCHAR
STARTCHAR eogonek
ENCODING 281
SWIDTH 612 0
DWIDTH 12 0
BBX 10 13 2 -3
BITMAP
0780
1DC0
38C0
71C0
F180
F300
FE00
F040
70C0
3F00
0000
0000
1E00
ENDCHAR
STARTCHAR Ecaron
ENCODING 282
SWIDTH 642 0
DWIDTH 12 0
BBX 12 16 2 0
BITMAP
3F80
0000
1FF0
3C00
3C00
3C00
3800
3800
7FC0
7800
7800
7800
7000
F000
F000
FFC0
ENDCHAR
STARTCHAR ecaron
ENCODING 283
SWIDTH 612 0
DWIDTH 12 0
BBX 10 12 2 0
BITMAP
3F80
0000
0780
1DC0
38C0
71C0
F180
F300
FE00
F040
70C0
3F00
ENDCHAR
STARTCHAR Gcircumflex
ENCODING 284
SWIDTH 755 0
DWIDTH 14 0
BBX 14 16 2 0
BITMAP
0FE0
0000
03FC
0E0C
1800
3800
7000
6000
E000
E000
E000
E078
E0F0
70F0
79F0
1FE0
ENDCHAR
STARTCHAR gcircumflex
ENCODING 285
SWIDTH 674 0
DWIDTH 13 0
BBX 12 16 1 -4
BITMAP
0FE0
0000
07F0
08E0
18E0
30E0
71E0
63E0
64C0
7CC0
78C0
71C0
01C0
0180
C300
FE00
ENDCHAR
STARTCHAR Gbreve
ENCODING 286
SWIDTH 755 0
DWIDTH 14 0
BBX 14 16 2 0
BITMAP
0FE0
0000
03FC
0E0C
1800
3800
7000
6000
E000
E000
E000
E078
E0F0
70F0
79F0
1FE0
ENDCHAR
STARTCHAR gbreve
ENCODING 287
SWIDTH 674 0
DWIDTH 13 0
BBX 12 16 1 -4
BITMAP
0FE0
0000
07F0
08E0
18E0
30E0
71E0
63E0
64C0
7CC0
78C0
71C0
01C0
0180
C300
FE00
ENDCHAR
STARTCHAR Gdotaccent
ENCODING 288
SWIDTH 755 0
DWIDTH 14 0
BBX 14 16 2 0
BITMAP
0380
0000
03FC
0E0C
1800
3800
7000
6000
E000
E000
E000
E078
E0F0
70F0
79F0
1FE0
ENDCHAR
STARTCHAR gdotaccent
ENCODING 289
SWIDTH 674 0
DWIDTH 13 0
BBX 12 16 1 -4
BITMAP
0380
0000
07F0
08E0
18E0
30E0
71E0
63E0
64C0
7CC0
78C0
71C0
01C0
0180
C300
FE00
ENDCHAR
STARTCHAR Gcommaaccent
ENCODING 290
SWIDTH 755 0
DWIDTH 14 0
BBX 14 22 2 -8
BITMAP
03FC
0E0C
1800
3800
7000
6000
E000
E000
E000
E078
E0F0
70F0
79F0
1FE0
0000
0780
0780
0780
0700
0300
0700
0E00
ENDCHAR
STARTCHAR gcommaaccent
ENCODING 291
SWIDTH 674 0
DWIDTH 13 0
BBX 12 21 1 -4
BITMAP
01C0
0300
0380
0780
0780
0780
0000
07F0
08E0
18E0
30E0
71E0
63E0
64C0
7CC0
78C0
71C0
01C0
0180
C300
FE00
ENDCHAR
STARTCHAR Hcircumflex
ENCODING 292
SWIDTH 813 0
DWIDTH 15 0
BBX 15 16 2 0
BITMAP
07F0
0000
1C1E
3C1E
3C1E
3C1C
3C1C
383C
7FFC
783C
7838
7078
7078
F078
F078
F070
ENDCHAR
STARTCHAR hcircumflex
ENCODING 293
SWIDTH 675 0
DWIDTH 13 0
BBX 12 16 1 0
BITMAP
7F00
0000
1E00
1C00
3C00
3C00
3CE0
3DF0
3BF0
7AE0
7CE0
78E0
78E0
70C0
F1C0
F1C0
ENDCHAR
STARTCHAR Hbar
ENCODING 294
SWIDTH 813 0
DWIDTH 15 0
BBX 15 14 2 0
BITMAP
1C1E
3C1E
3C1E
FFFE
3C1C
383C
7FFC
783C
7838
7078
7078
F078
F078
F070
ENDCHAR
STARTCHAR hbar
ENCODING 295
SWIDTH 675 0
DWIDTH 13 0
BBX 12 14 1 0
BITMAP
1E00
1C00
FC00
3C00
3CE0
3DF0
3BF0
7AE0
7CE0
78E0
78E0
70C0
F1C0
F1C0
ENDCHAR
STARTCHAR Itilde
ENCODING 296
SWIDTH 361 0
DWIDTH 7 0
BBX 7 16 2 0
BITMAP
FE
00
3C
3C
3C
38
38
38
78
78
70
70
70
F0
F0
F0
ENDCHAR
STARTCHAR itilde
ENCODING 297
SWIDTH 343 0
DWIDTH 7 0
BBX 7 12 1 0
BITMAP
FE
00
3C
3C
38
78
78
78
78
70
F0
F0
ENDCHAR
STARTCHAR Imacron
ENCODING 298
SWIDTH 361 0
DWIDTH 7 0
BBX 7 16 2 0
BITMAP
FE
00
3C
3C
3C
38
38
38
78
78
70
70
70
F0
F0
F0
ENDCHAR
STARTCHAR imacron
ENCODING 299
SWIDTH 343 0
DWIDTH 7 0
BBX 7 12 1 0
BITMAP
FE
00
3C
3C
38
78
78
78
78
70
F0
F0
ENDCHAR
STARTCHAR Ibreve
ENCODING 300
SWIDTH 361 0
DWIDTH 7 0
BBX 7 16 2 0
BITMAP
FE
00
3C
3C
3C
38
38
38
78
78
70
70
70
F0
F0
F0
ENDCHAR
STARTCHAR ibreve
ENCODING 301
SWIDTH 343 0
DWIDTH 7 0
BBX 7 12 1 0
BITMAP
FE
00
3C
3C
38
78
78
78
78
70
F0
F0
ENDCHAR
STARTCHAR Iogonek
ENCODING 302
SWIDTH 361 0
DWIDTH 7 0
BBX 6 17 2 -3
BITMAP
3C
3C
3C
38
38
38
78
78
70
70
70
F0
F0
F0
00
00
F0
ENDCHAR
STARTCHAR iogonek
ENCODING 303
SWIDTH 343 0
DWIDTH 7 0
BBX 7 17 1 -3
BITMAP
3E
00
00
00
3C
3C
3C
78
78
78
78
70
F0
F0
00
00
78
ENDCHAR
STARTCHAR Idotaccent
ENCODING 304
SWIDTH 361 0
DWIDTH 7 0
BBX 6 16 2 0
BITMAP
38
00
3C
3C
3C
38
38
38
78
78
70
70
70
F0
F0
F0
ENDCHAR
STARTCHAR dotlessi
ENCODING 305
SWIDTH 343 0
DWIDTH 7 0
BBX 6 10 1 0
BITMAP
3C
3C
38
78
78
78
78
70
F0
F0
ENDCHAR
STARTCHAR IJ
ENCODING 306
SWIDTH 845 0
DWIDTH 17 0
BBX 16 17 2 -3
BITMAP
3C0F
3C0F
3C0F
380E
381E
381E
781E
781E
701C
701C
703C
F03C
F03C
F038
0038
0470
07E0
ENDCHAR
STARTCHAR ij
ENCODING 307
SWIDTH 733 0
DWIDTH 15 0
BBX 16 18 1 -4
BITMAP
3E0F
0000
0000
0000
3C0E
3C0C
3C1C
781C
781C
781C
7818
7018
F038
F038
0030
0030
0460
07C0
ENDCHAR
STARTCHAR Jcircumflex
ENCODING 308
SWIDTH 502 0
DWIDTH 10 0
BBX 11 19 0 -3
BITMAP
0FE0
0000
01E0
01E0
01E0
01C0
03C0
03C0
03C0
03C0
0380
0380
0780
0780
0780
0700
0700
8E00
FC00
ENDCHAR
STARTCHAR jcircumflex
ENCODING 309
SWIDTH 407 0
DWIDTH 8 0
BBX 11 16 -1 -4
BITMAP
0FE0
0000
01C0
0180
0380
0380
0380
0380
0300
0300
0700
0700
0600
0600
8C00
F800
ENDCHAR
STARTCHAR Kcommaaccent
ENCODING 310
SWIDTH 753 0
DWIDTH 14 0
BBX 12 22 2 -8
BITMAP
1C30
3C20
3C40
3CC0
3D80
3900
7B00
7F00
7B80
79C0
71C0
F0E0
F0E0
F070
0000
0F00
0F00
0F00
0E00
0600
0E00
1C00
ENDCHAR
STARTCHAR kcommaaccent
ENCODING 311
SWIDTH 666 0
DWIDTH 13 0
BBX 11 22 2 -8
BITMAP
1C00
1C00
3C00
3C00
3C60
3840
3880
7900
7B00
7F00
7380
7380
F1C0
F1C0
0000
1E00
1E00
1E00
1C00
0C00
1C00
3800
ENDCHAR
STARTCHAR kgreenlandic
ENCODING 312
SWIDTH 666 0
DWIDTH 13 0
BBX 11 10 2 0
BITMAP
3C60
3840
3880
7900
7B00
7F00
7380
7380
F1C0
F1C0
ENDCHAR
STARTCHAR Lacute
ENCODING 313
SWIDTH 623 0
DWIDTH 12 0
BBX 10 16 2 0
BITMAP
7E00
0000
1C00
3C00
3C00
3C00
3800
3800
7800
7800
7800
7800
7000
F000
F000
FFC0
ENDCHAR
STARTCHAR lacute
ENCODING 314
SWIDTH 343 0
DWIDTH 7 0
BBX 7 16 1 0
BITMAP
7E
00
1E
1E
1C
3C
3C
3C
3C
78
78
78
78
70
F0
F0
ENDCHAR
STARTCHAR Lcommaaccent
ENCODING 315
SWIDTH 623 0
DWIDTH 12 0
BBX 10 22 2 -8
BITMAP
1C00
3C00
3C00
3C00
3800
3800
7800
7800
7800
7800
7000
F000
F000
FFC0
0000
3C00
3C00
3C00
3800
1800
3800
7000
ENDCHAR
STARTCHAR lcommaaccent
ENCODING 316
SWIDTH 343 0
DWIDTH 7 0
BBX 7 22 1 -8
BITMAP
1E
1E
1C
3C
3C
3C
3C
78
78
78
78
70
F0
F0
00
78
78
78
70
30
70
E0
ENDCHAR
STARTCHAR Lcaron
ENCODING 317
SWIDTH 857 0
DWIDTH 16 0
BBX 16 14 2 0
BITMAP
1C0F
3C0F
3C0F
3C06
3806
381C
7800
7800
7800
7800
7000
F000
F000
FFC0
ENDCHAR
STARTCHAR lcaron
ENCODING 318
SWIDTH 591 0
DWIDTH 12 0
BBX 13 14 1 0
BITMAP
1E78
1E78
1C78
3C30
3C30
3CE0
3C00
7800
7800
7800
7800
7000
F000
F000
ENDCHAR
STARTCHAR Ldot
ENCODING 319
SWIDTH 935 0
DWIDTH 24 0
BBX 18 14 2 0
BITMAP
1C0000
3C0000
3C0000
3C0000
380000
380000
780000
7801C0
780000
780000
700000
F00000
F00000
FFC000
ENDCHAR
STARTCHAR ldot
ENCODING 320
SWIDTH 669 0
DWIDTH 20 0
BBX 15 14 1 0
BITMAP
1E00
1E00
1C00
3C00
3C00
3C00
3C00
780E
7800
7800
7800
7000
F000
F000
ENDCHAR
STARTCHAR Lslash
ENCODING 321
SWIDTH 623 0
DWIDTH 12 0
BBX 12 14 0 0
BITMAP
0F00
0F00
0E00
1E00
1E80
1F80
1F80
3E00
7C00
FC00
FC00
BC00
3C00
7FF0
ENDCHAR
STARTCHAR lslash
ENCODING 322
SWIDTH 343 0
DWIDTH 7 0
BBX 9 14 0 0
BITMAP
0F00
0E00
0E00
1E80
1F80
1F80
1E00
FC00
FC00
BC00
3C00
3800
7800
7800
ENDCHAR
STARTCHAR Nacute
ENCODING 323
SWIDTH 789 0
DWIDTH 15 0
BBX 14 16 2 0
BITMAP
0FC0
0000
181C
3C1C
3C1C
3E18
3E38
3738
7738
73B8
73B0
71F0
61F0
E0F0
E0F0
E060
ENDCHAR
STARTCHAR nacute
ENCODING 324
SWIDTH 675 0
DWIDTH 13 0
BBX 12 12 1 0
BITMAP
0FC0
0000
3CE0
39F0
3BE0
7EE0
7CE0
78E0
78E0
70C0
F1C0
F1C0
ENDCHAR
STARTCHAR Ncommaaccent
ENCODING 325
SWIDTH 789 0
DWIDTH 15 0
BBX 14 22 2 -8
BITMAP
181C
3C1C
3C1C
3E18
3E38
3738
7738
73B8
73B0
71F0
61F0
E0F0
E0F0
E060
0000
0780
0780
0780
0700
0300
0700
0E00
ENDCHAR
STARTCHAR ncommaaccent
ENCODING 326
SWIDTH 675 0
DWIDTH 13 0
BBX 12 18 1 -8
BITMAP
3CE0
39F0
3BE0
7EE0
7CE0
78E0
78E0
70C0
F1C0
F1C0
0000
1E00
1E00
1E00
1C00
0C00
1C00
3800
ENDCHAR
STARTCHAR Ncaron
ENCODING 327
SWIDTH 789 0
DWIDTH 15 0
BBX 14 16 2 0
BITMAP
0FE0
0000
181C
3C1C
3C1C
3E18
3E38
3738
7738
73B8
73B0
71F0
61F0
E0F0
E0F0
E060
ENDCHAR
STARTCHAR ncaron
ENCODING 328
SWIDTH 675 0
DWIDTH 13 0
BBX 12 12 1 0
BITMAP
1FC0
0000
3CE0
39F0
3BE0
7EE0
7CE0
78E0
78E0
70C0
F1C0
F1C0
ENDCHAR
STARTCHAR napostrophe
ENCODING 329
SWIDTH 927 0
DWIDTH 18 0
BBX 16 14 2 0
BITMAP
7800
7800
7800
3000
33CE
E39F
03BE
07EE
07CE
078E
078E
070C
0F1C
0F1C
ENDCHAR
STARTCHAR Eng
ENCODING 330
SWIDTH 789 0
DWIDTH 15 0
BBX 14 18 2 -4
BITMAP
181C
3C1C
3C1C
3E18
3E38
3738
7738
73B8
73B0
71F0
61F0
E0F0
E0F0
E070
0060
0060
08C0
0F80
ENDCHAR
STARTCHAR eng
ENCODING 331
SWIDTH 675 0
DWIDTH 13 0
BBX 12 14 1 -4
BITMAP
3CE0
39F0
3BE0
7EE0
7CE0
78E0
78E0
7060
F0E0
F0E0
00C0
00C0
1180
1F00
ENDCHAR
STARTCHAR Omacron
ENCODING 332
SWIDTH 855 0
DWIDTH 16 0
BBX 13 16 3 0
BITMAP
0FE0
0000
07C0
0C70
1838
3038
7038
6038
E038
E038
E038
E070
E060
60E0
71C0
1F00
ENDCHAR
STARTCHAR omacron
ENCODING 333
SWIDTH 663 0
DWIDTH 13 0
BBX 10 12 2 0
BITMAP
3F80
0000
0F00
3380
71C0
61C0
E1C0
E180
E380
E300
E600
3C00
ENDCHAR
STARTCHAR Obreve
ENCODING 334
SWIDTH 855 0
DWIDTH 16 0
BBX 13 16 3 0
BITMAP
0FE0
0000
07C0
0C70
1838
3038
7038
6038
E038
E038
E038
E070
E060
60E0
71C0
1F00
ENDCHAR
STARTCHAR obreve
ENCODING 335
SWIDTH 663 0
DWIDTH 13 0
BBX 10 12 2 0
BITMAP
3F80
0000
0F00
3380
71C0
61C0
E1C0
E180
E380
E300
E600
3C00
ENDCHAR
STARTCHAR Ohungarumlaut
ENCODING 336
SWIDTH 855 0
DWIDTH 16 0
BBX 13 16 3 0
BITMAP
0FF0
0000
07C0
0C70
1838
3038
7038
6038
E038
E038
E038
E070
E060
60E0
71C0
1F00
ENDCHAR
STARTCHAR ohungarumlaut
ENCODING 337
SWIDTH 663 0
DWIDTH 13 0
BBX 10 12 2 0
BITMAP
7F80
0000
0F00
3380
71C0
61C0
E1C0
E180
E380
E300
E600
3C00
ENDCHAR
STARTCHAR OE
ENCODING 338
SWIDTH 1103 0
DWIDTH 21 0
BBX 21 14 2 0
BITMAP
03FFF8
0C7E00
187E00
303C00
707C00
607C00
E07FE0
E07C00
E07800
E07800
E0F800
60F800
71F800
1FFFE0
ENDCHAR
STARTCHAR oe
ENCODING 339
SWIDTH 1004 0
DWIDTH 19 0
BBX 18 10 1 0
BITMAP
0FFF80
13F9C0
31F0C0
61F180
E1F300
E1FE00
E1E040
E3E040
67F1C0
3F7E00
ENDCHAR
STARTCHAR Racute
ENCODING 340
SWIDTH 708 0
DWIDTH 13 0
BBX 12 16 2 0
BITMAP
0FC0
0000
1FE0
3870
3870
3870
3870
38E0
7FC0
7F80
7300
7380
7180
F1C0
F1C0
E0E0
ENDCHAR
STARTCHAR racute
ENCODING 341
SWIDTH 542 0
DWIDTH 10 0
BBX 10 12 2 0
BITMAP
3F00
0000
38C0
3980
7A80
7C00
7800
7000
7000
F000
F000
F000
ENDCHAR
STARTCHAR Rcommaaccent
ENCODING 342
SWIDTH 708 0
DWIDTH 13 0
BBX 12 22 2 -8
BITMAP
1FE0
3870
3870
3870
3870
38E0
7FC0
7F80
7300
7380
7180
F1C0
F1C0
E0E0
0000
1E00
1E00
1E00
1C00
0C00
1C00
3800
ENDCHAR
STARTCHAR rcommaaccent
ENCODING 343
SWIDTH 542 0
DWIDTH 10 0
BBX 10 18 2 -8
BITMAP
38C0
3980
7A80
7C00
7800
7000
7000
F000
F000
F000
0000
7800
7800
7800
7000
3000
7000
E000
ENDCHAR
STARTCHAR Rcaron
ENCODING 344
SWIDTH 708 0
DWIDTH 13 0
BBX 12 16 2 0
BITMAP
1FC0
0000
1FE0
3870
3870
3870
3870
38E0
7FC0
7F80
7300
7380
7180
F1C0
F1C0
E0E0
ENDCHAR
STARTCHAR rcaron
ENCODING 345
SWIDTH 542 0
DWIDTH 10 0
BBX 10 12 2 0
BITMAP
3F80
0000
38C0
3980
7A80
7C00
7800
7000
7000
F000
F000
F000
ENDCHAR
STARTCHAR Sacute
ENCODING 346
SWIDTH 639 0
DWIDTH 12 0
BBX 11 16 2 0
BITMAP
1F80
0000
07E0
1860
3000
3800
3C00
3F00
3F80
1FC0
0FC0
03C0
01C0
0180
C100
FE00
ENDCHAR
STARTCHAR sacute
ENCODING 347
SWIDTH 527 0
DWIDTH 10 0
BBX 10 12 1 0
BITMAP
1F80
0000
0FC0
1C40
3C00
3E00
3F00
1F80
0F80
0780
C700
FE00
ENDCHAR
STARTCHAR Scircumflex
ENCODING 348
SWIDTH 639 0
DWIDTH 12 0
BBX 11 16 2 0
BITMAP
3F80
0000
07E0
1860
3000
3800
3C00
3F00
3F80
1FC0
0FC0
03C0
01C0
0180
C100
FE00
ENDCHAR
STARTCHAR scircumflex
ENCODING 349
SWIDTH 527 0
DWIDTH 10 0
BBX 10 12 1 0
BITMAP
3F80
0000
0FC0
1C40
3C00
3E00
3F00
1F80
0F80
0780
C700
FE00
ENDCHAR
STARTCHAR Scedilla
ENCODING 350
SWIDTH 639 0
DWIDTH 12 0
BBX 11 18 2 -4
BITMAP
07E0
1860
3000
3800
3C00
3F00
3F80
1FC0
0FC0
03C0
01C0
0180
C100
FE00
0600
0C00
0200
1C00
ENDCHAR
STARTCHAR scedilla
ENCODING 351
SWIDTH 527 0
DWIDTH 10 0
BBX 10 14 1 -4
BITMAP
0FC0
1C40
3C00
3E00
3F00
1F80
0F80
0780
C700
FE00
0C00
1800
0400
3800
ENDCHAR
STARTCHAR Scaron
ENCODING 352
SWIDTH 639 0
DWIDTH 12 0
BBX 11 16 2 0
BITMAP
0FE0
0000
07E0
1860
3000
3800
3C00
3F00
3F80
1FC0
0FC0
03C0
01C0
0180
C100
FE00
ENDCHAR
STARTCHAR scaron
ENCODING 353
SWIDTH 527 0
DWIDTH 10 0
BBX 11 12 1 0
BITMAP
0FE0
0000
0FC0
1C40
3C00
3E00
3F00
1F80
0F80
0780
C700
FE00
ENDCHAR
STARTCHAR Tcommaaccent
ENCODING 354
SWIDTH 747 0
DWIDTH 14 0
BBX 14 18 3 -4
BITMAP
FFFC
0700
0700
0700
0F00
0F00
0F00
0E00
0E00
1E00
1E00
1E00
1E00
1C00
0600
0C00
0200
1C00
ENDCHAR
STARTCHAR tcommaaccent
ENCODING 355
SWIDTH 437 0
DWIDTH 8 0
BBX 7 17 2 -4
BITMAP
1C
38
38
FE
78
70
70
70
E0
E0
E0
FC
78
30
60
10
E0
ENDCHAR
STARTCHAR Tcaron
ENCODING 356
SWIDTH 747 0
DWIDTH 14 0
BBX 14 16 3 0
BITMAP
1FC0
0000
FFFC
0700
0700
0700
0F00
0F00
0F00
0E00
0E00
1E00
1E00
1E00
1E00
1C00
ENDCHAR
STARTCHAR tcaron
ENCODING 357
SWIDTH 680 0
DWIDTH 13 0
BBX 13 14 2 0
BITMAP
0078
1C78
3878
3830
FE30
78E0
7000
7000
7000
E000
E000
E000
FC00
7800
ENDCHAR
STARTCHAR Tbar
ENCODING 358
SWIDTH 747 0
DWIDTH 14 0
BBX 14 14 3 0
BITMAP
FFFC
0700
0700
0700
0F00
0F00
0FC0
0E00
0E00
1E00
1E00
1E00
1E00
1C00
ENDCHAR
STARTCHAR tbar
ENCODING 359
SWIDTH 437 0
DWIDTH 8 0
BBX 7 13 2 0
BITMAP
1C
38
38
FE
78
70
70
7E
E0
E0
E0
FC
78
ENDCHAR
STARTCHAR Utilde
ENCODING 360
SWIDTH 759 0
DWIDTH 14 0
BBX 13 16 3 0
BITMAP
1FC0
0000
3838
7838
7878
7070
7070
7070
F070
E070
E0E0
E0E0
E0E0
E0C0
7180
3F00
ENDCHAR
STARTCHAR utilde
ENCODING 361
SWIDTH 675 0
DWIDTH 13 0
BBX 12 12 2 0
BITMAP
1FC0
0000
38F0
38F0
30E0
71E0
71E0
73E0
75E0
7DC0
F9C0
73C0
ENDCHAR
STARTCHAR Umacron
ENCODING 362
SWIDTH 759 0
DWIDTH 14 0
BBX 13 16 3 0
BITMAP
1FC0
0000
3838
7838
7878
7070
7070
7070
F070
E070
E0E0
E0E0
E0E0
E0C0
7180
3F00
ENDCHAR
STARTCHAR umacron
ENCODING 363
SWIDTH 675 0
DWIDTH 13 0
BBX 12 12 2 0
BITMAP
1FC0
0000
38F0
38F0
30E0
71E0
71E0
73E0
75E0
7DC0
F9C0
73C0
ENDCHAR
STARTCHAR Ubreve
ENCODING 364
SWIDTH 759 0
DWIDTH 14 0
BBX 13 16 3 0
BITMAP
1FC0
0000
3838
7838
7878
7070
7070
7070
F070
E070
E0E0
E0E0
E0E0
E0C0
7180
3F00
ENDCHAR
STARTCHAR ubreve
ENCODING 365
SWIDTH 675 0
DWIDTH 13 0
BBX 12 12 2 0
BITMAP
1FC0
0000
38F0
38F0
30E0
71E0
71E0
73E0
75E0
7DC0
F9C0
73C0
ENDCHAR
STARTCHAR Uring
ENCODING 366
SWIDTH 759 0
DWIDTH 14 0
BBX 13 16 3 0
BITMAP
0700
0000
3838
7838
7878
7070
7070
7070
F070
E070
E0E0
E0E0
E0E0
E0C0
7180
3F00
ENDCHAR
STARTCHAR uring
ENCODING 367
SWIDTH 675 0
DWIDTH 13 0
BBX 12 12 2 0
BITMAP
0700
0000
38F0
38F0
30E0
71E0
71E0
73E0
75E0
7DC0
F9C0
73C0
ENDCHAR
STARTCHAR Uhungarumlaut
ENCODING 368
SWIDTH 759 0
DWIDTH 14 0
BBX 13 16 3 0
BITMAP
1FE0
0000
3838
7838
7878
7070
7070
7070
F070
E070
E0E0
E0E0
E0E0
E0C0
7180
3F00
ENDCHAR
STARTCHAR uhungarumlaut
ENCODING 369
SWIDTH 675 0
DWIDTH 13 0
BBX 12 12 2 0
BITMAP
1FE0
0000
38F0
38F0
30E0
71E0
71E0
73E0
75E0
7DC0
F9C0
73C0
ENDCHAR
STARTCHAR Uogonek
ENCODING 370
SWIDTH 759 0
DWIDTH 14 0
BBX 13 17 3 -3
BITMAP
3838
7838
7878
7070
7070
7070
F070
E070
E0E0
E0E0
E0E0
E0C0
7180
3F00
0000
0000
1E00
ENDCHAR
STARTCHAR uogonek
ENCODING 371
SWIDTH 675 0
DWIDTH 13 0
BBX 12 13 2 -3
BITMAP
38F0
38F0
30E0
71E0
71E0
73E0
75E0
7DC0
F9C0
73C0
0000
0000
1E00
ENDCHAR
STARTCHAR Wcircumflex
ENCODING 372
SWIDTH 991 0
DWIDTH 19 0
BBX 16 16 4 0
BITMAP
0FE0
0000
C181
C382
C382
C384
C584
E588
ED98
E990
E9B0
F9A0
F1E0
71E0
61C0
61C0
ENDCHAR
STARTCHAR wcircumflex
ENCODING 373
SWIDTH 878 0
DWIDTH 17 0
BBX 15 12 3 0
BITMAP
0FE0
0000
C1C2
C1C4
C2C4
C2CC
C4C8
C4D8
E8D0
F0F0
F0E0
E0E0
ENDCHAR
STARTCHAR Ycircumflex
ENCODING 374
SWIDTH 681 0
DWIDTH 13 0
BBX 10 16 2 0
BITMAP
7F00
0000
C040
E080
E100
6300
7200
7400
3C00
3800
3800
7800
7800
7800
7000
F000
ENDCHAR
STARTCHAR ycircumflex
ENCODING 375
SWIDTH 633 0
DWIDTH 12 0
BBX 11 16 0 -4
BITMAP
7F00
0000
7020
7040
78C0
7880
7900
3B00
3A00
3C00
3C00
3800
3000
3000
6000
C000
ENDCHAR
STARTCHAR Ydieresis
ENCODING 376
SWIDTH 681 0
DWIDTH 13 0
BBX 10 16 2 0
BITMAP
3B80
0000
C040
E080
E100
6300
7200
7400
3C00
3800
3800
7800
7800
7800
7000
F000
ENDCHAR
STARTCHAR Zacute
ENCODING 377
SWIDTH 687 0
DWIDTH 13 0
BBX 13 16 1 0
BITMAP
07E0
0000
1FF8
0070
00F0
00E0
01C0
0380
0700
0700
0E00
1C00
3800
3800
7000
FFE0
ENDCHAR
STARTCHAR zacute
ENCODING 378
SWIDTH 630 0
DWIDTH 12 0
BBX 12 12 1 0
BITMAP
0FC0
0000
3FF0
00E0
01C0
0380
0700
0E00
1C00
3800
7000
FFE0
ENDCHAR
STARTCHAR Zdotaccent
ENCODING 379
SWIDTH 687 0
DWIDTH 13 0
BBX 13 16 1 0
BITMAP
01C0
0000
1FF8
0070
00F0
00E0
01C0
0380
0700
0700
0E00
1C00
3800
3800
7000
FFE0
ENDCHAR
STARTCHAR zdotaccent
ENCODING 380
SWIDTH 630 0
DWIDTH 12 0
BBX 12 12 1 0
BITMAP
0380
0000
3FF0
00E0
01C0
0380
0700
0E00
1C00
3800
7000
FFE0
ENDCHAR
STARTCHAR Zcaron
ENCODING 381
SWIDTH 687 0
DWIDTH 13 0
BBX 13 16 1 0
BITMAP
07F0
0000
1FF8
0070
00F0
00E0
01C0
0380
0700
0700
0E00
1C00
3800
3800
7000
FFE0
ENDCHAR
STARTCHAR zcaron
ENCODING 382
SWIDTH 630 0
DWIDTH 12 0
BBX 12 12 1 0
BITMAP
07F0
0000
3FF0
00E0
01C0
0380
0700
0E00
1C00
3800
7000
FFE0
ENDCHAR
STARTCHAR uni0186
ENCODING 390
SWIDTH 737 0
DWIDTH 14 0
BBX 14 14 2 0
BITMAP
3FE0
3078
0038
001C
001C
001C
001C
001C
0018
0038
0070
0060
C1C0
FF00
ENDCHAR
STARTCHAR uni0189
ENCODING 393
SWIDTH 822 0
DWIDTH 16 0
BBX 16 14 1 0
BITMAP
1FFC
1F0E
1F07
1F07
1E07
3E07
FFC7
3C07
3C0E
780E
781C
7838
7870
7FC0
ENDCHAR
STARTCHAR uni018E
ENCODING 398
SWIDTH 642 0
DWIDTH 12 0
BBX 12 14 2 0
BITMAP
3FF0
00F0
00F0
00E0
01E0
01E0
01E0
3FE0
01C0
01C0
03C0
03C0
03C0
FF80
ENDCHAR
STARTCHAR florin
ENCODING 402
SWIDTH 687 0
DWIDTH 13 0
BBX 11 17 4 -3
BITMAP
03E0
0E20
1C00
1C00
3C00
FF00
3800
3800
7800
7800
7800
7800
7000
7000
F000
F000
F000
ENDCHAR
STARTCHAR uni0197
ENCODING 407
SWIDTH 361 0
DWIDTH 7 0
BBX 6 14 2 0
BITMAP
3C
3C
3C
38
38
38
FC
78
70
70
70
F0
F0
F0
ENDCHAR
STARTCHAR uni019A
ENCODING 410
SWIDTH 343 0
DWIDTH 7 0
BBX 7 14 1 0
BITMAP
1E
1E
1C
3C
3C
3C
7E
78
78
78
78
70
F0
F0
ENDCHAR
STARTCHAR uni019D
ENCODING 413
SWIDTH 789 0
DWIDTH 15 0
BBX 19 18 -3 -4
BITMAP
00C0E0
01E0E0
01E0E0
01F0C0
01F1C0
01B9C0
03B9C0
039DC0
039D80
038F80
030F80
030780
070780
070300
060000
060000
8C0000
F80000
ENDCHAR
STARTCHAR uni019F
ENCODING 415
SWIDTH 855 0
DWIDTH 16 0
BBX 13 14 3 0
BITMAP
07C0
0C70
1838
3038
7038
6038
FFF8
E038
E038
E070
E060
60E0
71C0
1F00
ENDCHAR
STARTCHAR Ohorn
ENCODING 416
SWIDTH 855 0
DWIDTH 16 0
BBX 17 14 3 0
BITMAP
07C780
0C7780
183F80
303B00
703B00
603E00
E03800
E03800
E03800
E07000
E06000
60E000
71C000
1F0000
ENDCHAR
STARTCHAR ohorn
ENCODING 417
SWIDTH 663 0
DWIDTH 13 0
BBX 14 10 2 0
BITMAP
0F3C
33BC
71FC
61D8
E1D8
E1F0
E380
E300
E600
3C00
ENDCHAR
STARTCHAR Uhorn
ENCODING 431
SWIDTH 759 0
DWIDTH 14 0
BBX 17 14 3 0
BITMAP
383F80
783F80
787F80
707300
707300
707E00
F07000
E07000
E0E000
E0E000
E0E000
E0C000
718000
3F0000
ENDCHAR
STARTCHAR uhorn
ENCODING 432
SWIDTH 675 0
DWIDTH 13 0
BBX 16 10 2 0
BITMAP
38FF
38FF
30EF
71E6
71E6
73FC
75E0
7DC0
F9C0
73C0
ENDCHAR
STARTCHAR uni01B5
ENCODING 437
SWIDTH 687 0
DWIDTH 13 0
BBX 13 14 1 0
BITMAP
1FF8
0070
00F0
00E0
01C0
0380
0FC0
0700
0E00
1C00
3800
3800
7000
FFE0
ENDCHAR
STARTCHAR uni01B6
ENCODING 438
SWIDTH 630 0
DWIDTH 12 0
BBX 12 10 1 0
BITMAP
3FF0
00E0
01C0
0380
1F80
0E00
1C00
3800
7000
FFE0
ENDCHAR
STARTCHAR uni01BB
ENCODING 443
SWIDTH 687 0
DWIDTH 13 0
BBX 12 14 2 0
BITMAP
1FC0
3060
0070
0070
0070
0060
FFF0
0300
0600
0C00
1800
7800
F000
FFC0
ENDCHAR
STARTCHAR uni01BC
ENCODING 444
SWIDTH 687 0
DWIDTH 13 0
BBX 12 14 2 0
BITMAP
1FF0
1000
3000
3000
3E00
0780
01C0
01C0
00C0
00E0
01C0
01C0
C380
FE00
ENDCHAR
STARTCHAR uni01C0
ENCODING 448
SWIDTH 259 0
DWIDTH 5 0
BBX 6 17 1 -3
BITMAP
04
04
08
08
08
10
10
10
30
20
20
20
40
40
40
80
80
ENDCHAR
STARTCHAR uni01C2
ENCODING 450
SWIDTH 687 0
DWIDTH 13 0
BBX 12 17 2 -3
BITMAP
0080
0080
0100
0100
0100
7FF0
0200
0200
0600
0400
0400
FFE0
0800
0800
0800
1000
1000
ENDCHAR
STARTCHAR uni01C3
ENCODING 451
SWIDTH 343 0
DWIDTH 7 0
BBX 6 14 2 0
BITMAP
3C
3C
3C
38
38
38
30
30
70
70
00
00
00
F0
ENDCHAR
STARTCHAR uni01CD
ENCODING 461
SWIDTH 771 0
DWIDTH 15 0
BBX 13 16 -1 0
BITMAP
0FE0
0000
01C0
01E0
03E0
07E0
05E0
0CE0
08F0
18F0
10F0
30F0
3FF0
6078
4078
8078
ENDCHAR
STARTCHAR uni01CE
ENCODING 462
SWIDTH 681 0
DWIDTH 13 0
BBX 12 12 2 0
BITMAP
0FE0
0000
07F0
18F0
30E0
71E0
61E0
E3E0
EDE0
FDC0
F9C0
73C0
ENDCHAR
STARTCHAR uni01CF
ENCODING 463
SWIDTH 361 0
DWIDTH 7 0
BBX 7 16 2 0
BITMAP
FE
00
3C
3C
3C
38
38
38
78
78
70
70
70
F0
F0
F0
ENDCHAR
STARTCHAR uni01D0
ENCODING 464
SWIDTH 343 0
DWIDTH 7 0
BBX 7 12 1 0
BITMAP
FE
00
3C
3C
38
78
78
78
78
70
F0
F0
ENDCHAR
STARTCHAR uni01D1
ENCODING 465
SWIDTH 855 0
DWIDTH 16 0
BBX 13 16 3 0
BITMAP
0FE0
0000
07C0
0C70
1838
3038
7038
6038
E038
E038
E038
E070
E060
60E0
71C0
1F00
ENDCHAR
STARTCHAR uni01D2
ENCODING 466
SWIDTH 663 0
DWIDTH 13 0
BBX 10 12 2 0
BITMAP
3F80
0000
0F00
3380
71C0
61C0
E1C0
E180
E380
E300
E600
3C00
ENDCHAR
STARTCHAR uni01D3
ENCODING 467
SWIDTH 759 0
DWIDTH 14 0
BBX 13 16 3 0
BITMAP
1FC0
0000
3838
7838
7878
7070
7070
7070
F070
E070
E0E0
E0E0
E0E0
E0C0
7180
3F00
ENDCHAR
STARTCHAR uni01D4
ENCODING 468
SWIDTH 675 0
DWIDTH 13 0
BBX 12 12 2 0
BITMAP
1FC0
0000
38F0
38F0
30E0
71E0
71E0
73E0
75E0
7DC0
F9C0
73C0
ENDCHAR
STARTCHAR uni01D5
ENCODING 469
SWIDTH 759 0
DWIDTH 14 0
BBX 13 18 3 0
BITMAP
1FC0
0000
0EE0
0000
3838
7838
7878
7070
7070
7070
F070
E070
E0E0
E0E0
E0E0
E0C0
7180
3F00
ENDCHAR
STARTCHAR uni01D6
ENCODING 470
SWIDTH 675 0
DWIDTH 13 0
BBX 12 14 2 0
BITMAP
1FC0
0000
0EE0
0000
38F0
38F0
30E0
71E0
71E0
73E0
75E0
7DC0
F9C0
73C0
ENDCHAR
STARTCHAR uni01D7
ENCODING 471
SWIDTH 759 0
DWIDTH 14 0
BBX 13 18 3 0
BITMAP
0FC0
0000
0EE0
0000
3838
7838
7878
7070
7070
7070
F070
E070
E0E0
E0E0
E0E0
E0C0
7180
3F00
ENDCHAR
STARTCHAR uni01D8
ENCODING 472
SWIDTH 675 0
DWIDTH 13 0
BBX 12 14 2 0
BITMAP
0FC0
0000
0EE0
0000
38F0
38F0
30E0
71E0
71E0
73E0
75E0
7DC0
F9C0
73C0
ENDCHAR
STARTCHAR uni01D9
ENCODING 473
SWIDTH 759 0
DWIDTH 14 0
BBX 13 18 3 0
BITMAP
1FC0
0000
0EE0
0000
3838
7838
7878
7070
7070
7070
F070
E070
E0E0
E0E0
E0E0
E0C0
7180
3F00
ENDCHAR
STARTCHAR uni01DA
ENCODING 474
SWIDTH 675 0
DWIDTH 13 0
BBX 12 14 2 0
BITMAP
1FC0
0000
0EE0
0000
38F0
38F0
30E0
71E0
71E0
73E0
75E0
7DC0
F9C0
73C0
ENDCHAR
STARTCHAR uni01DB
ENCODING 475
SWIDTH 759 0
DWIDTH 14 0
BBX 13 18 3 0
BITMAP
0780
0000
0EE0
0000
3838
7838
7878
7070
7070
7070
F070
E070
E0E0
E0E0
E0E0
E0C0
7180
3F00
ENDCHAR
STARTCHAR uni01DC
ENCODING 476
SWIDTH 675 0
DWIDTH 13 0
BBX 12 14 2 0
BITMAP
0780
0000
0EE0
0000
38F0
38F0
30E0
71E0
71E0
73E0
75E0
7DC0
F9C0
73C0
ENDCHAR
STARTCHAR uni01DD
ENCODING 477
SWIDTH 612 0
DWIDTH 12 0
BBX 10 10 2 0
BITMAP
3F00
C380
83C0
1FC0
33C0
63C0
E380
C700
EE00
7800
ENDCHAR
STARTCHAR uni01DE
ENCODING 478
SWIDTH 771 0
DWIDTH 15 0
BBX 13 18 -1 0
BITMAP
07F0
0000
03B8
0000
01C0
01E0
03E0
07E0
05E0
0CE0
08F0
18F0
10F0
30F0
3FF0
6078
4078
8078
ENDCHAR
STARTCHAR uni01DF
ENCODING 479
SWIDTH 681 0
DWIDTH 13 0
BBX 12 14 2 0
BITMAP
0FE0
0000
0EE0
0000
07F0
18F0
30E0
71E0
61E0
E3E0
EDE0
FDC0
F9C0
73C0
ENDCHAR
STARTCHAR uni01E0
ENCODING 480
SWIDTH 771 0
DWIDTH 15 0
BBX 13 18 -1 0
BITMAP
0FE0
0000
0380
0000
01C0
01E0
03E0
07E0
05E0
0CE0
08F0
18F0
10F0
30F0
3FF0
6078
4078
8078
ENDCHAR
STARTCHAR uni01E1
ENCODING 481
SWIDTH 681 0
DWIDTH 13 0
BBX 12 14 2 0
BITMAP
0FE0
0000
0380
0000
07F0
18F0
30E0
71E0
61E0
E3E0
EDE0
FDC0
F9C0
73C0
ENDCHAR
STARTCHAR uni01E2
ENCODING 482
SWIDTH 1004 0
DWIDTH 19 0
BBX 19 16 -1 0
BITMAP
00FE00
000000
003FE0
007800
00F800
01F800
017800
027000
04FF80
0CF000
0FF000
10F000
30F000
61E000
61E000
C1FF80
ENDCHAR
STARTCHAR uni01E3
ENCODING 483
SWIDTH 987 0
DWIDTH 19 0
BBX 17 12 2 0
BITMAP
03F800
000000
07FF00
18FB80
30F180
71E300
61E700
E3FC00
E5E080
FDE080
F8E380
70FE00
ENDCHAR
STARTCHAR uni01E4
ENCODING 484
SWIDTH 755 0
DWIDTH 14 0
BBX 15 14 2 0
BITMAP
03FC
0E0C
1800
3800
7000
6000
E000
E000
E000
E078
E0FE
70F0
79F0
1FE0
ENDCHAR
STARTCHAR uni01E5
ENCODING 485
SWIDTH 674 0
DWIDTH 13 0
BBX 12 14 1 -4
BITMAP
07F0
08E0
18E0
30E0
71E0
63E0
64C0
7CC0
78C0
71C0
FFF0
0180
C300
FE00
ENDCHAR
STARTCHAR Gcaron
ENCODING 486
SWIDTH 755 0
DWIDTH 14 0
BBX 14 16 2 0
BITMAP
0FE0
0000
03FC
0E0C
1800
3800
7000
6000
E000
E000
E000
E078
E0F0
70F0
79F0
1FE0
ENDCHAR
STARTCHAR gcaron
ENCODING 487
SWIDTH 674 0
DWIDTH 13 0
BBX 12 16 1 -4
BITMAP
0FE0
0000
07F0
08E0
18E0
30E0
71E0
63E0
64C0
7CC0
78C0
71C0
01C0
0180
C300
FE00
ENDCHAR
STARTCHAR uni01E8
ENCODING 488
SWIDTH 753 0
DWIDTH 14 0
BBX 12 16 2 0
BITMAP
3F80
0000
1C30
3C20
3C40
3CC0
3D80
3900
7B00
7F00
7B80
79C0
71C0
F0E0
F0E0
F070
ENDCHAR
STARTCHAR uni01E9
ENCODING 489
SWIDTH 666 0
DWIDTH 13 0
BBX 11 16 2 0
BITMAP
7F00
0000
1C00
1C00
3C00
3C00
3C60
3840
3880
7900
7B00
7F00
7380
7380
F1C0
F1C0
ENDCHAR
STARTCHAR uni01EA
ENCODING 490
SWIDTH 855 0
DWIDTH 16 0
BBX 13 17 3 -3
BITMAP
07C0
0C70
1838
3038
7038
6038
E038
E038
E038
E070
E060
60E0
71C0
1F00
0000
0000
0F00
ENDCHAR
STARTCHAR uni01EB
ENCODING 491
SWIDTH 663 0
DWIDTH 13 0
BBX 10 13 2 -3
BITMAP
0F00
3380
71C0
61C0
E1C0
E180
E380
E300
E600
3C00
0000
0000
3C00
ENDCHAR
STARTCHAR uni01EC
ENCODING 492
SWIDTH 855 0
DWIDTH 16 0
BBX 13 19 3 -3
BITMAP
0FE0
0000
07C0
0C70
1838
3038
7038
6038
E038
E038
E038
E070
E060
60E0
71C0
1F00
0000
0000
0F00
ENDCHAR
STARTCHAR uni01ED
ENCODING 493
SWIDTH 663 0
DWIDTH 13 0
BBX 10 15 2 -3
BITMAP
3F80
0000
0F00
3380
71C0
61C0
E1C0
E180
E380
E300
E600
3C00
0000
0000
3C00
ENDCHAR
STARTCHAR uni01F0
ENCODING 496
SWIDTH 407 0
DWIDTH 8 0
BBX 11 16 -1 -4
BITMAP
0FE0
0000
01C0
0180
0380
0380
0380
0380
0300
0300
0700
0700
0600
0600
8C00
F800
ENDCHAR
STARTCHAR uni01F4
ENCODING 500
SWIDTH 755 0
DWIDTH 14 0
BBX 14 16 2 0
BITMAP
07E0
0000
03FC
0E0C
1800
3800
7000
6000
E000
E000
E000
E078
E0F0
70F0
79F0
1FE0
ENDCHAR
STARTCHAR uni01F5
ENCODING 501
SWIDTH 674 0
DWIDTH 13 0
BBX 12 16 1 -4
BITMAP
0FC0
0000
07F0
08E0
18E0
30E0
71E0
63E0
64C0
7CC0
78C0
71C0
01C0
0180
C300
FE00
ENDCHAR
STARTCHAR uni01F8
ENCODING 504
SWIDTH 789 0
DWIDTH 15 0
BBX 14 16 2 0
BITMAP
0780
0000
181C
3C1C
3C1C
3E18
3E38
3738
7738
73B8
73B0
71F0
61F0
E0F0
E0F0
E060
ENDCHAR
STARTCHAR uni01F9
ENCODING 505
SWIDTH 675 0
DWIDTH 13 0
BBX 12 12 1 0
BITMAP
0780
0000
3CE0
39F0
3BE0
7EE0
7CE0
78E0
78E0
70C0
F1C0
F1C0
ENDCHAR
STARTCHAR Aringacute
ENCODING 506
SWIDTH 771 0
DWIDTH 15 0
BBX 13 18 -1 0
BITMAP
07E0
0000
00E0
0000
01C0
01E0
03E0
07E0
05E0
0CE0
08F0
18F0
10F0
30F0
3FF0
6078
4078
8078
ENDCHAR
STARTCHAR aringacute
ENCODING 507
SWIDTH 681 0
DWIDTH 13 0
BBX 12 14 2 0
BITMAP
07E0
0000
01C0
0000
07F0
18F0
30E0
71E0
61E0
E3E0
EDE0
FDC0
F9C0
73C0
ENDCHAR
STARTCHAR AEacute
ENCODING 508
SWIDTH 1004 0
DWIDTH 19 0
BBX 19 16 -1 0
BITMAP
00FC00
000000
003FE0
007800
00F800
01F800
017800
027000
04FF80
0CF000
0FF000
10F000
30F000
61E000
61E000
C1FF80
ENDCHAR
STARTCHAR aeacute
ENCODING 509
SWIDTH 987 0
DWIDTH 19 0
BBX 17 12 2 0
BITMAP
01F800
000000
07FF00
18FB80
30F180
71E300
61E700
E3FC00
E5E080
FDE080
F8E380
70FE00
ENDCHAR
STARTCHAR Oslashacute
ENCODING 510
SWIDTH 855 0
DWIDTH 16 0
BBX 16 16 4 0
BITMAP
03F0
0000
03E3
063E
0C1C
181C
383C
307C
709C
711C
761C
7C38
7830
3070
78E0
CF80
ENDCHAR
STARTCHAR oslashacute
ENCODING 511
SWIDTH 663 0
DWIDTH 13 0
BBX 11 12 2 0
BITMAP
1F80
0000
0F60
33C0
71C0
63C0
E7C0
ED80
FB80
F300
E600
FC00
ENDCHAR
STARTCHAR Scommaaccent
ENCODING 536
SWIDTH 639 0
DWIDTH 12 0
BBX 11 22 2 -8
BITMAP
07E0
1860
3000
3800
3C00
3F00
3F80
1FC0
0FC0
03C0
01C0
0180
C100
FE00
0000
1E00
1E00
1E00
1C00
0C00
1C00
3800
ENDCHAR
STARTCHAR scommaaccent
ENCODING 537
SWIDTH 527 0
DWIDTH 10 0
BBX 10 18 1 -8
BITMAP
0FC0
1C40
3C00
3E00
3F00
1F80
0F80
0780
C700
FE00
0000
1E00
1E00
1E00
1C00
0C00
1C00
3800
ENDCHAR
STARTCHAR Tcommaaccent
ENCODING 538
SWIDTH 747 0
DWIDTH 14 0
BBX 14 22 3 -8
BITMAP
FFFC
0700
0700
0700
0F00
0F00
0F00
0E00
0E00
1E00
1E00
1E00
1E00
1C00
0000
0F00
0F00
0F00
0E00
0600
0E00
1C00
ENDCHAR
STARTCHAR tcommaaccent
ENCODING 539
SWIDTH 437 0
DWIDTH 8 0
BBX 7 21 2 -8
BITMAP
1C
38
38
FE
78
70
70
70
E0
E0
E0
FC
78
00
78
78
78
70
30
70
E0
ENDCHAR
STARTCHAR uni021E
ENCODING 542
SWIDTH 813 0
DWIDTH 15 0
BBX 15 16 2 0
BITMAP
07F0
0000
1C1E
3C1E
3C1E
3C1C
3C1C
383C
7FFC
783C
7838
7078
7078
F078
F078
F070
ENDCHAR
STARTCHAR uni021F
ENCODING 543
SWIDTH 675 0
DWIDTH 13 0
BBX 12 16 1 0
BITMAP
7F00
0000
1E00
1C00
3C00
3C00
3CE0
3DF0
3BF0
7AE0
7CE0
78E0
78E0
70C0
F1C0
F1C0
ENDCHAR
STARTCHAR uni0226
ENCODING 550
SWIDTH 771 0
DWIDTH 15 0
BBX 13 16 -1 0
BITMAP
0380
0000
01C0
01E0
03E0
07E0
05E0
0CE0
08F0
18F0
10F0
30F0
3FF0
6078
4078
8078
ENDCHAR
STARTCHAR uni0227
ENCODING 551
SWIDTH 681 0
DWIDTH 13 0
BBX 12 12 2 0
BITMAP
0380
0000
07F0
18F0
30E0
71E0
61E0
E3E0
EDE0
FDC0
F9C0
73C0
ENDCHAR
STARTCHAR uni0228
ENCODING 552
SWIDTH 642 0
DWIDTH 12 0
BBX 12 18 2 -4
BITMAP
1FF0
3C00
3C00
3C00
3800
3800
7FC0
7800
7800
7800
7000
F000
F000
FFC0
0C00
1800
0400
3800
ENDCHAR
STARTCHAR uni0229
ENCODING 553
SWIDTH 612 0
DWIDTH 12 0
BBX 10 14 2 -4
BITMAP
0780
1DC0
38C0
71C0
F180
F300
FE00
F040
70C0
3F00
0C00
1800
0400
3800
ENDCHAR
STARTCHAR uni022A
ENCODING 554
SWIDTH 855 0
DWIDTH 16 0
BBX 13 18 3 0
BITMAP
0FE0
0000
0770
0000
07C0
0C70
1838
3038
7038
6038
E038
E038
E038
E070
E060
60E0
71C0
1F00
ENDCHAR
STARTCHAR uni022B
ENCODING 555
SWIDTH 663 0
DWIDTH 13 0
BBX 10 14 2 0
BITMAP
3F80
0000
1DC0
0000
0F00
3380
71C0
61C0
E1C0
E180
E380
E300
E600
3C00
ENDCHAR
STARTCHAR uni022C
ENCODING 556
SWIDTH 855 0
DWIDTH 16 0
BBX 13 18 3 0
BITMAP
0FE0
0000
07F0
0000
07C0
0C70
1838
3038
7038
6038
E038
E038
E038
E070
E060
60E0
71C0
1F00
ENDCHAR
STARTCHAR uni022D
ENCODING 557
SWIDTH 663 0
DWIDTH 13 0
BBX 10 14 2 0
BITMAP
3F80
0000
1FC0
0000
0F00
3380
71C0
61C0
E1C0
E180
E380
E300
E600
3C00
ENDCHAR
STARTCHAR uni022E
ENCODING 558
SWIDTH 855 0
DWIDTH 16 0
BBX 13 16 3 0
BITMAP
0380
0000
07C0
0C70
1838
3038
7038
6038
E038
E038
E038
E070
E060
60E0
71C0
1F00
ENDCHAR
STARTCHAR uni022F
ENCODING 559
SWIDTH 663 0
DWIDTH 13 0
BBX 10 12 2 0
BITMAP
0E00
0000
0F00
3380
71C0
61C0
E1C0
E180
E380
E300
E600
3C00
ENDCHAR
STARTCHAR uni0230
ENCODING 560
SWIDTH 855 0
DWIDTH 16 0
BBX 13 18 3 0
BITMAP
0FE0
0000
0380
0000
07C0
0C70
1838
3038
7038
6038
E038
E038
E038
E070
E060
60E0
71C0
1F00
ENDCHAR
STARTCHAR uni0231
ENCODING 561
SWIDTH 663 0
DWIDTH 13 0
BBX 10 14 2 0
BITMAP
3F80
0000
0E00
0000
0F00
3380
71C0
61C0
E1C0
E180
E380
E300
E600
3C00
ENDCHAR
STARTCHAR uni0232
ENCODING 562
SWIDTH 681 0
DWIDTH 13 0
BBX 10 16 2 0
BITMAP
7F00
0000
C040
E080
E100
6300
7200
7400
3C00
3800
3800
7800
7800
7800
7000
F000
ENDCHAR
STARTCHAR uni0233
ENCODING 563
SWIDTH 633 0
DWIDTH 12 0
BBX 11 16 0 -4
BITMAP
7F00
0000
7020
7040
78C0
7880
7900
3B00
3A00
3C00
3C00
3800
3000
3000
6000
C000
ENDCHAR
STARTCHAR uni0250
ENCODING 592
SWIDTH 681 0
DWIDTH 13 0
BBX 12 10 2 0
BITMAP
3CE0
39F0
3BF0
7B70
7C70
7860
78E0
70C0
F180
FE00
ENDCHAR
STARTCHAR uni0259
ENCODING 601
SWIDTH 612 0
DWIDTH 12 0
BBX 10 10 2 0
BITMAP
3F00
C380
83C0
1FC0
33C0
63C0
E380
C700
EE00
7800
ENDCHAR
STARTCHAR uni025F
ENCODING 607
SWIDTH 464 0
DWIDTH 9 0
BBX 11 18 1 -8
BITMAP
01E0
01E0
01E0
01C0
01C0
03C0
03C0
03C0
0380
0380
0380
0780
0780
3FC0
0700
0F00
8E00
F800
ENDCHAR
STARTCHAR uni0265
ENCODING 613
SWIDTH 675 0
DWIDTH 13 0
BBX 12 14 1 -4
BITMAP
38F0
38F0
30E0
71E0
71E0
73E0
75E0
FDC0
FBC0
73C0
03C0
03C0
0380
0780
ENDCHAR
STARTCHAR uni0275
ENCODING 629
SWIDTH 663 0
DWIDTH 13 0
BBX 10 10 2 0
BITMAP
0F00
3380
71C0
61C0
FFC0
E180
E380
E300
E600
3C00
ENDCHAR
STARTCHAR uni0279
ENCODING 633
SWIDTH 542 0
DWIDTH 10 0
BBX 10 10 2 0
BITMAP
03C0
03C0
03C0
0380
0380
0780
0F80
5780
6700
C700
ENDCHAR
STARTCHAR uni0287
ENCODING 647
SWIDTH 437 0
DWIDTH 8 0
BBX 7 13 2 0
BITMAP
3C
7E
0E
0E
0E
1C
1C
1C
3C
FE
38
38
70
ENDCHAR
STARTCHAR uni0289
ENCODING 649
SWIDTH 675 0
DWIDTH 13 0
BBX 12 10 2 0
BITMAP
38F0
38F0
30E0
71E0
FFF0
73E0
75E0
7DC0
F9C0
73C0
ENDCHAR
STARTCHAR uni028C
ENCODING 652
SWIDTH 630 0
DWIDTH 12 0
BBX 11 10 2 0
BITMAP
0380
0780
0FC0
0BC0
13C0
13C0
23C0
41E0
41E0
81E0
ENDCHAR
STARTCHAR uni028D
ENCODING 653
SWIDTH 878 0
DWIDTH 17 0
BBX 15 10 3 0
BITMAP
0E0E
0E1E
1E1E
162E
3646
2646
6686
4686
4706
8706
ENDCHAR
STARTCHAR uni028E
ENCODING 654
SWIDTH 633 0
DWIDTH 12 0
BBX 11 14 0 0
BITMAP
0060
00C0
0180
0180
0380
0780
0780
0B80
1B80
13C0
23C0
63C0
41C0
81C0
ENDCHAR
STARTCHAR uni029E
ENCODING 670
SWIDTH 666 0
DWIDTH 13 0
BBX 11 14 2 -4
BITMAP
71E0
71E0
39C0
39C0
1FC0
1BC0
13C0
2380
4380
C780
0780
0780
0700
0700
ENDCHAR
STARTCHAR uni02BB
ENCODING 699
SWIDTH 265 0
DWIDTH 5 0
BBX 5 6 2 8
BITMAP
38
60
70
F0
F0
F0
ENDCHAR
STARTCHAR afii57929
ENCODING 700
SWIDTH 265 0
DWIDTH 5 0
BBX 5 6 2 8
BITMAP
78
78
78
30
30
E0
ENDCHAR
STARTCHAR afii64937
ENCODING 701
SWIDTH 265 0
DWIDTH 5 0
BBX 5 6 2 8
BITMAP
F0
F0
F0
60
60
38
ENDCHAR
STARTCHAR circumflex
ENCODING 710
SWIDTH 663 0
DWIDTH 13 0
BBX 7 1 5 13
BITMAP
FE
ENDCHAR
STARTCHAR caron
ENCODING 711
SWIDTH 663 0
DWIDTH 13 0
BBX 7 1 6 13
BITMAP
FE
ENDCHAR
STARTCHAR uni02C8
ENCODING 712
SWIDTH 265 0
DWIDTH 5 0
BBX 4 6 3 8
BITMAP
F0
E0
E0
60
40
40
ENDCHAR
STARTCHAR macron
ENCODING 713
SWIDTH 663 0
DWIDTH 13 0
BBX 7 1 6 13
BITMAP
FE
ENDCHAR
STARTCHAR uni02CA
ENCODING 714
SWIDTH 663 0
DWIDTH 13 0
BBX 6 1 7 13
BITMAP
FC
ENDCHAR
STARTCHAR uni02CB
ENCODING 715
SWIDTH 663 0
DWIDTH 13 0
BBX 4 1 7 13
BITMAP
F0
ENDCHAR
STARTCHAR uni02CD
ENCODING 717
SWIDTH 663 0
DWIDTH 13 0
BBX 7 1 6 -2
BITMAP
FE
ENDCHAR
STARTCHAR uni02CE
ENCODING 718
SWIDTH 663 0
DWIDTH 13 0
BBX 4 1 7 -2
BITMAP
F0
ENDCHAR
STARTCHAR uni02CF
ENCODING 719
SWIDTH 663 0
DWIDTH 13 0
BBX 6 1 7 -2
BITMAP
FC
ENDCHAR
STARTCHAR breve
ENCODING 728
SWIDTH 663 0
DWIDTH 13 0
BBX 7 1 6 13
BITMAP
FE
ENDCHAR
STARTCHAR dotaccent
ENCODING 729
SWIDTH 663 0
DWIDTH 13 0
BBX 3 1 8 13
BITMAP
E0
ENDCHAR
STARTCHAR ring
ENCODING 730
SWIDTH 663 0
DWIDTH 13 0
BBX 3 1 8 13
BITMAP
E0
ENDCHAR
STARTCHAR ogonek
ENCODING 731
SWIDTH 663 0
DWIDTH 13 0
BBX 4 1 4 -3
BITMAP
F0
ENDCHAR
STARTCHAR tilde
ENCODING 732
SWIDTH 663 0
DWIDTH 13 0
BBX 7 1 6 13
BITMAP
FE
ENDCHAR
STARTCHAR hungarumlaut
ENCODING 733
SWIDTH 663 0
DWIDTH 13 0
BBX 8 1 6 13
BITMAP
FF
ENDCHAR
STARTCHAR uni02EE
ENCODING 750
SWIDTH 530 0
DWIDTH 10 0
BBX 10 6 2 8
BITMAP
7BC0
7BC0
73C0
7380
3180
E700
ENDCHAR
STARTCHAR uni037E
ENCODING 894
SWIDTH 343 0
DWIDTH 7 0
BBX 6 13 1 -3
BITMAP
3C
3C
38
00
00
00
78
78
70
70
30
70
E0
ENDCHAR
STARTCHAR tonos
ENCODING 900
SWIDTH 663 0
DWIDTH 13 0
BBX 6 1 7 13
BITMAP
FC
ENDCHAR
STARTCHAR dieresistonos
ENCODING 901
SWIDTH 663 0
DWIDTH 13 0
BBX 7 3 6 13
BITMAP
7E
00
EE
ENDCHAR
STARTCHAR anoteleia
ENCODING 903
SWIDTH 343 0
DWIDTH 13 0
BBX 3 1 6 6
BITMAP
E0
ENDCHAR
STARTCHAR mu
ENCODING 956
SWIDTH 681 0
DWIDTH 13 0
BBX 13 13 1 -3
BITMAP
1C78
3C78
3C70
3CF0
38F0
39F0
7AF0
7EE0
7CE0
79E0
7000
F000
F000
ENDCHAR
STARTCHAR uni1E00
ENCODING 7680
SWIDTH 771 0
DWIDTH 15 0
BBX 13 16 -1 -2
BITMAP
01C0
01E0
03E0
07E0
05E0
0CE0
08F0
18F0
10F0
30F0
3FF0
6078
4078
8078
0000
0380
ENDCHAR
STARTCHAR uni1E01
ENCODING 7681
SWIDTH 681 0
DWIDTH 13 0
BBX 12 12 2 -2
BITMAP
07F0
18F0
30E0
71E0
61E0
E3E0
EDE0
FDC0
F9C0
73C0
0000
0E00
ENDCHAR
STARTCHAR uni1E02
ENCODING 7682
SWIDTH 660 0
DWIDTH 13 0
BBX 12 16 1 0
BITMAP
0700
0000
1FE0
3C70
3C70
3C70
3860
3840
7880
78C0
7FE0
78E0
7060
F060
F0C0
FF80
ENDCHAR
STARTCHAR uni1E03
ENCODING 7683
SWIDTH 681 0
DWIDTH 13 0
BBX 12 16 1 0
BITMAP
0E00
0000
1F00
1E00
3E00
3E00
3E60
3CF0
3DF0
7F70
7E70
7C60
7C60
78C0
F180
FE00
ENDCHAR
STARTCHAR uni1E04
ENCODING 7684
SWIDTH 660 0
DWIDTH 13 0
BBX 12 16 1 -2
BITMAP
1FE0
3C70
3C70
3C70
3860
3840
7880
78C0
7FE0
78E0
7060
F060
F0C0
FF80
0000
0E00
ENDCHAR
STARTCHAR uni1E05
ENCODING 7685
SWIDTH 681 0
DWIDTH 13 0
BBX 12 16 1 -2
BITMAP
1F00
1E00
3E00
3E00
3E60
3CF0
3DF0
7F70
7E70
7C60
7C60
78C0
F180
FE00
0000
1C00
ENDCHAR
STARTCHAR uni1E06
ENCODING 7686
SWIDTH 660 0
DWIDTH 13 0
BBX 12 16 1 -2
BITMAP
1FE0
3C70
3C70
3C70
3860
3840
7880
78C0
7FE0
78E0
7060
F060
F0C0
FF80
0000
3F80
ENDCHAR
STARTCHAR uni1E07
ENCODING 7687
SWIDTH 681 0
DWIDTH 13 0
BBX 12 16 1 -2
BITMAP
1F00
1E00
3E00
3E00
3E60
3CF0
3DF0
7F70
7E70
7C60
7C60
78C0
F180
FE00
0000
7F00
ENDCHAR
STARTCHAR uni1E08
ENCODING 7688
SWIDTH 737 0
DWIDTH 14 0
BBX 14 20 2 -4
BITMAP
0FC0
0000
03FC
0E0C
1800
3800
7000
6000
E000
E000
E000
E000
E000
7000
7830
1FF0
0400
0C00
0200
1C00
ENDCHAR
STARTCHAR uni1E09
ENCODING 7689
SWIDTH 548 0
DWIDTH 10 0
BBX 9 16 2 -4
BITMAP
3F00
0000
0F80
1880
3000
6000
E000
E000
E100
E100
E300
3C00
1000
3000
0800
7000
ENDCHAR
STARTCHAR uni1E0A
ENCODING 7690
SWIDTH 822 0
DWIDTH 16 0
BBX 15 16 2 0
BITMAP
0380
0000
1FF8
3E1C
3E0E
3C0E
3C0E
3C0E
7C0E
780E
781C
781C
7838
F030
F0E0
FF80
ENDCHAR
STARTCHAR uni1E0B
ENCODING 7691
SWIDTH 681 0
DWIDTH 13 0
BBX 13 16 1 0
BITMAP
00E0
0000
0078
0078
0070
0070
07F0
18F0
30F0
71E0
61E0
E3E0
EDE0
FDE0
F9C0
73C0
ENDCHAR
STARTCHAR uni1E0C
ENCODING 7692
SWIDTH 822 0
DWIDTH 16 0
BBX 15 16 2 -2
BITMAP
1FF8
3E1C
3E0E
3C0E
3C0E
3C0E
7C0E
780E
781C
781C
7838
F030
F0E0
FF80
0000
0700
ENDCHAR
STARTCHAR uni1E0D
ENCODING 7693
SWIDTH 681 0
DWIDTH 13 0
BBX 13 16 1 -2
BITMAP
0078
0078
0070
0070
07F0
18F0
30F0
71E0
61E0
E3E0
EDE0
FDE0
F9C0
73C0
0000
0E00
ENDCHAR
STARTCHAR uni1E0E
ENCODING 7694
SWIDTH 822 0
DWIDTH 16 0
BBX 15 16 2 -2
BITMAP
1FF8
3E1C
3E0E
3C0E
3C0E
3C0E
7C0E
780E
781C
781C
7838
F030
F0E0
FF80
0000
1FC0
ENDCHAR
STARTCHAR uni1E0F
ENCODING 7695
SWIDTH 681 0
DWIDTH 13 0
BBX 13 16 1 -2
BITMAP
0078
0078
0070
0070
07F0
18F0
30F0
71E0
61E0
E3E0
EDE0
FDE0
F9C0
73C0
0000
3F80
ENDCHAR
STARTCHAR uni1E10
ENCODING 7696
SWIDTH 822 0
DWIDTH 16 0
BBX 15 18 2 -4
BITMAP
1FF8
3E1C
3E0E
3C0E
3C0E
3C0E
7C0E
780E
781C
781C
7838
F030
F0E0
FF80
0300
0600
0100
0E00
ENDCHAR
STARTCHAR uni1E11
ENCODING 7697
SWIDTH 681 0
DWIDTH 13 0
BBX 13 18 1 -4
BITMAP
0078
0078
0070
0070
07F0
18F0
30F0
71E0
61E0
E3E0
EDE0
FDE0
F9C0
73C0
0600
0C00
0200
1C00
ENDCHAR
STARTCHAR uni1E12
ENCODING 7698
SWIDTH 822 0
DWIDTH 16 0
BBX 15 16 2 -2
BITMAP
1FF8
3E1C
3E0E
3C0E
3C0E
3C0E
7C0E
780E
781C
781C
7838
F030
F0E0
FF80
0000
1FC0
ENDCHAR
STARTCHAR uni1E13
ENCODING 7699
SWIDTH 681 0
DWIDTH 13 0
BBX 13 16 1 -2
BITMAP
0078
0078
0070
0070
07F0
18F0
30F0
71E0
61E0
E3E0
EDE0
FDE0
F9C0
73C0
0000
3F80
ENDCHAR
STARTCHAR uni1E14
ENCODING 7700
SWIDTH 642 0
DWIDTH 12 0
BBX 12 18 2 0
BITMAP
0F00
0000
3F80
0000
1FF0
3C00
3C00
3C00
3800
3800
7FC0
7800
7800
7800
7000
F000
F000
FFC0
ENDCHAR
STARTCHAR uni1E15
ENCODING 7701
SWIDTH 612 0
DWIDTH 12 0
BBX 10 14 2 0
BITMAP
0F00
0000
3F80
0000
0780
1DC0
38C0
71C0
F180
F300
FE00
F040
70C0
3F00
ENDCHAR
STARTCHAR uni1E16
ENCODING 7702
SWIDTH 642 0
DWIDTH 12 0
BBX 12 18 2 0
BITMAP
1F80
0000
3F80
0000
1FF0
3C00
3C00
3C00
3800
3800
7FC0
7800
7800
7800
7000
F000
F000
FFC0
ENDCHAR
STARTCHAR uni1E17
ENCODING 7703
SWIDTH 612 0
DWIDTH 12 0
BBX 10 14 2 0
BITMAP
1F80
0000
3F80
0000
0780
1DC0
38C0
71C0
F180
F300
FE00
F040
70C0
3F00
ENDCHAR
STARTCHAR uni1E18
ENCODING 7704
SWIDTH 642 0
DWIDTH 12 0
BBX 12 16 2 -2
BITMAP
1FF0
3C00
3C00
3C00
3800
3800
7FC0
7800
7800
7800
7000
F000
F000
FFC0
0000
7F00
ENDCHAR
STARTCHAR uni1E19
ENCODING 7705
SWIDTH 612 0
DWIDTH 12 0
BBX 10 12 2 -2
BITMAP
0780
1DC0
38C0
71C0
F180
F300
FE00
F040
70C0
3F00
0000
7F00
ENDCHAR
STARTCHAR uni1E1A
ENCODING 7706
SWIDTH 642 0
DWIDTH 12 0
BBX 12 16 2 -2
BITMAP
1FF0
3C00
3C00
3C00
3800
3800
7FC0
7800
7800
7800
7000
F000
F000
FFC0
0000
7F00
ENDCHAR
STARTCHAR uni1E1B
ENCODING 7707
SWIDTH 612 0
DWIDTH 12 0
BBX 10 12 2 -2
BITMAP
0780
1DC0
38C0
71C0
F180
F300
FE00
F040
70C0
3F00
0000
7F00
ENDCHAR
STARTCHAR uni1E1C
ENCODING 7708
SWIDTH 642 0
DWIDTH 12 0
BBX 12 20 2 -4
BITMAP
3F80
0000
1FF0
3C00
3C00
3C00
3800
3800
7FC0
7800
7800
7800
7000
F000
F000
FFC0
0C00
1800
0400
3800
ENDCHAR
STARTCHAR uni1E1D
ENCODING 7709
SWIDTH 612 0
DWIDTH 12 0
BBX 10 16 2 -4
BITMAP
3F80
0000
0780
1DC0
38C0
71C0
F180
F300
FE00
F040
70C0
3F00
0C00
1800
0400
3800
ENDCHAR
STARTCHAR uni1E1E
ENCODING 7710
SWIDTH 614 0
DWIDTH 12 0
BBX 12 16 2 0
BITMAP
0E00
0000
1FF0
3C00
3C00
3C00
3800
3800
7FC0
7800
7800
7000
7000
F000
F000
F000
ENDCHAR
STARTCHAR uni1E1F
ENCODING 7711
SWIDTH 464 0
DWIDTH 9 0
BBX 11 20 1 -4
BITMAP
0E00
0000
03E0
0E20
1E00
1C00
7F80
3C00
3C00
3800
3800
3800
7800
7800
7800
7000
7000
F000
F000
F000
ENDCHAR
STARTCHAR uni1E20
ENCODING 7712
SWIDTH 755 0
DWIDTH 14 0
BBX 14 16 2 0
BITMAP
0FE0
0000
03FC
0E0C
1800
3800
7000
6000
E000
E000
E000
E078
E0F0
70F0
79F0
1FE0
ENDCHAR
STARTCHAR uni1E21
ENCODING 7713
SWIDTH 674 0
DWIDTH 13 0
BBX 12 16 1 -4
BITMAP
0FE0
0000
07F0
08E0
18E0
30E0
71E0
63E0
64C0
7CC0
78C0
71C0
01C0
0180
C300
FE00
ENDCHAR
STARTCHAR uni1E22
ENCODING 7714
SWIDTH 813 0
DWIDTH 15 0
BBX 15 16 2 0
BITMAP
01C0
0000
1C1E
3C1E
3C1E
3C1C
3C1C
383C
7FFC
783C
7838
7078
7078
F078
F078
F070
ENDCHAR
STARTCHAR uni1E23
ENCODING 7715
SWIDTH 675 0
DWIDTH 13 0
BBX 12 16 1 0
BITMAP
1C00
0000
1E00
1C00
3C00
3C00
3CE0
3DF0
3BF0
7AE0
7CE0
78E0
78E0
70C0
F1C0
F1C0
ENDCHAR
STARTCHAR uni1E24
ENCODING 7716
SWIDTH 813 0
DWIDTH 15 0
BBX 15 16 2 -2
BITMAP
1C1E
3C1E
3C1E
3C1C
3C1C
383C
7FFC
783C
7838
7078
7078
F078
F078
F070
0000
0700
ENDCHAR
STARTCHAR uni1E25
ENCODING 7717
SWIDTH 675 0
DWIDTH 13 0
BBX 12 16 1 -2
BITMAP
1E00
1C00
3C00
3C00
3CE0
3DF0
3BF0
7AE0
7CE0
78E0
78E0
70C0
F1C0
F1C0
0000
0E00
ENDCHAR
STARTCHAR uni1E26
ENCODING 7718
SWIDTH 813 0
DWIDTH 15 0
BBX 15 16 2 0
BITMAP
0770
0000
1C1E
3C1E
3C1E
3C1C
3C1C
383C
7FFC
783C
7838
7078
7078
F078
F078
F070
ENDCHAR
STARTCHAR uni1E27
ENCODING 7719
SWIDTH 675 0
DWIDTH 13 0
BBX 12 16 1 0
BITMAP
7700
0000
1E00
1C00
3C00
3C00
3CE0
3DF0
3BF0
7AE0
7CE0
78E0
78E0
70C0
F1C0
F1C0
ENDCHAR
STARTCHAR uni1E28
ENCODING 7720
SWIDTH 813 0
DWIDTH 15 0
BBX 15 18 2 -4
BITMAP
1C1E
3C1E
3C1E
3C1C
3C1C
383C
7FFC
783C
7838
7078
7078
F078
F078
F070
0180
0300
0080
0700
ENDCHAR
STARTCHAR uni1E29
ENCODING 7721
SWIDTH 675 0
DWIDTH 13 0
BBX 12 18 1 -4
BITMAP
1E00
1C00
3C00
3C00
3CE0
3DF0
3BF0
7AE0
7CE0
78E0
78E0
70C0
F1C0
F1C0
0600
0C00
0200
1C00
ENDCHAR
STARTCHAR uni1E2A
ENCODING 7722
SWIDTH 813 0
DWIDTH 15 0
BBX 15 16 2 -2
BITMAP
1C1E
3C1E
3C1E
3C1C
3C1C
383C
7FFC
783C
7838
7078
7078
F078
F078
F070
0000
1FC0
ENDCHAR
STARTCHAR uni1E2B
ENCODING 7723
SWIDTH 675 0
DWIDTH 13 0
BBX 12 16 1 -2
BITMAP
1E00
1C00
3C00
3C00
3CE0
3DF0
3BF0
7AE0
7CE0
78E0
78E0
70C0
F1C0
F1C0
0000
3F80
ENDCHAR
STARTCHAR uni1E2C
ENCODING 7724
SWIDTH 361 0
DWIDTH 7 0
BBX 7 16 1 -2
BITMAP
1E
1E
1E
1C
1C
1C
3C
3C
38
38
38
78
78
78
00
FE
ENDCHAR
STARTCHAR uni1E2D
ENCODING 7725
SWIDTH 343 0
DWIDTH 7 0
BBX 8 16 0 -2
BITMAP
1F
00
00
00
1E
1E
1E
3C
3C
3C
3C
38
78
78
00
FE
ENDCHAR
STARTCHAR uni1E2E
ENCODING 7726
SWIDTH 361 0
DWIDTH 7 0
BBX 8 18 2 0
BITMAP
7E
00
77
00
3C
3C
3C
38
38
38
78
78
70
70
70
F0
F0
F0
ENDCHAR
STARTCHAR uni1E2F
ENCODING 7727
SWIDTH 343 0
DWIDTH 7 0
BBX 9 14 1 0
BITMAP
3F00
0000
3B80
0000
3C00
3C00
3800
7800
7800
7800
7800
7000
F000
F000
ENDCHAR
STARTCHAR uni1E30
ENCODING 7728
SWIDTH 753 0
DWIDTH 14 0
BBX 12 16 2 0
BITMAP
1F80
0000
1C30
3C20
3C40
3CC0
3D80
3900
7B00
7F00
7B80
79C0
71C0
F0E0
F0E0
F070
ENDCHAR
STARTCHAR uni1E31
ENCODING 7729
SWIDTH 666 0
DWIDTH 13 0
BBX 11 16 2 0
BITMAP
3F00
0000
1C00
1C00
3C00
3C00
3C60
3840
3880
7900
7B00
7F00
7380
7380
F1C0
F1C0
ENDCHAR
STARTCHAR uni1E32
ENCODING 7730
SWIDTH 753 0
DWIDTH 14 0
BBX 12 16 2 -2
BITMAP
1C30
3C20
3C40
3CC0
3D80
3900
7B00
7F00
7B80
79C0
71C0
F0E0
F0E0
F070
0000
0E00
ENDCHAR
STARTCHAR uni1E33
ENCODING 7731
SWIDTH 666 0
DWIDTH 13 0
BBX 11 16 2 -2
BITMAP
1C00
1C00
3C00
3C00
3C60
3840
3880
7900
7B00
7F00
7380
7380
F1C0
F1C0
0000
0E00
ENDCHAR
STARTCHAR uni1E34
ENCODING 7732
SWIDTH 753 0
DWIDTH 14 0
BBX 12 16 2 -2
BITMAP
1C30
3C20
3C40
3CC0
3D80
3900
7B00
7F00
7B80
79C0
71C0
F0E0
F0E0
F070
0000
3F80
ENDCHAR
STARTCHAR uni1E35
ENCODING 7733
SWIDTH 666 0
DWIDTH 13 0
BBX 11 16 2 -2
BITMAP
1C00
1C00
3C00
3C00
3C60
3840
3880
7900
7B00
7F00
7380
7380
F1C0
F1C0
0000
3F80
ENDCHAR
STARTCHAR uni1E36
ENCODING 7734
SWIDTH 623 0
DWIDTH 12 0
BBX 10 16 2 -2
BITMAP
1C00
3C00
3C00
3C00
3800
3800
7800
7800
7800
7800
7000
F000
F000
FFC0
0000
1C00
ENDCHAR
STARTCHAR uni1E37
ENCODING 7735
SWIDTH 343 0
DWIDTH 7 0
BBX 7 16 1 -2
BITMAP
1E
1E
1C
3C
3C
3C
3C
78
78
78
78
70
F0
F0
00
70
ENDCHAR
STARTCHAR uni1E38
ENCODING 7736
SWIDTH 623 0
DWIDTH 12 0
BBX 10 18 2 -2
BITMAP
7F00
0000
1C00
3C00
3C00
3C00
3800
3800
7800
7800
7800
7800
7000
F000
F000
FFC0
0000
1C00
ENDCHAR
STARTCHAR uni1E39
ENCODING 7737
SWIDTH 343 0
DWIDTH 7 0
BBX 8 18 1 -2
BITMAP
7F
00
1E
1E
1C
3C
3C
3C
3C
78
78
78
78
70
F0
F0
00
70
ENDCHAR
STARTCHAR uni1E3A
ENCODING 7738
SWIDTH 623 0
DWIDTH 12 0
BBX 10 16 2 -2
BITMAP
1C00
3C00
3C00
3C00
3800
3800
7800
7800
7800
7800
7000
F000
F000
FFC0
0000
7F00
ENDCHAR
STARTCHAR uni1E3B
ENCODING 7739
SWIDTH 343 0
DWIDTH 7 0
BBX 8 16 0 -2
BITMAP
0F
0F
0E
1E
1E
1E
1E
3C
3C
3C
3C
38
78
78
00
FE
ENDCHAR
STARTCHAR uni1E3C
ENCODING 7740
SWIDTH 623 0
DWIDTH 12 0
BBX 10 16 2 -2
BITMAP
1C00
3C00
3C00
3C00
3800
3800
7800
7800
7800
7800
7000
F000
F000
FFC0
0000
7F00
ENDCHAR
STARTCHAR uni1E3D
ENCODING 7741
SWIDTH 343 0
DWIDTH 7 0
BBX 8 16 0 -2
BITMAP
0F
0F
0E
1E
1E
1E
1E
3C
3C
3C
3C
38
78
78
00
FE
ENDCHAR
STARTCHAR uni1E3E
ENCODING 7742
SWIDTH 940 0
DWIDTH 18 0
BBX 17 16 2 0
BITMAP
03F000
000000
1E0780
3E0780
3F0F80
3F0F00
3F1700
371700
772700
776F00
774E00
77CE00
678E00
E70E00
E31E00
E01C00
ENDCHAR
STARTCHAR uni1E3F
ENCODING 7743
SWIDTH 991 0
DWIDTH 19 0
BBX 18 12 1 0
BITMAP
03F000
000000
3CE380
39E7C0
3BEF80
7EEB80
7CF180
79E380
71E380
71C300
F1C300
F3C700
ENDCHAR
STARTCHAR uni1E40
ENCODING 7744
SWIDTH 940 0
DWIDTH 18 0
BBX 17 16 2 0
BITMAP
01C000
000000
1E0780
3E0780
3F0F80
3F0F00
3F1700
371700
772700
776F00
774E00
77CE00
678E00
E70E00
E31E00
E01C00
ENDCHAR
STARTCHAR uni1E41
ENCODING 7745
SWIDTH 991 0
DWIDTH 19 0
BBX 18 12 1 0
BITMAP
00E000
000000
3CE380
39E7C0
3BEF80
7EEB80
7CF180
79E380
71E380
71C300
F1C300
F3C700
ENDCHAR
STARTCHAR uni1E42
ENCODING 7746
SWIDTH 940 0
DWIDTH 18 0
BBX 17 16 2 -2
BITMAP
1E0780
3E0780
3F0F80
3F0F00
3F1700
371700
772700
776F00
774E00
77CE00
678E00
E70E00
E31E00
E01C00
000000
038000
ENDCHAR
STARTCHAR uni1E43
ENCODING 7747
SWIDTH 991 0
DWIDTH 19 0
BBX 18 12 1 -2
BITMAP
3CE380
39E7C0
3BEF80
7EEB80
7CF180
79E380
71E380
71C300
F1C300
F3C700
000000
01C000
ENDCHAR
STARTCHAR uni1E44
ENCODING 7748
SWIDTH 789 0
DWIDTH 15 0
BBX 14 16 2 0
BITMAP
0380
0000
181C
3C1C
3C1C
3E18
3E38
3738
7738
73B8
73B0
71F0
61F0
E0F0
E0F0
E060
ENDCHAR
STARTCHAR uni1E45
ENCODING 7749
SWIDTH 675 0
DWIDTH 13 0
BBX 12 12 1 0
BITMAP
0700
0000
3CE0
39F0
3BE0
7EE0
7CE0
78E0
78E0
70C0
F1C0
F1C0
ENDCHAR
STARTCHAR uni1E46
ENCODING 7750
SWIDTH 789 0
DWIDTH 15 0
BBX 14 16 2 -2
BITMAP
181C
3C1C
3C1C
3E18
3E38
3738
7738
73B8
73B0
71F0
61F0
E0F0
E0F0
E060
0000
0700
ENDCHAR
STARTCHAR uni1E47
ENCODING 7751
SWIDTH 675 0
DWIDTH 13 0
BBX 12 12 1 -2
BITMAP
3CE0
39F0
3BE0
7EE0
7CE0
78E0
78E0
70C0
F1C0
F1C0
0000
0E00
ENDCHAR
STARTCHAR uni1E48
ENCODING 7752
SWIDTH 789 0
DWIDTH 15 0
BBX 14 16 2 -2
BITMAP
181C
3C1C
3C1C
3E18
3E38
3738
7738
73B8
73B0
71F0
61F0
E0F0
E0F0
E060
0000
1FC0
ENDCHAR
STARTCHAR uni1E49
ENCODING 7753
SWIDTH 675 0
DWIDTH 13 0
BBX 12 12 1 -2
BITMAP
3CE0
39F0
3BE0
7EE0
7CE0
78E0
78E0
70C0
F1C0
F1C0
0000
3F80
ENDCHAR
STARTCHAR uni1E4A
ENCODING 7754
SWIDTH 789 0
DWIDTH 15 0
BBX 14 16 2 -2
BITMAP
181C
3C1C
3C1C
3E18
3E38
3738
7738
73B8
73B0
71F0
61F0
E0F0
E0F0
E060
0000
1FC0
ENDCHAR
STARTCHAR uni1E4B
ENCODING 7755
SWIDTH 675 0
DWIDTH 13 0
BBX 12 12 1 -2
BITMAP
3CE0
39F0
3BE0
7EE0
7CE0
78E0
78E0
70C0
F1C0
F1C0
0000
3F80
ENDCHAR
STARTCHAR uni1E4C
ENCODING 7756
SWIDTH 855 0
DWIDTH 16 0
BBX 13 18 3 0
BITMAP
07E0
0000
07F0
0000
07C0
0C70
1838
3038
7038
6038
E038
E038
E038
E070
E060
60E0
71C0
1F00
ENDCHAR
STARTCHAR uni1E4D
ENCODING 7757
SWIDTH 663 0
DWIDTH 13 0
BBX 10 14 2 0
BITMAP
1F80
0000
1FC0
0000
0F00
3380
71C0
61C0
E1C0
E180
E380
E300
E600
3C00
ENDCHAR
STARTCHAR uni1E4E
ENCODING 7758
SWIDTH 855 0
DWIDTH 16 0
BBX 13 18 3 0
BITMAP
0EE0
0000
07F0
0000
07C0
0C70
1838
3038
7038
6038
E038
E038
E038
E070
E060
60E0
71C0
1F00
ENDCHAR
STARTCHAR uni1E4F
ENCODING 7759
SWIDTH 663 0
DWIDTH 13 0
BBX 10 14 2 0
BITMAP
3B80
0000
1FC0
0000
0F00
3380
71C0
61C0
E1C0
E180
E380
E300
E600
3C00
ENDCHAR
STARTCHAR uni1E50
ENCODING 7760
SWIDTH 855 0
DWIDTH 16 0
BBX 13 18 3 0
BITMAP
0780
0000
0FE0
0000
07C0
0C70
1838
3038
7038
6038
E038
E038
E038
E070
E060
60E0
71C0
1F00
ENDCHAR
STARTCHAR uni1E51
ENCODING 7761
SWIDTH 663 0
DWIDTH 13 0
BBX 10 14 2 0
BITMAP
1E00
0000
3F80
0000
0F00
3380
71C0
61C0
E1C0
E180
E380
E300
E600
3C00
ENDCHAR
STARTCHAR uni1E52
ENCODING 7762
SWIDTH 855 0
DWIDTH 16 0
BBX 13 18 3 0
BITMAP
0FC0
0000
0FE0
0000
07C0
0C70
1838
3038
7038
6038
E038
E038
E038
E070
E060
60E0
71C0
1F00
ENDCHAR
STARTCHAR uni1E53
ENCODING 7763
SWIDTH 663 0
DWIDTH 13 0
BBX 10 14 2 0
BITMAP
3F00
0000
3F80
0000
0F00
3380
71C0
61C0
E1C0
E180
E380
E300
E600
3C00
ENDCHAR
STARTCHAR uni1E54
ENCODING 7764
SWIDTH 645 0
DWIDTH 12 0
BBX 12 16 2 0
BITMAP
0FC0
0000
1FE0
3C70
3870
3870
3870
3860
79C0
7F00
7000
7000
7000
F000
F000
E000
ENDCHAR
STARTCHAR uni1E55
ENCODING 7765
SWIDTH 681 0
DWIDTH 13 0
BBX 13 16 1 -4
BITMAP
0FC0
0000
1E70
1CF8
3DF8
3D38
3A38
3C30
3870
7860
78C0
7F00
7000
7000
F000
F000
ENDCHAR
STARTCHAR uni1E56
ENCODING 7766
SWIDTH 645 0
DWIDTH 12 0
BBX 12 16 2 0
BITMAP
0700
0000
1FE0
3C70
3870
3870
3870
3860
79C0
7F00
7000
7000
7000
F000
F000
E000
ENDCHAR
STARTCHAR uni1E57
ENCODING 7767
SWIDTH 681 0
DWIDTH 13 0
BBX 13 16 1 -4
BITMAP
0380
0000
1E70
1CF8
3DF8
3D38
3A38
3C30
3870
7860
78C0
7F00
7000
7000
F000
F000
ENDCHAR
STARTCHAR uni1E58
ENCODING 7768
SWIDTH 708 0
DWIDTH 13 0
BBX 12 16 2 0
BITMAP
0700
0000
1FE0
3870
3870
3870
3870
38E0
7FC0
7F80
7300
7380
7180
F1C0
F1C0
E0E0
ENDCHAR
STARTCHAR uni1E59
ENCODING 7769
SWIDTH 542 0
DWIDTH 10 0
BBX 10 12 2 0
BITMAP
0E00
0000
38C0
3980
7A80
7C00
7800
7000
7000
F000
F000
F000
ENDCHAR
STARTCHAR uni1E5A
ENCODING 7770
SWIDTH 708 0
DWIDTH 13 0
BBX 12 16 2 -2
BITMAP
1FE0
3870
3870
3870
3870
38E0
7FC0
7F80
7300
7380
7180
F1C0
F1C0
E0E0
0000
0E00
ENDCHAR
STARTCHAR uni1E5B
ENCODING 7771
SWIDTH 542 0
DWIDTH 10 0
BBX 10 12 2 -2
BITMAP
38C0
3980
7A80
7C00
7800
7000
7000
F000
F000
F000
0000
3800
ENDCHAR
STARTCHAR uni1E5C
ENCODING 7772
SWIDTH 708 0
DWIDTH 13 0
BBX 12 18 2 -2
BITMAP
1FC0
0000
1FE0
3870
3870
3870
3870
38E0
7FC0
7F80
7300
7380
7180
F1C0
F1C0
E0E0
0000
0E00
ENDCHAR
STARTCHAR uni1E5D
ENCODING 7773
SWIDTH 542 0
DWIDTH 10 0
BBX 10 14 2 -2
BITMAP
7F00
0000
38C0
3980
7A80
7C00
7800
7000
7000
F000
F000
F000
0000
3800
ENDCHAR
STARTCHAR uni1E5E
ENCODING 7774
SWIDTH 708 0
DWIDTH 13 0
BBX 12 16 2 -2
BITMAP
1FE0
3870
3870
3870
3870
38E0
7FC0
7F80
7300
7380
7180
F1C0
F1C0
E0E0
0000
3F80
ENDCHAR
STARTCHAR uni1E5F
ENCODING 7775
SWIDTH 542 0
DWIDTH 10 0
BBX 10 12 2 -2
BITMAP
38C0
3980
7A80
7C00
7800
7000
7000
F000
F000
F000
0000
FE00
ENDCHAR
STARTCHAR uni1E60
ENCODING 7776
SWIDTH 639 0
DWIDTH 12 0
BBX 11 16 2 0
BITMAP
0E00
0000
07E0
1860
3000
3800
3C00
3F00
3F80
1FC0
0FC0
03C0
01C0
0180
C100
FE00
ENDCHAR
STARTCHAR uni1E61
ENCODING 7777
SWIDTH 527 0
DWIDTH 10 0
BBX 10 12 1 0
BITMAP
0E00
0000
0FC0
1C40
3C00
3E00
3F00
1F80
0F80
0780
C700
FE00
ENDCHAR
STARTCHAR uni1E62
ENCODING 7778
SWIDTH 639 0
DWIDTH 12 0
BBX 11 16 2 -2
BITMAP
07E0
1860
3000
3800
3C00
3F00
3F80
1FC0
0FC0
03C0
01C0
0180
C100
FE00
0000
0E00
ENDCHAR
STARTCHAR uni1E63
ENCODING 7779
SWIDTH 527 0
DWIDTH 10 0
BBX 10 12 1 -2
BITMAP
0FC0
1C40
3C00
3E00
3F00
1F80
0F80
0780
C700
FE00
0000
1C00
ENDCHAR
STARTCHAR uni1E64
ENCODING 7780
SWIDTH 639 0
DWIDTH 12 0
BBX 11 18 2 0
BITMAP
0700
0000
1F80
0000
07E0
1860
3000
3800
3C00
3F00
3F80
1FC0
0FC0
03C0
01C0
0180
C100
FE00
ENDCHAR
STARTCHAR uni1E65
ENCODING 7781
SWIDTH 527 0
DWIDTH 10 0
BBX 10 14 1 0
BITMAP
0E00
0000
1F80
0000
0FC0
1C40
3C00
3E00
3F00
1F80
0F80
0780
C700
FE00
ENDCHAR
STARTCHAR uni1E66
ENCODING 7782
SWIDTH 639 0
DWIDTH 12 0
BBX 11 18 2 0
BITMAP
0700
0000
0FE0
0000
07E0
1860
3000
3800
3C00
3F00
3F80
1FC0
0FC0
03C0
01C0
0180
C100
FE00
ENDCHAR
STARTCHAR uni1E67
ENCODING 7783
SWIDTH 527 0
DWIDTH 10 0
BBX 11 14 1 0
BITMAP
0700
0000
0FE0
0000
0FC0
1C40
3C00
3E00
3F00
1F80
0F80
0780
C700
FE00
ENDCHAR
STARTCHAR uni1E68
ENCODING 7784
SWIDTH 639 0
DWIDTH 12 0
BBX 11 18 2 -2
BITMAP
0E00
0000
07E0
1860
3000
3800
3C00
3F00
3F80
1FC0
0FC0
03C0
01C0
0180
C100
FE00
0000
0E00
ENDCHAR
STARTCHAR uni1E69
ENCODING 7785
SWIDTH 527 0
DWIDTH 10 0
BBX 10 14 1 -2
BITMAP
0E00
0000
0FC0
1C40
3C00
3E00
3F00
1F80
0F80
0780
C700
FE00
0000
1C00
ENDCHAR
STARTCHAR uni1E6A
ENCODING 7786
SWIDTH 747 0
DWIDTH 14 0
BBX 14 16 3 0
BITMAP
0700
0000
FFFC
0700
0700
0700
0F00
0F00
0F00
0E00
0E00
1E00
1E00
1E00
1E00
1C00
ENDCHAR
STARTCHAR uni1E6B
ENCODING 7787
SWIDTH 437 0
DWIDTH 8 0
BBX 7 15 2 0
BITMAP
38
00
1C
38
38
FE
78
70
70
70
E0
E0
E0
FC
78
ENDCHAR
STARTCHAR uni1E6C
ENCODING 7788
SWIDTH 747 0
DWIDTH 14 0
BBX 14 16 3 -2
BITMAP
FFFC
0700
0700
0700
0F00
0F00
0F00
0E00
0E00
1E00
1E00
1E00
1E00
1C00
0000
0E00
ENDCHAR
STARTCHAR uni1E6D
ENCODING 7789
SWIDTH 437 0
DWIDTH 8 0
BBX 7 15 2 -2
BITMAP
1C
38
38
FE
78
70
70
70
E0
E0
E0
FC
78
00
70
ENDCHAR
STARTCHAR uni1E6E
ENCODING 7790
SWIDTH 747 0
DWIDTH 14 0
BBX 14 16 3 -2
BITMAP
FFFC
0700
0700
0700
0F00
0F00
0F00
0E00
0E00
1E00
1E00
1E00
1E00
1C00
0000
3F80
ENDCHAR
STARTCHAR uni1E6F
ENCODING 7791
SWIDTH 437 0
DWIDTH 8 0
BBX 8 15 1 -2
BITMAP
0E
1C
1C
7F
3C
38
38
38
70
70
70
7E
3C
00
FE
ENDCHAR
STARTCHAR uni1E70
ENCODING 7792
SWIDTH 747 0
DWIDTH 14 0
BBX 14 16 3 -2
BITMAP
FFFC
0700
0700
0700
0F00
0F00
0F00
0E00
0E00
1E00
1E00
1E00
1E00
1C00
0000
3F80
ENDCHAR
STARTCHAR uni1E71
ENCODING 7793
SWIDTH 437 0
DWIDTH 8 0
BBX 8 15 1 -2
BITMAP
0E
1C
1C
7F
3C
38
38
38
70
70
70
7E
3C
00
FE
ENDCHAR
STARTCHAR uni1E72
ENCODING 7794
SWIDTH 759 0
DWIDTH 14 0
BBX 13 16 3 -2
BITMAP
3838
7838
7878
7070
7070
7070
F070
E070
E0E0
E0E0
E0E0
E0C0
7180
3F00
0000
3B80
ENDCHAR
STARTCHAR uni1E73
ENCODING 7795
SWIDTH 675 0
DWIDTH 13 0
BBX 12 12 2 -2
BITMAP
38F0
38F0
30E0
71E0
71E0
73E0
75E0
7DC0
F9C0
73C0
0000
3B80
ENDCHAR
STARTCHAR uni1E74
ENCODING 7796
SWIDTH 759 0
DWIDTH 14 0
BBX 13 16 3 -2
BITMAP
3838
7838
7878
7070
7070
7070
F070
E070
E0E0
E0E0
E0E0
E0C0
7180
3F00
0000
3F80
ENDCHAR
STARTCHAR uni1E75
ENCODING 7797
SWIDTH 675 0
DWIDTH 13 0
BBX 12 12 2 -2
BITMAP
38F0
38F0
30E0
71E0
71E0
73E0
75E0
7DC0
F9C0
73C0
0000
3F80
ENDCHAR
STARTCHAR uni1E76
ENCODING 7798
SWIDTH 759 0
DWIDTH 14 0
BBX 13 16 3 -2
BITMAP
3838
7838
7878
7070
7070
7070
F070
E070
E0E0
E0E0
E0E0
E0C0
7180
3F00
0000
3F80
ENDCHAR
STARTCHAR uni1E77
ENCODING 7799
SWIDTH 675 0
DWIDTH 13 0
BBX 12 12 2 -2
BITMAP
38F0
38F0
30E0
71E0
71E0
73E0
75E0
7DC0
F9C0
73C0
0000
3F80
ENDCHAR
STARTCHAR uni1E78
ENCODING 7800
SWIDTH 759 0
DWIDTH 14 0
BBX 13 18 3 0
BITMAP
0FC0
0000
1FC0
0000
3838
7838
7878
7070
7070
7070
F070
E070
E0E0
E0E0
E0E0
E0C0
7180
3F00
ENDCHAR
STARTCHAR uni1E79
ENCODING 7801
SWIDTH 675 0
DWIDTH 13 0
BBX 12 14 2 0
BITMAP
0FC0
0000
1FC0
0000
38F0
38F0
30E0
71E0
71E0
73E0
75E0
7DC0
F9C0
73C0
ENDCHAR
STARTCHAR uni1E7A
ENCODING 7802
SWIDTH 759 0
DWIDTH 14 0
BBX 13 18 3 0
BITMAP
1DC0
0000
1FC0
0000
3838
7838
7878
7070
7070
7070
F070
E070
E0E0
E0E0
E0E0
E0C0
7180
3F00
ENDCHAR
STARTCHAR uni1E7B
ENCODING 7803
SWIDTH 675 0
DWIDTH 13 0
BBX 12 14 2 0
BITMAP
1DC0
0000
1FC0
0000
38F0
38F0
30E0
71E0
71E0
73E0
75E0
7DC0
F9C0
73C0
ENDCHAR
STARTCHAR uni1E7C
ENCODING 7804
SWIDTH 765 0
DWIDTH 15 0
BBX 12 16 3 0
BITMAP
3F80
0000
F010
F030
F020
7060
7040
7080
7880
7900
7900
3A00
3A00
3C00
3C00
3800
ENDCHAR
STARTCHAR uni1E7D
ENCODING 7805
SWIDTH 630 0
DWIDTH 12 0
BBX 11 12 2 0
BITMAP
7F00
0000
F020
F040
F040
7880
7900
7900
7A00
7E00
3C00
3800
ENDCHAR
STARTCHAR uni1E7E
ENCODING 7806
SWIDTH 765 0
DWIDTH 15 0
BBX 12 16 3 -2
BITMAP
F010
F030
F020
7060
7040
7080
7880
7900
7900
3A00
3A00
3C00
3C00
3800
0000
1C00
ENDCHAR
STARTCHAR uni1E7F
ENCODING 7807
SWIDTH 630 0
DWIDTH 12 0
BBX 11 12 2 -2
BITMAP
F020
F040
F040
7880
7900
7900
7A00
7E00
3C00
3800
0000
1C00
ENDCHAR
STARTCHAR Wgrave
ENCODING 7808
SWIDTH 991 0
DWIDTH 19 0
BBX 16 16 4 0
BITMAP
0780
0000
C181
C382
C382
C384
C584
E588
ED98
E990
E9B0
F9A0
F1E0
71E0
61C0
61C0
ENDCHAR
STARTCHAR wgrave
ENCODING 7809
SWIDTH 878 0
DWIDTH 17 0
BBX 15 12 3 0
BITMAP
0780
0000
C1C2
C1C4
C2C4
C2CC
C4C8
C4D8
E8D0
F0F0
F0E0
E0E0
ENDCHAR
STARTCHAR Wacute
ENCODING 7810
SWIDTH 991 0
DWIDTH 19 0
BBX 16 16 4 0
BITMAP
0FC0
0000
C181
C382
C382
C384
C584
E588
ED98
E990
E9B0
F9A0
F1E0
71E0
61C0
61C0
ENDCHAR
STARTCHAR wacute
ENCODING 7811
SWIDTH 878 0
DWIDTH 17 0
BBX 15 12 3 0
BITMAP
0FC0
0000
C1C2
C1C4
C2C4
C2CC
C4C8
C4D8
E8D0
F0F0
F0E0
E0E0
ENDCHAR
STARTCHAR Wdieresis
ENCODING 7812
SWIDTH 991 0
DWIDTH 19 0
BBX 16 16 4 0
BITMAP
0EE0
0000
C181
C382
C382
C384
C584
E588
ED98
E990
E9B0
F9A0
F1E0
71E0
61C0
61C0
ENDCHAR
STARTCHAR wdieresis
ENCODING 7813
SWIDTH 878 0
DWIDTH 17 0
BBX 15 12 3 0
BITMAP
0EE0
0000
C1C2
C1C4
C2C4
C2CC
C4C8
C4D8
E8D0
F0F0
F0E0
E0E0
ENDCHAR
STARTCHAR uni1E86
ENCODING 7814
SWIDTH 991 0
DWIDTH 19 0
BBX 16 16 4 0
BITMAP
0380
0000
C181
C382
C382
C384
C584
E588
ED98
E990
E9B0
F9A0
F1E0
71E0
61C0
61C0
ENDCHAR
STARTCHAR uni1E87
ENCODING 7815
SWIDTH 878 0
DWIDTH 17 0
BBX 15 12 3 0
BITMAP
0380
0000
C1C2
C1C4
C2C4
C2CC
C4C8
C4D8
E8D0
F0F0
F0E0
E0E0
ENDCHAR
STARTCHAR uni1E88
ENCODING 7816
SWIDTH 991 0
DWIDTH 19 0
BBX 16 16 4 -2
BITMAP
C181
C382
C382
C384
C584
E588
ED98
E990
E9B0
F9A0
F1E0
71E0
61C0
61C0
0000
0700
ENDCHAR
STARTCHAR uni1E89
ENCODING 7817
SWIDTH 878 0
DWIDTH 17 0
BBX 15 12 3 -2
BITMAP
C1C2
C1C4
C2C4
C2CC
C4C8
C4D8
E8D0
F0F0
F0E0
E0E0
0000
0700
ENDCHAR
STARTCHAR uni1E8A
ENCODING 7818
SWIDTH 696 0
DWIDTH 13 0
BBX 13 16 -1 0
BITMAP
0700
0000
1C18
1C10
0C20
0E40
0E80
0780
0700
0700
0F80
1B80
1180
21C0
61C0
C0E0
ENDCHAR
STARTCHAR uni1E8B
ENCODING 7819
SWIDTH 563 0
DWIDTH 11 0
BBX 10 12 -1 0
BITMAP
1C00
0000
78C0
3C80
3D00
1E00
1E00
1E00
1F00
2F00
4700
C780
ENDCHAR
STARTCHAR uni1E8C
ENCODING 7820
SWIDTH 696 0
DWIDTH 13 0
BBX 13 16 -1 0
BITMAP
1DC0
0000
1C18
1C10
0C20
0E40
0E80
0780
0700
0700
0F80
1B80
1180
21C0
61C0
C0E0
ENDCHAR
STARTCHAR uni1E8D
ENCODING 7821
SWIDTH 563 0
DWIDTH 11 0
BBX 10 12 -1 0
BITMAP
7700
0000
78C0
3C80
3D00
1E00
1E00
1E00
1F00
2F00
4700
C780
ENDCHAR
STARTCHAR uni1E8E
ENCODING 7822
SWIDTH 681 0
DWIDTH 13 0
BBX 10 16 2 0
BITMAP
1C00
0000
C040
E080
E100
6300
7200
7400
3C00
3800
3800
7800
7800
7800
7000
F000
ENDCHAR
STARTCHAR uni1E8F
ENCODING 7823
SWIDTH 633 0
DWIDTH 12 0
BBX 11 16 0 -4
BITMAP
1C00
0000
7020
7040
78C0
7880
7900
3B00
3A00
3C00
3C00
3800
3000
3000
6000
C000
ENDCHAR
STARTCHAR uni1E90
ENCODING 7824
SWIDTH 687 0
DWIDTH 13 0
BBX 13 16 1 0
BITMAP
07F0
0000
1FF8
0070
00F0
00E0
01C0
0380
0700
0700
0E00
1C00
3800
3800
7000
FFE0
ENDCHAR
STARTCHAR uni1E91
ENCODING 7825
SWIDTH 630 0
DWIDTH 12 0
BBX 12 12 1 0
BITMAP
0FE0
0000
3FF0
00E0
01C0
0380
0700
0E00
1C00
3800
7000
FFE0
ENDCHAR
STARTCHAR uni1E92
ENCODING 7826
SWIDTH 687 0
DWIDTH 13 0
BBX 13 16 1 -2
BITMAP
1FF8
0070
00F0
00E0
01C0
0380
0700
0700
0E00
1C00
3800
3800
7000
FFE0
0000
0E00
ENDCHAR
STARTCHAR uni1E93
ENCODING 7827
SWIDTH 630 0
DWIDTH 12 0
BBX 12 12 1 -2
BITMAP
3FF0
00E0
01C0
0380
0700
0E00
1C00
3800
7000
FFE0
0000
0E00
ENDCHAR
STARTCHAR uni1E94
ENCODING 7828
SWIDTH 687 0
DWIDTH 13 0
BBX 13 16 1 -2
BITMAP
1FF8
0070
00F0
00E0
01C0
0380
0700
0700
0E00
1C00
3800
3800
7000
FFE0
0000
3F80
ENDCHAR
STARTCHAR uni1E95
ENCODING 7829
SWIDTH 630 0
DWIDTH 12 0
BBX 12 12 1 -2
BITMAP
3FF0
00E0
01C0
0380
0700
0E00
1C00
3800
7000
FFE0
0000
3F80
ENDCHAR
STARTCHAR uni1E96
ENCODING 7830
SWIDTH 675 0
DWIDTH 13 0
BBX 12 16 1 -2
BITMAP
1E00
1C00
3C00
3C00
3CE0
3DF0
3BF0
7AE0
7CE0
78E0
78E0
70C0
F1C0
F1C0
0000
3F80
ENDCHAR
STARTCHAR uni1E97
ENCODING 7831
SWIDTH 437 0
DWIDTH 8 0
BBX 7 15 2 0
BITMAP
EE
00
1C
38
38
FE
78
70
70
70
E0
E0
E0
FC
78
ENDCHAR
STARTCHAR uni1E98
ENCODING 7832
SWIDTH 878 0
DWIDTH 17 0
BBX 15 12 3 0
BITMAP
0380
0000
C1C2
C1C4
C2C4
C2CC
C4C8
C4D8
E8D0
F0F0
F0E0
E0E0
ENDCHAR
STARTCHAR uni1E99
ENCODING 7833
SWIDTH 633 0
DWIDTH 12 0
BBX 11 16 0 -4
BITMAP
1C00
0000
7020
7040
78C0
7880
7900
3B00
3A00
3C00
3C00
3800
3000
3000
6000
C000
ENDCHAR
STARTCHAR uni1EA0
ENCODING 7840
SWIDTH 771 0
DWIDTH 15 0
BBX 13 16 -1 -2
BITMAP
01C0
01E0
03E0
07E0
05E0
0CE0
08F0
18F0
10F0
30F0
3FF0
6078
4078
8078
0000
0380
ENDCHAR
STARTCHAR uni1EA1
ENCODING 7841
SWIDTH 681 0
DWIDTH 13 0
BBX 12 12 2 -2
BITMAP
07F0
18F0
30E0
71E0
61E0
E3E0
EDE0
FDC0
F9C0
73C0
0000
0E00
ENDCHAR
STARTCHAR uni1EA4
ENCODING 7844
SWIDTH 771 0
DWIDTH 15 0
BBX 13 18 -1 0
BITMAP
07E0
0000
07F0
0000
01C0
01E0
03E0
07E0
05E0
0CE0
08F0
18F0
10F0
30F0
3FF0
6078
4078
8078
ENDCHAR
STARTCHAR uni1EA5
ENCODING 7845
SWIDTH 681 0
DWIDTH 13 0
BBX 12 14 2 0
BITMAP
0FC0
0000
0FE0
0000
07F0
18F0
30E0
71E0
61E0
E3E0
EDE0
FDC0
F9C0
73C0
ENDCHAR
STARTCHAR uni1EA6
ENCODING 7846
SWIDTH 771 0
DWIDTH 15 0
BBX 13 18 -1 0
BITMAP
03C0
0000
07F0
0000
01C0
01E0
03E0
07E0
05E0
0CE0
08F0
18F0
10F0
30F0
3FF0
6078
4078
8078
ENDCHAR
STARTCHAR uni1EA7
ENCODING 7847
SWIDTH 681 0
DWIDTH 13 0
BBX 12 14 2 0
BITMAP
0780
0000
0FE0
0000
07F0
18F0
30E0
71E0
61E0
E3E0
EDE0
FDC0
F9C0
73C0
ENDCHAR
STARTCHAR uni1EAA
ENCODING 7850
SWIDTH 771 0
DWIDTH 15 0
BBX 13 18 -1 0
BITMAP
0FE0
0000
07F0
0000
01C0
01E0
03E0
07E0
05E0
0CE0
08F0
18F0
10F0
30F0
3FF0
6078
4078
8078
ENDCHAR
STARTCHAR uni1EAB
ENCODING 7851
SWIDTH 681 0
DWIDTH 13 0
BBX 12 14 2 0
BITMAP
0FE0
0000
0FE0
0000
07F0
18F0
30E0
71E0
61E0
E3E0
EDE0
FDC0
F9C0
73C0
ENDCHAR
STARTCHAR uni1EAC
ENCODING 7852
SWIDTH 771 0
DWIDTH 15 0
BBX 13 18 -1 -2
BITMAP
0FE0
0000
01C0
01E0
03E0
07E0
05E0
0CE0
08F0
18F0
10F0
30F0
3FF0
6078
4078
8078
0000
0380
ENDCHAR
STARTCHAR uni1EAD
ENCODING 7853
SWIDTH 681 0
DWIDTH 13 0
BBX 12 14 2 -2
BITMAP
1FC0
0000
07F0
18F0
30E0
71E0
61E0
E3E0
EDE0
FDC0
F9C0
73C0
0000
0E00
ENDCHAR
STARTCHAR uni1EAE
ENCODING 7854
SWIDTH 771 0
DWIDTH 15 0
BBX 13 18 -1 0
BITMAP
07E0
0000
0FE0
0000
01C0
01E0
03E0
07E0
05E0
0CE0
08F0
18F0
10F0
30F0
3FF0
6078
4078
8078
ENDCHAR
STARTCHAR uni1EAF
ENCODING 7855
SWIDTH 681 0
DWIDTH 13 0
BBX 12 14 2 0
BITMAP
0FC0
0000
0FE0
0000
07F0
18F0
30E0
71E0
61E0
E3E0
EDE0
FDC0
F9C0
73C0
ENDCHAR
STARTCHAR uni1EB0
ENCODING 7856
SWIDTH 771 0
DWIDTH 15 0
BBX 13 18 -1 0
BITMAP
03C0
0000
0FE0
0000
01C0
01E0
03E0
07E0
05E0
0CE0
08F0
18F0
10F0
30F0
3FF0
6078
4078
8078
ENDCHAR
STARTCHAR uni1EB1
ENCODING 7857
SWIDTH 681 0
DWIDTH 13 0
BBX 12 14 2 0
BITMAP
0780
0000
0FE0
0000
07F0
18F0
30E0
71E0
61E0
E3E0
EDE0
FDC0
F9C0
73C0
ENDCHAR
STARTCHAR uni1EB4
ENCODING 7860
SWIDTH 771 0
DWIDTH 15 0
BBX 13 18 -1 0
BITMAP
0FE0
0000
0FE0
0000
01C0
01E0
03E0
07E0
05E0
0CE0
08F0
18F0
10F0
30F0
3FF0
6078
4078
8078
ENDCHAR
STARTCHAR uni1EB5
ENCODING 7861
SWIDTH 681 0
DWIDTH 13 0
BBX 12 14 2 0
BITMAP
0FE0
0000
0FE0
0000
07F0
18F0
30E0
71E0
61E0
E3E0
EDE0
FDC0
F9C0
73C0
ENDCHAR
STARTCHAR uni1EB6
ENCODING 7862
SWIDTH 771 0
DWIDTH 15 0
BBX 13 18 -1 -2
BITMAP
0FE0
0000
01C0
01E0
03E0
07E0
05E0
0CE0
08F0
18F0
10F0
30F0
3FF0
6078
4078
8078
0000
0380
ENDCHAR
STARTCHAR uni1EB7
ENCODING 7863
SWIDTH 681 0
DWIDTH 13 0
BBX 12 14 2 -2
BITMAP
1FC0
0000
07F0
18F0
30E0
71E0
61E0
E3E0
EDE0
FDC0
F9C0
73C0
0000
0E00
ENDCHAR
STARTCHAR uni1EB8
ENCODING 7864
SWIDTH 642 0
DWIDTH 12 0
BBX 12 16 2 -2
BITMAP
1FF0
3C00
3C00
3C00
3800
3800
7FC0
7800
7800
7800
7000
F000
F000
FFC0
0000
1C00
ENDCHAR
STARTCHAR uni1EB9
ENCODING 7865
SWIDTH 612 0
DWIDTH 12 0
BBX 10 12 2 -2
BITMAP
0780
1DC0
38C0
71C0
F180
F300
FE00
F040
70C0
3F00
0000
1C00
ENDCHAR
STARTCHAR uni1EBC
ENCODING 7868
SWIDTH 642 0
DWIDTH 12 0
BBX 12 16 2 0
BITMAP
3F80
0000
1FF0
3C00
3C00
3C00
3800
3800
7FC0
7800
7800
7800
7000
F000
F000
FFC0
ENDCHAR
STARTCHAR uni1EBD
ENCODING 7869
SWIDTH 612 0
DWIDTH 12 0
BBX 10 12 2 0
BITMAP
3F80
0000
0780
1DC0
38C0
71C0
F180
F300
FE00
F040
70C0
3F00
ENDCHAR
STARTCHAR uni1EBE
ENCODING 7870
SWIDTH 642 0
DWIDTH 12 0
BBX 12 18 2 0
BITMAP
1F80
0000
0FE0
0000
1FF0
3C00
3C00
3C00
3800
3800
7FC0
7800
7800
7800
7000
F000
F000
FFC0
ENDCHAR
STARTCHAR uni1EBF
ENCODING 7871
SWIDTH 612 0
DWIDTH 12 0
BBX 11 14 2 0
BITMAP
0FC0
0000
0FE0
0000
0780
1DC0
38C0
71C0
F180
F300
FE00
F040
70C0
3F00
ENDCHAR
STARTCHAR uni1EC0
ENCODING 7872
SWIDTH 642 0
DWIDTH 12 0
BBX 12 18 2 0
BITMAP
0F00
0000
0FE0
0000
1FF0
3C00
3C00
3C00
3800
3800
7FC0
7800
7800
7800
7000
F000
F000
FFC0
ENDCHAR
STARTCHAR uni1EC1
ENCODING 7873
SWIDTH 612 0
DWIDTH 12 0
BBX 11 14 2 0
BITMAP
0780
0000
0FE0
0000
0780
1DC0
38C0
71C0
F180
F300
FE00
F040
70C0
3F00
ENDCHAR
STARTCHAR uni1EC4
ENCODING 7876
SWIDTH 642 0
DWIDTH 12 0
BBX 12 18 2 0
BITMAP
1FC0
0000
0FE0
0000
1FF0
3C00
3C00
3C00
3800
3800
7FC0
7800
7800
7800
7000
F000
F000
FFC0
ENDCHAR
STARTCHAR uni1EC5
ENCODING 7877
SWIDTH 612 0
DWIDTH 12 0
BBX 11 14 2 0
BITMAP
1FC0
0000
0FE0
0000
0780
1DC0
38C0
71C0
F180
F300
FE00
F040
70C0
3F00
ENDCHAR
STARTCHAR uni1EC6
ENCODING 7878
SWIDTH 642 0
DWIDTH 12 0
BBX 12 18 2 -2
BITMAP
3F80
0000
1FF0
3C00
3C00
3C00
3800
3800
7FC0
7800
7800
7800
7000
F000
F000
FFC0
0000
1C00
ENDCHAR
STARTCHAR uni1EC7
ENCODING 7879
SWIDTH 612 0
DWIDTH 12 0
BBX 10 14 2 -2
BITMAP
3F80
0000
0780
1DC0
38C0
71C0
F180
F300
FE00
F040
70C0
3F00
0000
1C00
ENDCHAR
STARTCHAR uni1ECA
ENCODING 7882
SWIDTH 361 0
DWIDTH 7 0
BBX 6 16 2 -2
BITMAP
3C
3C
3C
38
38
38
78
78
70
70
70
F0
F0
F0
00
70
ENDCHAR
STARTCHAR uni1ECB
ENCODING 7883
SWIDTH 343 0
DWIDTH 7 0
BBX 7 16 1 -2
BITMAP
3E
00
00
00
3C
3C
3C
78
78
78
78
70
F0
F0
00
70
ENDCHAR
STARTCHAR uni1ECC
ENCODING 7884
SWIDTH 855 0
DWIDTH 16 0
BBX 13 16 3 -2
BITMAP
07C0
0C70
1838
3038
7038
6038
E038
E038
E038
E070
E060
60E0
71C0
1F00
0000
0E00
ENDCHAR
STARTCHAR uni1ECD
ENCODING 7885
SWIDTH 663 0
DWIDTH 13 0
BBX 10 12 2 -2
BITMAP
0F00
3380
71C0
61C0
E1C0
E180
E380
E300
E600
3C00
0000
1C00
ENDCHAR
STARTCHAR uni1ED0
ENCODING 7888
SWIDTH 855 0
DWIDTH 16 0
BBX 13 18 3 0
BITMAP
07E0
0000
07F0
0000
07C0
0C70
1838
3038
7038
6038
E038
E038
E038
E070
E060
60E0
71C0
1F00
ENDCHAR
STARTCHAR uni1ED1
ENCODING 7889
SWIDTH 663 0
DWIDTH 13 0
BBX 10 14 2 0
BITMAP
1F80
0000
1FC0
0000
0F00
3380
71C0
61C0
E1C0
E180
E380
E300
E600
3C00
ENDCHAR
STARTCHAR uni1ED2
ENCODING 7890
SWIDTH 855 0
DWIDTH 16 0
BBX 13 18 3 0
BITMAP
03C0
0000
07F0
0000
07C0
0C70
1838
3038
7038
6038
E038
E038
E038
E070
E060
60E0
71C0
1F00
ENDCHAR
STARTCHAR uni1ED3
ENCODING 7891
SWIDTH 663 0
DWIDTH 13 0
BBX 10 14 2 0
BITMAP
0F00
0000
1FC0
0000
0F00
3380
71C0
61C0
E1C0
E180
E380
E300
E600
3C00
ENDCHAR
STARTCHAR uni1ED6
ENCODING 7894
SWIDTH 855 0
DWIDTH 16 0
BBX 13 18 3 0
BITMAP
0FE0
0000
07F0
0000
07C0
0C70
1838
3038
7038
6038
E038
E038
E038
E070
E060
60E0
71C0
1F00
ENDCHAR
STARTCHAR uni1ED7
ENCODING 7895
SWIDTH 663 0
DWIDTH 13 0
BBX 10 14 2 0
BITMAP
3F80
0000
1FC0
0000
0F00
3380
71C0
61C0
E1C0
E180
E380
E300
E600
3C00
ENDCHAR
STARTCHAR uni1ED8
ENCODING 7896
SWIDTH 855 0
DWIDTH 16 0
BBX 13 18 3 -2
BITMAP
0FE0
0000
07C0
0C70
1838
3038
7038
6038
E038
E038
E038
E070
E060
60E0
71C0
1F00
0000
0E00
ENDCHAR
STARTCHAR uni1ED9
ENCODING 7897
SWIDTH 663 0
DWIDTH 13 0
BBX 10 14 2 -2
BITMAP
3F80
0000
0F00
3380
71C0
61C0
E1C0
E180
E380
E300
E600
3C00
0000
1C00
ENDCHAR
STARTCHAR uni1EDA
ENCODING 7898
SWIDTH 855 0
DWIDTH 16 0
BBX 17 16 3 0
BITMAP
01F800
000000
07C780
0C7780
183F80
303B00
703B00
603E00
E03800
E03800
E03800
E07000
E06000
60E000
71C000
1F0000
ENDCHAR
STARTCHAR uni1EDB
ENCODING 7899
SWIDTH 663 0
DWIDTH 13 0
BBX 14 12 2 0
BITMAP
07E0
0000
0F3C
33BC
71FC
61D8
E1D8
E1F0
E380
E300
E600
3C00
ENDCHAR
STARTCHAR uni1EDC
ENCODING 7900
SWIDTH 855 0
DWIDTH 16 0
BBX 17 16 3 0
BITMAP
00F000
000000
07C780
0C7780
183F80
303B00
703B00
603E00
E03800
E03800
E03800
E07000
E06000
60E000
71C000
1F0000
ENDCHAR
STARTCHAR uni1EDD
ENCODING 7901
SWIDTH 663 0
DWIDTH 13 0
BBX 14 12 2 0
BITMAP
03C0
0000
0F3C
33BC
71FC
61D8
E1D8
E1F0
E380
E300
E600
3C00
ENDCHAR
STARTCHAR uni1EE0
ENCODING 7904
SWIDTH 855 0
DWIDTH 16 0
BBX 17 16 3 0
BITMAP
01FC00
000000
07C780
0C7780
183F80
303B00
703B00
603E00
E03800
E03800
E03800
E07000
E06000
60E000
71C000
1F0000
ENDCHAR
STARTCHAR uni1EE1
ENCODING 7905
SWIDTH 663 0
DWIDTH 13 0
BBX 14 12 2 0
BITMAP
07F0
0000
0F3C
33BC
71FC
61D8
E1D8
E1F0
E380
E300
E600
3C00
ENDCHAR
STARTCHAR uni1EE2
ENCODING 7906
SWIDTH 855 0
DWIDTH 16 0
BBX 17 16 3 -2
BITMAP
07C780
0C7780
183F80
303B00
703B00
603E00
E03800
E03800
E03800
E07000
E06000
60E000
71C000
1F0000
000000
070000
ENDCHAR
STARTCHAR uni1EE3
ENCODING 7907
SWIDTH 663 0
DWIDTH 13 0
BBX 14 12 2 -2
BITMAP
0F3C
33BC
71FC
61D8
E1D8
E1F0
E380
E300
E600
3C00
0000
1C00
ENDCHAR
STARTCHAR uni1EE4
ENCODING 7908
SWIDTH 759 0
DWIDTH 14 0
BBX 13 16 3 -2
BITMAP
3838
7838
7878
7070
7070
7070
F070
E070
E0E0
E0E0
E0E0
E0C0
7180
3F00
0000
0E00
ENDCHAR
STARTCHAR uni1EE5
ENCODING 7909
SWIDTH 675 0
DWIDTH 13 0
BBX 12 12 2 -2
BITMAP
38F0
38F0
30E0
71E0
71E0
73E0
75E0
7DC0
F9C0
73C0
0000
0E00
ENDCHAR
STARTCHAR uni1EE8
ENCODING 7912
SWIDTH 759 0
DWIDTH 14 0
BBX 17 16 3 0
BITMAP
03F000
000000
383F80
783F80
787F80
707300
707300
707E00
F07000
E07000
E0E000
E0E000
E0E000
E0C000
718000
3F0000
ENDCHAR
STARTCHAR uni1EE9
ENCODING 7913
SWIDTH 675 0
DWIDTH 13 0
BBX 16 12 2 0
BITMAP
03F0
0000
38FF
38FF
30EF
71E6
71E6
73FC
75E0
7DC0
F9C0
73C0
ENDCHAR
STARTCHAR uni1EEA
ENCODING 7914
SWIDTH 759 0
DWIDTH 14 0
BBX 17 16 3 0
BITMAP
01E000
000000
383F80
783F80
787F80
707300
707300
707E00
F07000
E07000
E0E000
E0E000
E0E000
E0C000
718000
3F0000
ENDCHAR
STARTCHAR uni1EEB
ENCODING 7915
SWIDTH 675 0
DWIDTH 13 0
BBX 16 12 2 0
BITMAP
01E0
0000
38FF
38FF
30EF
71E6
71E6
73FC
75E0
7DC0
F9C0
73C0
ENDCHAR
STARTCHAR uni1EEE
ENCODING 7918
SWIDTH 759 0
DWIDTH 14 0
BBX 17 16 3 0
BITMAP
03F800
000000
383F80
783F80
787F80
707300
707300
707E00
F07000
E07000
E0E000
E0E000
E0E000
E0C000
718000
3F0000
ENDCHAR
STARTCHAR uni1EEF
ENCODING 7919
SWIDTH 675 0
DWIDTH 13 0
BBX 16 12 2 0
BITMAP
03F8
0000
38FF
38FF
30EF
71E6
71E6
73FC
75E0
7DC0
F9C0
73C0
ENDCHAR
STARTCHAR uni1EF0
ENCODING 7920
SWIDTH 759 0
DWIDTH 14 0
BBX 17 16 3 -2
BITMAP
383F80
783F80
787F80
707300
707300
707E00
F07000
E07000
E0E000
E0E000
E0E000
E0C000
718000
3F0000
000000
070000
ENDCHAR
STARTCHAR uni1EF1
ENCODING 7921
SWIDTH 675 0
DWIDTH 13 0
BBX 16 12 2 -2
BITMAP
38FF
38FF
30EF
71E6
71E6
73FC
75E0
7DC0
F9C0
73C0
0000
0700
ENDCHAR
STARTCHAR Ygrave
ENCODING 7922
SWIDTH 681 0
DWIDTH 13 0
BBX 10 16 2 0
BITMAP
3C00
0000
C040
E080
E100
6300
7200
7400
3C00
3800
3800
7800
7800
7800
7000
F000
ENDCHAR
STARTCHAR ygrave
ENCODING 7923
SWIDTH 633 0
DWIDTH 12 0
BBX 11 16 0 -4
BITMAP
1E00
0000
7020
7040
78C0
7880
7900
3B00
3A00
3C00
3C00
3800
3000
3000
6000
C000
ENDCHAR
STARTCHAR uni1EF4
ENCODING 7924
SWIDTH 681 0
DWIDTH 13 0
BBX 10 16 2 -2
BITMAP
C040
E080
E100
6300
7200
7400
3C00
3800
3800
7800
7800
7800
7000
F000
0000
3800
ENDCHAR
STARTCHAR uni1EF5
ENCODING 7925
SWIDTH 633 0
DWIDTH 12 0
BBX 11 16 0 -6
BITMAP
7020
7040
78C0
7880
7900
3B00
3A00
3C00
3C00
3800
3000
3000
6000
C000
0000
3800
ENDCHAR
STARTCHAR uni1EF8
ENCODING 7928
SWIDTH 681 0
DWIDTH 13 0
BBX 10 16 2 0
BITMAP
7F00
0000
C040
E080
E100
6300
7200
7400
3C00
3800
3800
7800
7800
7800
7000
F000
ENDCHAR
STARTCHAR uni1EF9
ENCODING 7929
SWIDTH 633 0
DWIDTH 12 0
BBX 11 16 0 -4
BITMAP
7F00
0000
7020
7040
78C0
7880
7900
3B00
3A00
3C00
3C00
3800
3000
3000
6000
C000
ENDCHAR
STARTCHAR uni2000
ENCODING 8192
SWIDTH 500 0
DWIDTH 10 0
BBX 1 1 0 0
BITMAP
00
ENDCHAR
STARTCHAR uni2001
ENCODING 8193
SWIDTH 1000 0
DWIDTH 20 0
BBX 1 1 0 0
BITMAP
00
ENDCHAR
STARTCHAR uni2002
ENCODING 8194
SWIDTH 500 0
DWIDTH 10 0
BBX 1 1 0 0
BITMAP
00
ENDCHAR
STARTCHAR uni2003
ENCODING 8195
SWIDTH 1000 0
DWIDTH 20 0
BBX 1 1 0 0
BITMAP
00
ENDCHAR
STARTCHAR uni2004
ENCODING 8196
SWIDTH 333 0
DWIDTH 7 0
BBX 1 1 0 0
BITMAP
00
ENDCHAR
STARTCHAR uni2005
ENCODING 8197
SWIDTH 250 0
DWIDTH 5 0
BBX 1 1 0 0
BITMAP
00
ENDCHAR
STARTCHAR uni2006
ENCODING 8198
SWIDTH 167 0
DWIDTH 3 0
BBX 1 1 0 0
BITMAP
00
ENDCHAR
STARTCHAR uni2007
ENCODING 8199
SWIDTH 687 0
DWIDTH 13 0
BBX 1 1 0 0
BITMAP
00
ENDCHAR
STARTCHAR uni2008
ENCODING 8200
SWIDTH 343 0
DWIDTH 7 0
BBX 1 1 0 0
BITMAP
00
ENDCHAR
STARTCHAR uni2009
ENCODING 8201
SWIDTH 200 0
DWIDTH 4 0
BBX 1 1 0 0
BITMAP
00
ENDCHAR
STARTCHAR uni200A
ENCODING 8202
SWIDTH 100 0
DWIDTH 2 0
BBX 1 1 0 0
BITMAP
00
ENDCHAR
STARTCHAR uni200B
ENCODING 8203
SWIDTH 0 0
DWIDTH 0 0
BBX 1 1 0 0
BITMAP
00
ENDCHAR
STARTCHAR uni2010
ENCODING 8208
SWIDTH 289 0
DWIDTH 5 0
BBX 5 1 1 6
BITMAP
F8
ENDCHAR
STARTCHAR uni2011
ENCODING 8209
SWIDTH 289 0
DWIDTH 5 0
BBX 5 1 1 6
BITMAP
F8
ENDCHAR
STARTCHAR figuredash
ENCODING 8210
SWIDTH 500 0
DWIDTH 10 0
BBX 9 1 1 6
BITMAP
FF80
ENDCHAR
STARTCHAR endash
ENCODING 8211
SWIDTH 500 0
DWIDTH 10 0
BBX 9 1 1 6
BITMAP
FF80
ENDCHAR
STARTCHAR emdash
ENCODING 8212
SWIDTH 1000 0
DWIDTH 19 0
BBX 18 1 2 5
BITMAP
FFFFC0
ENDCHAR
STARTCHAR afii00208
ENCODING 8213
SWIDTH 1000 0
DWIDTH 19 0
BBX 18 1 2 5
BITMAP
FFFFC0
ENDCHAR
STARTCHAR quoteleft
ENCODING 8216
SWIDTH 265 0
DWIDTH 5 0
BBX 5 6 2 8
BITMAP
38
60
70
F0
F0
F0
ENDCHAR
STARTCHAR quoteright
ENCODING 8217
SWIDTH 265 0
DWIDTH 5 0
BBX 5 6 2 8
BITMAP
78
78
78
30
30
E0
ENDCHAR
STARTCHAR quotesinglbase
ENCODING 8218
SWIDTH 265 0
DWIDTH 5 0
BBX 5 7 0 -3
BITMAP
78
78
78
70
30
70
E0
ENDCHAR
STARTCHAR quotereversed
ENCODING 8219
SWIDTH 265 0
DWIDTH 5 0
BBX 5 6 2 8
BITMAP
F0
F0
F0
60
60
38
ENDCHAR
STARTCHAR quotedblleft
ENCODING 8220
SWIDTH 530 0
DWIDTH 10 0
BBX 10 6 2 8
BITMAP
39C0
6300
7380
F380
F780
F780
ENDCHAR
STARTCHAR quotedblright
ENCODING 8221
SWIDTH 530 0
DWIDTH 10 0
BBX 10 6 2 8
BITMAP
7BC0
7BC0
73C0
7380
3180
E700
ENDCHAR
STARTCHAR quotedblbase
ENCODING 8222
SWIDTH 530 0
DWIDTH 10 0
BBX 10 7 0 -3
BITMAP
7BC0
7BC0
7BC0
7380
3180
7380
E700
ENDCHAR
STARTCHAR uni201F
ENCODING 8223
SWIDTH 530 0
DWIDTH 10 0
BBX 10 6 2 8
BITMAP
F780
F780
F380
7380
6300
39C0
ENDCHAR
STARTCHAR dagger
ENCODING 8224
SWIDTH 687 0
DWIDTH 13 0
BBX 10 17 3 -3
BITMAP
0F00
0F00
0E00
0E00
0E00
FFC0
1C00
1C00
1C00
1C00
3C00
3C00
3800
3800
3800
7800
7800
ENDCHAR
STARTCHAR daggerdbl
ENCODING 8225
SWIDTH 687 0
DWIDTH 13 0
BBX 11 17 2 -3
BITMAP
0780
0780
0700
0700
0700
7FE0
0E00
0E00
0E00
0E00
FFC0
1C00
1C00
1C00
1C00
3C00
3C00
ENDCHAR
STARTCHAR bullet
ENCODING 8226
SWIDTH 687 0
DWIDTH 13 0
BBX 9 6 3 3
BITMAP
7F80
7F80
7F00
7F00
FF00
FF00
ENDCHAR
STARTCHAR ellipsis
ENCODING 8230
SWIDTH 1000 0
DWIDTH 19 0
BBX 15 1 2 0
BITMAP
E38E
ENDCHAR
STARTCHAR perthousand
ENCODING 8240
SWIDTH 1332 0
DWIDTH 25 0
BBX 24 14 2 0
BITMAP
380600
6C0400
C40800
C41000
CC2000
CC4000
CC8000
710000
023E1E
046333
084333
10C323
204636
407C1C
ENDCHAR
STARTCHAR guilsinglleft
ENCODING 8249
SWIDTH 386 0
DWIDTH 7 0
BBX 6 8 2 1
BITMAP
04
0C
10
20
F0
70
30
18
ENDCHAR
STARTCHAR guilsinglright
ENCODING 8250
SWIDTH 386 0
DWIDTH 7 0
BBX 6 8 1 1
BITMAP
60
30
38
3C
10
20
C0
80
ENDCHAR
STARTCHAR fraction
ENCODING 8260
SWIDTH 130 0
DWIDTH 2 0
BBX 14 14 -6 0
BITMAP
000C
0018
0030
0020
0040
0080
0100
0200
0400
0800
1000
3000
6000
C000
ENDCHAR
STARTCHAR oneinferior
ENCODING 8321
SWIDTH 539 0
DWIDTH 8 0
BBX 4 8 -13 -4
BITMAP
F0
70
60
60
60
60
E0
C0
ENDCHAR
STARTCHAR twoinferior
ENCODING 8322
SWIDTH 539 0
DWIDTH 8 0
BBX 7 8 -12 -4
BITMAP
7C
06
06
0C
18
20
60
FC
ENDCHAR
STARTCHAR threeinferior
ENCODING 8323
SWIDTH 539 0
DWIDTH 8 0
BBX 7 8 -12 -4
BITMAP
7C
06
0E
78
0C
0C
0C
F8
ENDCHAR
STARTCHAR uni20A5
ENCODING 8357
SWIDTH 991 0
DWIDTH 19 0
BBX 18 17 1 -3
BITMAP
000200
000400
000C00
000800
3CF380
39F7C0
3BEF80
7EEB80
7CF180
79E380
71E380
73C300
F3C300
F7C700
0C0000
080000
100000
ENDCHAR
STARTCHAR uni20A6
ENCODING 8358
SWIDTH 789 0
DWIDTH 15 0
BBX 14 14 2 0
BITMAP
181C
3C1C
3C1C
3FF8
3E38
3738
7738
73B8
73B0
7FF0
61F0
E0F0
E0F0
E060
ENDCHAR
STARTCHAR uni20A9
ENCODING 8361
SWIDTH 991 0
DWIDTH 19 0
BBX 16 14 4 0
BITMAP
C181
C382
C382
DFFC
C584
E588
ED98
E990
E9B0
FFF8
F1E0
71E0
61C0
61C0
ENDCHAR
STARTCHAR Euro
ENCODING 8364
SWIDTH 737 0
DWIDTH 14 0
BBX 17 14 -1 0
BITMAP
007F80
01C180
030000
7FF000
0E0000
0C0000
1C0000
1C0000
1C0000
FFE000
1C0000
0E0000
0F0600
03FE00
ENDCHAR
STARTCHAR uni20AD
ENCODING 8365
SWIDTH 753 0
DWIDTH 14 0
BBX 12 14 2 0
BITMAP
1C30
3C20
3C40
3CC0
3D80
3900
FFF0
7F00
7B80
79C0
71C0
F0E0
F0E0
F070
ENDCHAR
STARTCHAR uni2103
ENCODING 8451
SWIDTH 966 0
DWIDTH 19 0
BBX 17 14 4 0
BITMAP
807F80
81C180
830000
070000
0E0000
0C0000
1C0000
1C0000
1C0000
1C0000
1C0000
0E0000
0F0600
03FE00
ENDCHAR
STARTCHAR uni2109
ENCODING 8457
SWIDTH 843 0
DWIDTH 17 0
BBX 15 14 4 0
BITMAP
83FE
8780
8780
0780
0700
0700
0FF8
0F00
0F00
0E00
0E00
1E00
1E00
1E00
ENDCHAR
STARTCHAR trademark
ENCODING 8482
SWIDTH 901 0
DWIDTH 17 0
BBX 17 8 2 6
BITMAP
FFF780
38F780
38F780
38FF00
38F700
79B700
79B700
718F00
ENDCHAR
STARTCHAR uni212A
ENCODING 8490
SWIDTH 753 0
DWIDTH 14 0
BBX 12 14 2 0
BITMAP
1C30
3C20
3C40
3CC0
3D80
3900
7B00
7F00
7B80
79C0
71C0
F0E0
F0E0
F070
ENDCHAR
STARTCHAR uni212B
ENCODING 8491
SWIDTH 771 0
DWIDTH 15 0
BBX 13 16 -1 0
BITMAP
00E0
0000
01C0
01E0
03E0
07E0
05E0
0CE0
08F0
18F0
10F0
30F0
3FF0
6078
4078
8078
ENDCHAR
STARTCHAR uni2132
ENCODING 8498
SWIDTH 614 0
DWIDTH 12 0
BBX 12 14 2 0
BITMAP
00F0
00F0
00F0
00E0
00E0
01E0
01E0
3FE0
01C0
01C0
03C0
03C0
03C0
FF80
ENDCHAR
STARTCHAR minus
ENCODING 8722
SWIDTH 687 0
DWIDTH 13 0
BBX 11 1 2 6
BITMAP
FFE0
ENDCHAR
STARTCHAR fraction
ENCODING 8725
SWIDTH 130 0
DWIDTH 2 0
BBX 14 14 -6 0
BITMAP
000C
0018
0030
0020
0040
0080
0100
0200
0400
0800
1000
3000
6000
C000
ENDCHAR
STARTCHAR periodcentered
ENCODING 8729
SWIDTH 343 0
DWIDTH 13 0
BBX 3 1 6 6
BITMAP
E0
ENDCHAR
STARTCHAR uni2236
ENCODING 8758
SWIDTH 343 0
DWIDTH 7 0
BBX 6 10 1 0
BITMAP
3C
3C
78
00
00
00
00
78
F0
F0
ENDCHAR
STARTCHAR uni2259
ENCODING 8793
SWIDTH 687 0
DWIDTH 13 0
BBX 12 9 2 2
BITMAP
1FC0
0000
7FF0
0000
0000
0000
0000
0000
FFE0
ENDCHAR
STARTCHAR uni225A
ENCODING 8794
SWIDTH 687 0
DWIDTH 13 0
BBX 12 9 2 2
BITMAP
1FC0
0000
7FF0
0000
0000
0000
0000
0000
FFE0
ENDCHAR
STARTCHAR notequal
ENCODING 8800
SWIDTH 687 0
DWIDTH 13 0
BBX 12 17 2 -3
BITMAP
0010
0020
0060
0040
0080
7FF0
0100
0200
0600
0400
0800
FFE0
1000
2000
6000
4000
8000
ENDCHAR
STARTCHAR equivalence
ENCODING 8801
SWIDTH 687 0
DWIDTH 13 0
BBX 12 5 0 3
BITMAP
FFF0
0000
FFF0
0000
FFF0
ENDCHAR
STARTCHAR uni2262
ENCODING 8802
SWIDTH 687 0
DWIDTH 13 0
BBX 12 17 0 -3
BITMAP
0010
0020
0060
0040
0080
0180
FFF0
0200
FFF0
0400
FFF0
1800
1000
2000
6000
4000
8000
ENDCHAR
STARTCHAR lessequal
ENCODING 8804
SWIDTH 687 0
DWIDTH 13 0
BBX 11 12 1 -1
BITMAP
0060
01C0
0700
1C00
F000
6000
1000
0C00
0300
0180
0000
FFE0
ENDCHAR
STARTCHAR greaterequal
ENCODING 8805
SWIDTH 687 0
DWIDTH 13 0
BBX 11 12 1 -1
BITMAP
3000
1800
0600
0300
00C0
01E0
0700
1C00
7000
C000
0000
FFE0
ENDCHAR
STARTCHAR uni226E
ENCODING 8814
SWIDTH 687 0
DWIDTH 13 0
BBX 12 17 1 -2
BITMAP
0010
0020
0060
0040
00E0
01C0
0700
1E00
F600
6400
1800
1C00
1300
2180
6000
4000
8000
ENDCHAR
STARTCHAR uni226F
ENCODING 8815
SWIDTH 687 0
DWIDTH 13 0
BBX 12 17 1 -2
BITMAP
0010
0020
0060
0040
3080
1980
0700
0300
06C0
05E0
0F00
1C00
7000
E000
6000
4000
8000
ENDCHAR
STARTCHAR uni2270
ENCODING 8816
SWIDTH 687 0
DWIDTH 13 0
BBX 12 17 1 -3
BITMAP
0010
0020
0060
0060
01C0
0780
1D00
F200
6600
1400
0C00
1B00
1180
2000
FFE0
4000
8000
ENDCHAR
STARTCHAR uni2271
ENCODING 8817
SWIDTH 687 0
DWIDTH 13 0
BBX 12 17 1 -3
BITMAP
0010
0020
0060
3040
1880
0780
0300
02C0
07E0
0700
1C00
7800
D000
2000
FFE0
4000
8000
ENDCHAR
STARTCHAR fi
ENCODING -1
SWIDTH 695 0
DWIDTH 13 0
BBX 13 18 1 -4
BITMAP
03E0
0E20
0E00
1E00
7FF8
3C78
3C70
3CF0
38F0
38F0
78F0
78E0
78E0
79E0
7000
F000
F000
F000
ENDCHAR
STARTCHAR fl
ENCODING -1
SWIDTH 695 0
DWIDTH 13 0
BBX 14 18 1 -4
BITMAP
03FC
0E3C
0E38
1E78
7F78
3C78
3C78
3C70
38F0
38F0
78F0
78F0
78E0
79E0
7000
F000
F000
F000
ENDCHAR
ENDFONT
